<?xml version="1.0" encoding="UTF-8"?>
<!DOCTYPE svg PUBLIC "-//W3C//DTD SVG 1.1//EN" "http://www.w3.org/Graphics/SVG/1.1/DTD/svg11.dtd">
<svg width="252mm" height="125mm" viewBox="0 0 25200 12500" version="1.1" xmlns="http://www.w3.org/2000/svg" xmlns:xlink="http://www.w3.org/1999/xlink" stroke-width="28.222" stroke-linejoin="round" xml:space="preserve">
 <path fill="rgb(255,255,255)" stroke="none" d="M 12619,12537 L 0,12537 0,0 25237,0 25237,12537 12619,12537 Z"/>
 <path fill="none" stroke="rgb(179,179,179)" stroke-linejoin="round" d="M 13589,11640 L 2798,11640 2798,1614 24380,1614 24380,11640 13589,11640 Z"/>
 <path fill="none" stroke="rgb(179,179,179)" stroke-linejoin="round" d="M 24380,11639 L 2798,11639"/>
 <path fill="none" stroke="rgb(179,179,179)" stroke-linejoin="round" d="M 24380,10636 L 2798,10636"/>
 <path fill="none" stroke="rgb(179,179,179)" stroke-linejoin="round" d="M 24380,9633 L 2798,9633"/>
 <path fill="none" stroke="rgb(179,179,179)" stroke-linejoin="round" d="M 24380,8630 L 2798,8630"/>
 <path fill="none" stroke="rgb(179,179,179)" stroke-linejoin="round" d="M 24380,7628 L 2798,7628"/>
 <path fill="none" stroke="rgb(179,179,179)" stroke-linejoin="round" d="M 24380,6625 L 2798,6625"/>
 <path fill="none" stroke="rgb(179,179,179)" stroke-linejoin="round" d="M 24380,5623 L 2798,5623"/>
 <path fill="none" stroke="rgb(179,179,179)" stroke-linejoin="round" d="M 24380,4621 L 2798,4621"/>
 <path fill="none" stroke="rgb(179,179,179)" stroke-linejoin="round" d="M 24380,3618 L 2798,3618"/>
 <path fill="none" stroke="rgb(179,179,179)" stroke-linejoin="round" d="M 24380,2615 L 2798,2615"/>
 <path fill="none" stroke="rgb(179,179,179)" stroke-linejoin="round" d="M 24380,1613 L 2798,1613"/>
 <path fill="none" stroke="rgb(179,179,179)" stroke-linejoin="round" d="M 2798,11789 L 2798,11639"/>
 <path fill="none" stroke="rgb(179,179,179)" stroke-linejoin="round" d="M 2798,11789 L 2798,11639"/>
 <path fill="none" stroke="rgb(179,179,179)" stroke-linejoin="round" d="M 5881,11789 L 5881,11639"/>
 <path fill="none" stroke="rgb(179,179,179)" stroke-linejoin="round" d="M 5881,11789 L 5881,11639"/>
 <path fill="none" stroke="rgb(179,179,179)" stroke-linejoin="round" d="M 8964,11789 L 8964,11639"/>
 <path fill="none" stroke="rgb(179,179,179)" stroke-linejoin="round" d="M 8964,11789 L 8964,11639"/>
 <path fill="none" stroke="rgb(179,179,179)" stroke-linejoin="round" d="M 12047,11789 L 12047,11639"/>
 <path fill="none" stroke="rgb(179,179,179)" stroke-linejoin="round" d="M 12047,11789 L 12047,11639"/>
 <path fill="none" stroke="rgb(179,179,179)" stroke-linejoin="round" d="M 15130,11789 L 15130,11639"/>
 <path fill="none" stroke="rgb(179,179,179)" stroke-linejoin="round" d="M 15130,11789 L 15130,11639"/>
 <path fill="none" stroke="rgb(179,179,179)" stroke-linejoin="round" d="M 18213,11789 L 18213,11639"/>
 <path fill="none" stroke="rgb(179,179,179)" stroke-linejoin="round" d="M 18213,11789 L 18213,11639"/>
 <path fill="none" stroke="rgb(179,179,179)" stroke-linejoin="round" d="M 21296,11789 L 21296,11639"/>
 <path fill="none" stroke="rgb(179,179,179)" stroke-linejoin="round" d="M 21296,11789 L 21296,11639"/>
 <path fill="none" stroke="rgb(179,179,179)" stroke-linejoin="round" d="M 24380,11789 L 24380,11639"/>
 <path fill="none" stroke="rgb(179,179,179)" stroke-linejoin="round" d="M 24380,11789 L 24380,11639"/>
 <path fill="none" stroke="rgb(179,179,179)" stroke-linejoin="round" d="M 2798,11639 L 24380,11639"/>
 <path fill="none" stroke="rgb(179,179,179)" stroke-linejoin="round" d="M 2648,11639 L 2798,11639"/>
 <path fill="none" stroke="rgb(179,179,179)" stroke-linejoin="round" d="M 2648,11639 L 2798,11639"/>
 <path fill="none" stroke="rgb(179,179,179)" stroke-linejoin="round" d="M 2648,10636 L 2798,10636"/>
 <path fill="none" stroke="rgb(179,179,179)" stroke-linejoin="round" d="M 2648,10636 L 2798,10636"/>
 <path fill="none" stroke="rgb(179,179,179)" stroke-linejoin="round" d="M 2648,9633 L 2798,9633"/>
 <path fill="none" stroke="rgb(179,179,179)" stroke-linejoin="round" d="M 2648,9633 L 2798,9633"/>
 <path fill="none" stroke="rgb(179,179,179)" stroke-linejoin="round" d="M 2648,8630 L 2798,8630"/>
 <path fill="none" stroke="rgb(179,179,179)" stroke-linejoin="round" d="M 2648,8630 L 2798,8630"/>
 <path fill="none" stroke="rgb(179,179,179)" stroke-linejoin="round" d="M 2648,7628 L 2798,7628"/>
 <path fill="none" stroke="rgb(179,179,179)" stroke-linejoin="round" d="M 2648,7628 L 2798,7628"/>
 <path fill="none" stroke="rgb(179,179,179)" stroke-linejoin="round" d="M 2648,6625 L 2798,6625"/>
 <path fill="none" stroke="rgb(179,179,179)" stroke-linejoin="round" d="M 2648,6625 L 2798,6625"/>
 <path fill="none" stroke="rgb(179,179,179)" stroke-linejoin="round" d="M 2648,5623 L 2798,5623"/>
 <path fill="none" stroke="rgb(179,179,179)" stroke-linejoin="round" d="M 2648,5623 L 2798,5623"/>
 <path fill="none" stroke="rgb(179,179,179)" stroke-linejoin="round" d="M 2648,4621 L 2798,4621"/>
 <path fill="none" stroke="rgb(179,179,179)" stroke-linejoin="round" d="M 2648,4621 L 2798,4621"/>
 <path fill="none" stroke="rgb(179,179,179)" stroke-linejoin="round" d="M 2648,3618 L 2798,3618"/>
 <path fill="none" stroke="rgb(179,179,179)" stroke-linejoin="round" d="M 2648,3618 L 2798,3618"/>
 <path fill="none" stroke="rgb(179,179,179)" stroke-linejoin="round" d="M 2648,2615 L 2798,2615"/>
 <path fill="none" stroke="rgb(179,179,179)" stroke-linejoin="round" d="M 2648,2615 L 2798,2615"/>
 <path fill="none" stroke="rgb(179,179,179)" stroke-linejoin="round" d="M 2648,1613 L 2798,1613"/>
 <path fill="none" stroke="rgb(179,179,179)" stroke-linejoin="round" d="M 2648,1613 L 2798,1613"/>
 <path fill="none" stroke="rgb(179,179,179)" stroke-linejoin="round" d="M 2798,11639 L 2798,1613"/>
 <path fill="rgb(0,69,134)" stroke="none" d="M 22067,11639 L 23609,11639 23609,3066 22067,3066 22067,11639 Z"/>
 <path fill="rgb(0,69,134)" stroke="none" d="M 18984,11639 L 20525,11639 20525,3471 18984,3471 18984,11639 Z"/>
 <path fill="rgb(0,69,134)" stroke="none" d="M 15900,11639 L 17442,11639 17442,3374 15900,3374 15900,11639 Z"/>
 <path fill="rgb(0,69,134)" stroke="none" d="M 12817,11639 L 14359,11639 14359,3203 12817,3203 12817,11639 Z"/>
 <path fill="rgb(0,69,134)" stroke="none" d="M 9735,11639 L 11277,11639 11277,3274 9735,3274 9735,11639 Z"/>
 <path fill="rgb(0,69,134)" stroke="none" d="M 6652,11639 L 8193,11639 8193,3167 6652,3167 6652,11639 Z"/>
 <path fill="rgb(0,69,134)" stroke="none" d="M 3568,11639 L 5110,11639 5110,3250 3568,3250 3568,11639 Z"/>
 <text class="TextShape"><tspan class="TextParagraph" font-family="Liberation Sans, sans-serif" font-size="353px" font-weight="400"><tspan class="TextPosition" x="3677" y="12207"><tspan fill="rgb(0,0,0)" stroke="none">Baseline</tspan></tspan></tspan></text>
 <text class="TextShape"><tspan class="TextParagraph" font-family="Liberation Sans, sans-serif" font-size="353px" font-weight="400"><tspan class="TextPosition" x="6416" y="12207"><tspan fill="rgb(0,0,0)" stroke="none">Red. In. Size</tspan></tspan></tspan></text>
 <text class="TextShape"><tspan class="TextParagraph" font-family="Liberation Sans, sans-serif" font-size="353px" font-weight="400"><tspan class="TextPosition" x="9275" y="12207"><tspan fill="rgb(0,0,0)" stroke="none">Red. Layer Size</tspan></tspan></tspan></text>
 <text class="TextShape"><tspan class="TextParagraph" font-family="Liberation Sans, sans-serif" font-size="353px" font-weight="400"><tspan class="TextPosition" x="13007" y="12207"><tspan fill="rgb(0,0,0)" stroke="none">Pruning</tspan></tspan></tspan></text>
 <text class="TextShape"><tspan class="TextParagraph" font-family="Liberation Sans, sans-serif" font-size="353px" font-weight="400"><tspan class="TextPosition" x="15812" y="12207"><tspan fill="rgb(0,0,0)" stroke="none">Sep. Conv.</tspan></tspan></tspan></text>
 <text class="TextShape"><tspan class="TextParagraph" font-family="Liberation Sans, sans-serif" font-size="353px" font-weight="400"><tspan class="TextPosition" x="18988" y="12207"><tspan fill="rgb(0,0,0)" stroke="none">Combined</tspan></tspan></tspan></text>
 <text class="TextShape"><tspan class="TextParagraph" font-family="Liberation Sans, sans-serif" font-size="353px" font-weight="400"><tspan class="TextPosition" x="20921" y="12207"><tspan fill="rgb(0,0,0)" stroke="none">Combined no Sep. Conv.</tspan></tspan></tspan></text>
 <text class="TextShape"><tspan class="TextParagraph" font-family="Liberation Sans, sans-serif" font-size="353px" font-weight="400"><tspan class="TextPosition" x="1516" y="11760"><tspan fill="rgb(0,0,0)" stroke="none">0.0000</tspan></tspan></tspan></text>
 <text class="TextShape"><tspan class="TextParagraph" font-family="Liberation Sans, sans-serif" font-size="353px" font-weight="400"><tspan class="TextPosition" x="1516" y="10757"><tspan fill="rgb(0,0,0)" stroke="none">0.1000</tspan></tspan></tspan></text>
 <text class="TextShape"><tspan class="TextParagraph" font-family="Liberation Sans, sans-serif" font-size="353px" font-weight="400"><tspan class="TextPosition" x="1516" y="9754"><tspan fill="rgb(0,0,0)" stroke="none">0.2000</tspan></tspan></tspan></text>
 <text class="TextShape"><tspan class="TextParagraph" font-family="Liberation Sans, sans-serif" font-size="353px" font-weight="400"><tspan class="TextPosition" x="1516" y="8751"><tspan fill="rgb(0,0,0)" stroke="none">0.3000</tspan></tspan></tspan></text>
 <text class="TextShape"><tspan class="TextParagraph" font-family="Liberation Sans, sans-serif" font-size="353px" font-weight="400"><tspan class="TextPosition" x="1516" y="7749"><tspan fill="rgb(0,0,0)" stroke="none">0.4000</tspan></tspan></tspan></text>
 <text class="TextShape"><tspan class="TextParagraph" font-family="Liberation Sans, sans-serif" font-size="353px" font-weight="400"><tspan class="TextPosition" x="1516" y="6746"><tspan fill="rgb(0,0,0)" stroke="none">0.5000</tspan></tspan></tspan></text>
 <text class="TextShape"><tspan class="TextParagraph" font-family="Liberation Sans, sans-serif" font-size="353px" font-weight="400"><tspan class="TextPosition" x="1516" y="5743"><tspan fill="rgb(0,0,0)" stroke="none">0.6000</tspan></tspan></tspan></text>
 <text class="TextShape"><tspan class="TextParagraph" font-family="Liberation Sans, sans-serif" font-size="353px" font-weight="400"><tspan class="TextPosition" x="1516" y="4741"><tspan fill="rgb(0,0,0)" stroke="none">0.7000</tspan></tspan></tspan></text>
 <text class="TextShape"><tspan class="TextParagraph" font-family="Liberation Sans, sans-serif" font-size="353px" font-weight="400"><tspan class="TextPosition" x="1516" y="3738"><tspan fill="rgb(0,0,0)" stroke="none">0.8000</tspan></tspan></tspan></text>
 <text class="TextShape"><tspan class="TextParagraph" font-family="Liberation Sans, sans-serif" font-size="353px" font-weight="400"><tspan class="TextPosition" x="1516" y="2735"><tspan fill="rgb(0,0,0)" stroke="none">0.9000</tspan></tspan></tspan></text>
 <text class="TextShape"><tspan class="TextParagraph" font-family="Liberation Sans, sans-serif" font-size="353px" font-weight="400"><tspan class="TextPosition" x="1516" y="1733"><tspan fill="rgb(0,0,0)" stroke="none">1.0000</tspan></tspan></tspan></text>
 <text class="TextShape"><tspan class="TextParagraph" font-family="Liberation Sans, sans-serif" font-size="353px" font-weight="400"><tspan class="TextPosition" x="3757" y="7565"><tspan fill="rgb(255,255,255)" stroke="none">83.67%</tspan></tspan></tspan></text>
 <text class="TextShape"><tspan class="TextParagraph" font-family="Liberation Sans, sans-serif" font-size="353px" font-weight="400"><tspan class="TextPosition" x="6840" y="7523"><tspan fill="rgb(255,255,255)" stroke="none">84.50%</tspan></tspan></tspan></text>
 <text class="TextShape"><tspan class="TextParagraph" font-family="Liberation Sans, sans-serif" font-size="353px" font-weight="400"><tspan class="TextPosition" x="9924" y="7577"><tspan fill="rgb(255,255,255)" stroke="none">83.43%</tspan></tspan></tspan></text>
 <text class="TextShape"><tspan class="TextParagraph" font-family="Liberation Sans, sans-serif" font-size="353px" font-weight="400"><tspan class="TextPosition" x="13007" y="7541"><tspan fill="rgb(255,255,255)" stroke="none">84.13%</tspan></tspan></tspan></text>
 <text class="TextShape"><tspan class="TextParagraph" font-family="Liberation Sans, sans-serif" font-size="353px" font-weight="400"><tspan class="TextPosition" x="16090" y="7627"><tspan fill="rgb(255,255,255)" stroke="none">82.43%</tspan></tspan></tspan></text>
 <text class="TextShape"><tspan class="TextParagraph" font-family="Liberation Sans, sans-serif" font-size="353px" font-weight="400"><tspan class="TextPosition" x="19174" y="7675"><tspan fill="rgb(255,255,255)" stroke="none">81.47%</tspan></tspan></tspan></text>
 <text class="TextShape"><tspan class="TextParagraph" font-family="Liberation Sans, sans-serif" font-size="353px" font-weight="400"><tspan class="TextPosition" x="22257" y="7473"><tspan fill="rgb(255,255,255)" stroke="none">85.50%</tspan></tspan></tspan></text>
 <text class="TextShape"><tspan class="TextParagraph" font-family="Liberation Sans, sans-serif" font-size="459px" font-weight="400"><tspan class="TextPosition" x="9444" y="921"><tspan fill="rgb(0,0,0)" stroke="none">Scene Classification - Accuracy</tspan></tspan></tspan></text>
 <text class="TextShape" transform="rotate(-90 837 7803)"><tspan class="TextParagraph" font-family="Liberation Sans, sans-serif" font-size="318px" font-weight="400"><tspan class="TextPosition" x="837" y="7803"><tspan fill="rgb(0,0,0)" stroke="none">Accuracy (%)</tspan></tspan></tspan></text>
</svg>