<?xml version="1.0" encoding="UTF-8"?>
<!DOCTYPE svg PUBLIC "-//W3C//DTD SVG 1.1//EN" "http://www.w3.org/Graphics/SVG/1.1/DTD/svg11.dtd">
<svg width="252mm" height="125mm" viewBox="0 0 25200 12500" version="1.1" xmlns="http://www.w3.org/2000/svg" xmlns:xlink="http://www.w3.org/1999/xlink" stroke-width="28.222" stroke-linejoin="round" xml:space="preserve">
 <path fill="rgb(255,255,255)" stroke="none" d="M 12619,12538 L 0,12538 0,0 25237,0 25237,12538 12619,12538 Z"/>
 <path fill="none" stroke="rgb(179,179,179)" stroke-linejoin="round" d="M 13589,11641 L 2798,11641 2798,1614 24380,1614 24380,11641 13589,11641 Z"/>
 <path fill="none" stroke="rgb(179,179,179)" stroke-linejoin="round" d="M 24380,11640 L 2798,11640"/>
 <path fill="none" stroke="rgb(179,179,179)" stroke-linejoin="round" d="M 24380,10637 L 2798,10637"/>
 <path fill="none" stroke="rgb(179,179,179)" stroke-linejoin="round" d="M 24380,9634 L 2798,9634"/>
 <path fill="none" stroke="rgb(179,179,179)" stroke-linejoin="round" d="M 24380,8631 L 2798,8631"/>
 <path fill="none" stroke="rgb(179,179,179)" stroke-linejoin="round" d="M 24380,7628 L 2798,7628"/>
 <path fill="none" stroke="rgb(179,179,179)" stroke-linejoin="round" d="M 24380,6626 L 2798,6626"/>
 <path fill="none" stroke="rgb(179,179,179)" stroke-linejoin="round" d="M 24380,5624 L 2798,5624"/>
 <path fill="none" stroke="rgb(179,179,179)" stroke-linejoin="round" d="M 24380,4621 L 2798,4621"/>
 <path fill="none" stroke="rgb(179,179,179)" stroke-linejoin="round" d="M 24380,3618 L 2798,3618"/>
 <path fill="none" stroke="rgb(179,179,179)" stroke-linejoin="round" d="M 24380,2615 L 2798,2615"/>
 <path fill="none" stroke="rgb(179,179,179)" stroke-linejoin="round" d="M 24380,1613 L 2798,1613"/>
 <path fill="none" stroke="rgb(179,179,179)" stroke-linejoin="round" d="M 2798,11790 L 2798,11640"/>
 <path fill="none" stroke="rgb(179,179,179)" stroke-linejoin="round" d="M 2798,11790 L 2798,11640"/>
 <path fill="none" stroke="rgb(179,179,179)" stroke-linejoin="round" d="M 5881,11790 L 5881,11640"/>
 <path fill="none" stroke="rgb(179,179,179)" stroke-linejoin="round" d="M 5881,11790 L 5881,11640"/>
 <path fill="none" stroke="rgb(179,179,179)" stroke-linejoin="round" d="M 8964,11790 L 8964,11640"/>
 <path fill="none" stroke="rgb(179,179,179)" stroke-linejoin="round" d="M 8964,11790 L 8964,11640"/>
 <path fill="none" stroke="rgb(179,179,179)" stroke-linejoin="round" d="M 12047,11790 L 12047,11640"/>
 <path fill="none" stroke="rgb(179,179,179)" stroke-linejoin="round" d="M 12047,11790 L 12047,11640"/>
 <path fill="none" stroke="rgb(179,179,179)" stroke-linejoin="round" d="M 15130,11790 L 15130,11640"/>
 <path fill="none" stroke="rgb(179,179,179)" stroke-linejoin="round" d="M 15130,11790 L 15130,11640"/>
 <path fill="none" stroke="rgb(179,179,179)" stroke-linejoin="round" d="M 18213,11790 L 18213,11640"/>
 <path fill="none" stroke="rgb(179,179,179)" stroke-linejoin="round" d="M 18213,11790 L 18213,11640"/>
 <path fill="none" stroke="rgb(179,179,179)" stroke-linejoin="round" d="M 21296,11790 L 21296,11640"/>
 <path fill="none" stroke="rgb(179,179,179)" stroke-linejoin="round" d="M 21296,11790 L 21296,11640"/>
 <path fill="none" stroke="rgb(179,179,179)" stroke-linejoin="round" d="M 24380,11790 L 24380,11640"/>
 <path fill="none" stroke="rgb(179,179,179)" stroke-linejoin="round" d="M 24380,11790 L 24380,11640"/>
 <path fill="none" stroke="rgb(179,179,179)" stroke-linejoin="round" d="M 2798,11640 L 24380,11640"/>
 <path fill="none" stroke="rgb(179,179,179)" stroke-linejoin="round" d="M 2648,11640 L 2798,11640"/>
 <path fill="none" stroke="rgb(179,179,179)" stroke-linejoin="round" d="M 2648,11640 L 2798,11640"/>
 <path fill="none" stroke="rgb(179,179,179)" stroke-linejoin="round" d="M 2648,10637 L 2798,10637"/>
 <path fill="none" stroke="rgb(179,179,179)" stroke-linejoin="round" d="M 2648,10637 L 2798,10637"/>
 <path fill="none" stroke="rgb(179,179,179)" stroke-linejoin="round" d="M 2648,9634 L 2798,9634"/>
 <path fill="none" stroke="rgb(179,179,179)" stroke-linejoin="round" d="M 2648,9634 L 2798,9634"/>
 <path fill="none" stroke="rgb(179,179,179)" stroke-linejoin="round" d="M 2648,8631 L 2798,8631"/>
 <path fill="none" stroke="rgb(179,179,179)" stroke-linejoin="round" d="M 2648,8631 L 2798,8631"/>
 <path fill="none" stroke="rgb(179,179,179)" stroke-linejoin="round" d="M 2648,7628 L 2798,7628"/>
 <path fill="none" stroke="rgb(179,179,179)" stroke-linejoin="round" d="M 2648,7628 L 2798,7628"/>
 <path fill="none" stroke="rgb(179,179,179)" stroke-linejoin="round" d="M 2648,6626 L 2798,6626"/>
 <path fill="none" stroke="rgb(179,179,179)" stroke-linejoin="round" d="M 2648,6626 L 2798,6626"/>
 <path fill="none" stroke="rgb(179,179,179)" stroke-linejoin="round" d="M 2648,5624 L 2798,5624"/>
 <path fill="none" stroke="rgb(179,179,179)" stroke-linejoin="round" d="M 2648,5624 L 2798,5624"/>
 <path fill="none" stroke="rgb(179,179,179)" stroke-linejoin="round" d="M 2648,4621 L 2798,4621"/>
 <path fill="none" stroke="rgb(179,179,179)" stroke-linejoin="round" d="M 2648,4621 L 2798,4621"/>
 <path fill="none" stroke="rgb(179,179,179)" stroke-linejoin="round" d="M 2648,3618 L 2798,3618"/>
 <path fill="none" stroke="rgb(179,179,179)" stroke-linejoin="round" d="M 2648,3618 L 2798,3618"/>
 <path fill="none" stroke="rgb(179,179,179)" stroke-linejoin="round" d="M 2648,2615 L 2798,2615"/>
 <path fill="none" stroke="rgb(179,179,179)" stroke-linejoin="round" d="M 2648,2615 L 2798,2615"/>
 <path fill="none" stroke="rgb(179,179,179)" stroke-linejoin="round" d="M 2648,1613 L 2798,1613"/>
 <path fill="none" stroke="rgb(179,179,179)" stroke-linejoin="round" d="M 2648,1613 L 2798,1613"/>
 <path fill="none" stroke="rgb(179,179,179)" stroke-linejoin="round" d="M 2798,11640 L 2798,1613"/>
 <path fill="rgb(0,69,134)" stroke="none" d="M 22067,11640 L 23609,11640 23609,1963 22067,1963 22067,11640 Z"/>
 <path fill="rgb(0,69,134)" stroke="none" d="M 18984,11640 L 20525,11640 20525,1963 18984,1963 18984,11640 Z"/>
 <path fill="rgb(0,69,134)" stroke="none" d="M 15900,11640 L 17442,11640 17442,2147 15900,2147 15900,11640 Z"/>
 <path fill="rgb(0,69,134)" stroke="none" d="M 12817,11640 L 14359,11640 14359,2114 12817,2114 12817,11640 Z"/>
 <path fill="rgb(0,69,134)" stroke="none" d="M 9735,11640 L 11277,11640 11277,1997 9735,1997 9735,11640 Z"/>
 <path fill="rgb(0,69,134)" stroke="none" d="M 6652,11640 L 8193,11640 8193,1963 6652,1963 6652,11640 Z"/>
 <path fill="rgb(0,69,134)" stroke="none" d="M 3568,11640 L 5110,11640 5110,2064 3568,2064 3568,11640 Z"/>
 <text class="TextShape"><tspan class="TextParagraph" font-family="Liberation Sans, sans-serif" font-size="353px" font-weight="400"><tspan class="TextPosition" x="3677" y="12208"><tspan fill="rgb(0,0,0)" stroke="none">Baseline</tspan></tspan></tspan></text>
 <text class="TextShape"><tspan class="TextParagraph" font-family="Liberation Sans, sans-serif" font-size="353px" font-weight="400"><tspan class="TextPosition" x="6416" y="12208"><tspan fill="rgb(0,0,0)" stroke="none">Red. In. Size</tspan></tspan></tspan></text>
 <text class="TextShape"><tspan class="TextParagraph" font-family="Liberation Sans, sans-serif" font-size="353px" font-weight="400"><tspan class="TextPosition" x="9275" y="12208"><tspan fill="rgb(0,0,0)" stroke="none">Red. Layer Size</tspan></tspan></tspan></text>
 <text class="TextShape"><tspan class="TextParagraph" font-family="Liberation Sans, sans-serif" font-size="353px" font-weight="400"><tspan class="TextPosition" x="13007" y="12208"><tspan fill="rgb(0,0,0)" stroke="none">Pruning</tspan></tspan></tspan></text>
 <text class="TextShape"><tspan class="TextParagraph" font-family="Liberation Sans, sans-serif" font-size="353px" font-weight="400"><tspan class="TextPosition" x="15812" y="12208"><tspan fill="rgb(0,0,0)" stroke="none">Sep. Conv.</tspan></tspan></tspan></text>
 <text class="TextShape"><tspan class="TextParagraph" font-family="Liberation Sans, sans-serif" font-size="353px" font-weight="400"><tspan class="TextPosition" x="18988" y="12208"><tspan fill="rgb(0,0,0)" stroke="none">Combined</tspan></tspan></tspan></text>
 <text class="TextShape"><tspan class="TextParagraph" font-family="Liberation Sans, sans-serif" font-size="353px" font-weight="400"><tspan class="TextPosition" x="20921" y="12208"><tspan fill="rgb(0,0,0)" stroke="none">Combined no Sep. Conv.</tspan></tspan></tspan></text>
 <text class="TextShape"><tspan class="TextParagraph" font-family="Liberation Sans, sans-serif" font-size="353px" font-weight="400"><tspan class="TextPosition" x="1516" y="11761"><tspan fill="rgb(0,0,0)" stroke="none">0.0000</tspan></tspan></tspan></text>
 <text class="TextShape"><tspan class="TextParagraph" font-family="Liberation Sans, sans-serif" font-size="353px" font-weight="400"><tspan class="TextPosition" x="1516" y="10758"><tspan fill="rgb(0,0,0)" stroke="none">0.1000</tspan></tspan></tspan></text>
 <text class="TextShape"><tspan class="TextParagraph" font-family="Liberation Sans, sans-serif" font-size="353px" font-weight="400"><tspan class="TextPosition" x="1516" y="9755"><tspan fill="rgb(0,0,0)" stroke="none">0.2000</tspan></tspan></tspan></text>
 <text class="TextShape"><tspan class="TextParagraph" font-family="Liberation Sans, sans-serif" font-size="353px" font-weight="400"><tspan class="TextPosition" x="1516" y="8752"><tspan fill="rgb(0,0,0)" stroke="none">0.3000</tspan></tspan></tspan></text>
 <text class="TextShape"><tspan class="TextParagraph" font-family="Liberation Sans, sans-serif" font-size="353px" font-weight="400"><tspan class="TextPosition" x="1516" y="7749"><tspan fill="rgb(0,0,0)" stroke="none">0.4000</tspan></tspan></tspan></text>
 <text class="TextShape"><tspan class="TextParagraph" font-family="Liberation Sans, sans-serif" font-size="353px" font-weight="400"><tspan class="TextPosition" x="1516" y="6747"><tspan fill="rgb(0,0,0)" stroke="none">0.5000</tspan></tspan></tspan></text>
 <text class="TextShape"><tspan class="TextParagraph" font-family="Liberation Sans, sans-serif" font-size="353px" font-weight="400"><tspan class="TextPosition" x="1516" y="5744"><tspan fill="rgb(0,0,0)" stroke="none">0.6000</tspan></tspan></tspan></text>
 <text class="TextShape"><tspan class="TextParagraph" font-family="Liberation Sans, sans-serif" font-size="353px" font-weight="400"><tspan class="TextPosition" x="1516" y="4741"><tspan fill="rgb(0,0,0)" stroke="none">0.7000</tspan></tspan></tspan></text>
 <text class="TextShape"><tspan class="TextParagraph" font-family="Liberation Sans, sans-serif" font-size="353px" font-weight="400"><tspan class="TextPosition" x="1516" y="3738"><tspan fill="rgb(0,0,0)" stroke="none">0.8000</tspan></tspan></tspan></text>
 <text class="TextShape"><tspan class="TextParagraph" font-family="Liberation Sans, sans-serif" font-size="353px" font-weight="400"><tspan class="TextPosition" x="1516" y="2735"><tspan fill="rgb(0,0,0)" stroke="none">0.9000</tspan></tspan></tspan></text>
 <text class="TextShape"><tspan class="TextParagraph" font-family="Liberation Sans, sans-serif" font-size="353px" font-weight="400"><tspan class="TextPosition" x="1516" y="1733"><tspan fill="rgb(0,0,0)" stroke="none">1.0000</tspan></tspan></tspan></text>
 <text class="TextShape"><tspan class="TextParagraph" font-family="Liberation Sans, sans-serif" font-size="353px" font-weight="400"><tspan class="TextPosition" x="3757" y="6972"><tspan fill="rgb(255,255,255)" stroke="none">95.50%</tspan></tspan></tspan></text>
 <text class="TextShape"><tspan class="TextParagraph" font-family="Liberation Sans, sans-serif" font-size="353px" font-weight="400"><tspan class="TextPosition" x="6840" y="6922"><tspan fill="rgb(255,255,255)" stroke="none">96.50%</tspan></tspan></tspan></text>
 <text class="TextShape"><tspan class="TextParagraph" font-family="Liberation Sans, sans-serif" font-size="353px" font-weight="400"><tspan class="TextPosition" x="9924" y="6939"><tspan fill="rgb(255,255,255)" stroke="none">96.17%</tspan></tspan></tspan></text>
 <text class="TextShape"><tspan class="TextParagraph" font-family="Liberation Sans, sans-serif" font-size="353px" font-weight="400"><tspan class="TextPosition" x="13007" y="6997"><tspan fill="rgb(255,255,255)" stroke="none">95.00%</tspan></tspan></tspan></text>
 <text class="TextShape"><tspan class="TextParagraph" font-family="Liberation Sans, sans-serif" font-size="353px" font-weight="400"><tspan class="TextPosition" x="16090" y="7014"><tspan fill="rgb(255,255,255)" stroke="none">94.67%</tspan></tspan></tspan></text>
 <text class="TextShape"><tspan class="TextParagraph" font-family="Liberation Sans, sans-serif" font-size="353px" font-weight="400"><tspan class="TextPosition" x="19174" y="6922"><tspan fill="rgb(255,255,255)" stroke="none">96.50%</tspan></tspan></tspan></text>
 <text class="TextShape"><tspan class="TextParagraph" font-family="Liberation Sans, sans-serif" font-size="353px" font-weight="400"><tspan class="TextPosition" x="22257" y="6922"><tspan fill="rgb(255,255,255)" stroke="none">96.50%</tspan></tspan></tspan></text>
 <text class="TextShape"><tspan class="TextParagraph" font-family="Liberation Sans, sans-serif" font-size="459px" font-weight="400"><tspan class="TextPosition" x="9510" y="921"><tspan fill="rgb(0,0,0)" stroke="none">Audio Classification - Accuracy</tspan></tspan></tspan></text>
 <text class="TextShape" transform="rotate(-90 837 7804)"><tspan class="TextParagraph" font-family="Liberation Sans, sans-serif" font-size="318px" font-weight="400"><tspan class="TextPosition" x="837" y="7804"><tspan fill="rgb(0,0,0)" stroke="none">Accuracy (%)</tspan></tspan></tspan></text>
</svg>