<?xml version="1.0" encoding="UTF-8"?>
<!DOCTYPE svg PUBLIC "-//W3C//DTD SVG 1.1//EN" "http://www.w3.org/Graphics/SVG/1.1/DTD/svg11.dtd">
<svg width="252mm" height="125mm" viewBox="0 0 25200 12500" version="1.1" xmlns="http://www.w3.org/2000/svg" xmlns:xlink="http://www.w3.org/1999/xlink" stroke-width="28.222" stroke-linejoin="round" xml:space="preserve">
 <path fill="rgb(255,255,255)" stroke="none" d="M 12619,12542 L 0,12542 0,0 25237,0 25237,12542 12619,12542 Z"/>
 <path fill="none" stroke="rgb(179,179,179)" stroke-linejoin="round" d="M 13589,11645 L 2798,11645 2798,1614 24380,1614 24380,11645 13589,11645 Z"/>
 <path fill="none" stroke="rgb(179,179,179)" stroke-linejoin="round" d="M 24380,11644 L 2798,11644"/>
 <path fill="none" stroke="rgb(179,179,179)" stroke-linejoin="round" d="M 24380,10640 L 2798,10640"/>
 <path fill="none" stroke="rgb(179,179,179)" stroke-linejoin="round" d="M 24380,9637 L 2798,9637"/>
 <path fill="none" stroke="rgb(179,179,179)" stroke-linejoin="round" d="M 24380,8634 L 2798,8634"/>
 <path fill="none" stroke="rgb(179,179,179)" stroke-linejoin="round" d="M 24380,7631 L 2798,7631"/>
 <path fill="none" stroke="rgb(179,179,179)" stroke-linejoin="round" d="M 24380,6627 L 2798,6627"/>
 <path fill="none" stroke="rgb(179,179,179)" stroke-linejoin="round" d="M 24380,5625 L 2798,5625"/>
 <path fill="none" stroke="rgb(179,179,179)" stroke-linejoin="round" d="M 24380,4622 L 2798,4622"/>
 <path fill="none" stroke="rgb(179,179,179)" stroke-linejoin="round" d="M 24380,3619 L 2798,3619"/>
 <path fill="none" stroke="rgb(179,179,179)" stroke-linejoin="round" d="M 24380,2616 L 2798,2616"/>
 <path fill="none" stroke="rgb(179,179,179)" stroke-linejoin="round" d="M 24380,1612 L 2798,1612"/>
 <path fill="none" stroke="rgb(179,179,179)" stroke-linejoin="round" d="M 2798,11794 L 2798,11644"/>
 <path fill="none" stroke="rgb(179,179,179)" stroke-linejoin="round" d="M 2798,11794 L 2798,11644"/>
 <path fill="none" stroke="rgb(179,179,179)" stroke-linejoin="round" d="M 5881,11794 L 5881,11644"/>
 <path fill="none" stroke="rgb(179,179,179)" stroke-linejoin="round" d="M 5881,11794 L 5881,11644"/>
 <path fill="none" stroke="rgb(179,179,179)" stroke-linejoin="round" d="M 8964,11794 L 8964,11644"/>
 <path fill="none" stroke="rgb(179,179,179)" stroke-linejoin="round" d="M 8964,11794 L 8964,11644"/>
 <path fill="none" stroke="rgb(179,179,179)" stroke-linejoin="round" d="M 12047,11794 L 12047,11644"/>
 <path fill="none" stroke="rgb(179,179,179)" stroke-linejoin="round" d="M 12047,11794 L 12047,11644"/>
 <path fill="none" stroke="rgb(179,179,179)" stroke-linejoin="round" d="M 15130,11794 L 15130,11644"/>
 <path fill="none" stroke="rgb(179,179,179)" stroke-linejoin="round" d="M 15130,11794 L 15130,11644"/>
 <path fill="none" stroke="rgb(179,179,179)" stroke-linejoin="round" d="M 18213,11794 L 18213,11644"/>
 <path fill="none" stroke="rgb(179,179,179)" stroke-linejoin="round" d="M 18213,11794 L 18213,11644"/>
 <path fill="none" stroke="rgb(179,179,179)" stroke-linejoin="round" d="M 21296,11794 L 21296,11644"/>
 <path fill="none" stroke="rgb(179,179,179)" stroke-linejoin="round" d="M 21296,11794 L 21296,11644"/>
 <path fill="none" stroke="rgb(179,179,179)" stroke-linejoin="round" d="M 24380,11794 L 24380,11644"/>
 <path fill="none" stroke="rgb(179,179,179)" stroke-linejoin="round" d="M 24380,11794 L 24380,11644"/>
 <path fill="none" stroke="rgb(179,179,179)" stroke-linejoin="round" d="M 2798,11644 L 24380,11644"/>
 <path fill="none" stroke="rgb(179,179,179)" stroke-linejoin="round" d="M 2648,11644 L 2798,11644"/>
 <path fill="none" stroke="rgb(179,179,179)" stroke-linejoin="round" d="M 2648,11644 L 2798,11644"/>
 <path fill="none" stroke="rgb(179,179,179)" stroke-linejoin="round" d="M 2648,10640 L 2798,10640"/>
 <path fill="none" stroke="rgb(179,179,179)" stroke-linejoin="round" d="M 2648,10640 L 2798,10640"/>
 <path fill="none" stroke="rgb(179,179,179)" stroke-linejoin="round" d="M 2648,9637 L 2798,9637"/>
 <path fill="none" stroke="rgb(179,179,179)" stroke-linejoin="round" d="M 2648,9637 L 2798,9637"/>
 <path fill="none" stroke="rgb(179,179,179)" stroke-linejoin="round" d="M 2648,8634 L 2798,8634"/>
 <path fill="none" stroke="rgb(179,179,179)" stroke-linejoin="round" d="M 2648,8634 L 2798,8634"/>
 <path fill="none" stroke="rgb(179,179,179)" stroke-linejoin="round" d="M 2648,7631 L 2798,7631"/>
 <path fill="none" stroke="rgb(179,179,179)" stroke-linejoin="round" d="M 2648,7631 L 2798,7631"/>
 <path fill="none" stroke="rgb(179,179,179)" stroke-linejoin="round" d="M 2648,6627 L 2798,6627"/>
 <path fill="none" stroke="rgb(179,179,179)" stroke-linejoin="round" d="M 2648,6627 L 2798,6627"/>
 <path fill="none" stroke="rgb(179,179,179)" stroke-linejoin="round" d="M 2648,5625 L 2798,5625"/>
 <path fill="none" stroke="rgb(179,179,179)" stroke-linejoin="round" d="M 2648,5625 L 2798,5625"/>
 <path fill="none" stroke="rgb(179,179,179)" stroke-linejoin="round" d="M 2648,4622 L 2798,4622"/>
 <path fill="none" stroke="rgb(179,179,179)" stroke-linejoin="round" d="M 2648,4622 L 2798,4622"/>
 <path fill="none" stroke="rgb(179,179,179)" stroke-linejoin="round" d="M 2648,3619 L 2798,3619"/>
 <path fill="none" stroke="rgb(179,179,179)" stroke-linejoin="round" d="M 2648,3619 L 2798,3619"/>
 <path fill="none" stroke="rgb(179,179,179)" stroke-linejoin="round" d="M 2648,2616 L 2798,2616"/>
 <path fill="none" stroke="rgb(179,179,179)" stroke-linejoin="round" d="M 2648,2616 L 2798,2616"/>
 <path fill="none" stroke="rgb(179,179,179)" stroke-linejoin="round" d="M 2648,1612 L 2798,1612"/>
 <path fill="none" stroke="rgb(179,179,179)" stroke-linejoin="round" d="M 2648,1612 L 2798,1612"/>
 <path fill="none" stroke="rgb(179,179,179)" stroke-linejoin="round" d="M 2798,11644 L 2798,1612"/>
 <path fill="rgb(0,69,134)" stroke="none" d="M 22067,11644 L 23609,11644 23609,2191 22067,2191 22067,11644 Z"/>
 <path fill="rgb(0,69,134)" stroke="none" d="M 18984,11644 L 20525,11644 20525,2209 18984,2209 18984,11644 Z"/>
 <path fill="rgb(0,69,134)" stroke="none" d="M 15900,11644 L 17442,11644 17442,1828 15900,1828 15900,11644 Z"/>
 <path fill="rgb(0,69,134)" stroke="none" d="M 12817,11644 L 14359,11644 14359,1969 12817,1969 12817,11644 Z"/>
 <path fill="rgb(0,69,134)" stroke="none" d="M 9735,11644 L 11277,11644 11277,1839 9735,1839 9735,11644 Z"/>
 <path fill="rgb(0,69,134)" stroke="none" d="M 6652,11644 L 8193,11644 8193,1836 6652,1836 6652,11644 Z"/>
 <path fill="rgb(0,69,134)" stroke="none" d="M 3568,11644 L 5110,11644 5110,1853 3568,1853 3568,11644 Z"/>
 <text class="TextShape"><tspan class="TextParagraph" font-family="Liberation Sans, sans-serif" font-size="353px" font-weight="400"><tspan class="TextPosition" x="3677" y="12212"><tspan fill="rgb(0,0,0)" stroke="none">Baseline</tspan></tspan></tspan></text>
 <text class="TextShape"><tspan class="TextParagraph" font-family="Liberation Sans, sans-serif" font-size="353px" font-weight="400"><tspan class="TextPosition" x="6416" y="12212"><tspan fill="rgb(0,0,0)" stroke="none">Red. In. Size</tspan></tspan></tspan></text>
 <text class="TextShape"><tspan class="TextParagraph" font-family="Liberation Sans, sans-serif" font-size="353px" font-weight="400"><tspan class="TextPosition" x="9275" y="12212"><tspan fill="rgb(0,0,0)" stroke="none">Red. Layer Size</tspan></tspan></tspan></text>
 <text class="TextShape"><tspan class="TextParagraph" font-family="Liberation Sans, sans-serif" font-size="353px" font-weight="400"><tspan class="TextPosition" x="13007" y="12212"><tspan fill="rgb(0,0,0)" stroke="none">Pruning</tspan></tspan></tspan></text>
 <text class="TextShape"><tspan class="TextParagraph" font-family="Liberation Sans, sans-serif" font-size="353px" font-weight="400"><tspan class="TextPosition" x="15812" y="12212"><tspan fill="rgb(0,0,0)" stroke="none">Sep. Conv.</tspan></tspan></tspan></text>
 <text class="TextShape"><tspan class="TextParagraph" font-family="Liberation Sans, sans-serif" font-size="353px" font-weight="400"><tspan class="TextPosition" x="18988" y="12212"><tspan fill="rgb(0,0,0)" stroke="none">Combined</tspan></tspan></tspan></text>
 <text class="TextShape"><tspan class="TextParagraph" font-family="Liberation Sans, sans-serif" font-size="353px" font-weight="400"><tspan class="TextPosition" x="20921" y="12212"><tspan fill="rgb(0,0,0)" stroke="none">Combined no Sep. Conv.</tspan></tspan></tspan></text>
 <text class="TextShape"><tspan class="TextParagraph" font-family="Liberation Sans, sans-serif" font-size="353px" font-weight="400"><tspan class="TextPosition" x="1516" y="11765"><tspan fill="rgb(0,0,0)" stroke="none">0.0000</tspan></tspan></tspan></text>
 <text class="TextShape"><tspan class="TextParagraph" font-family="Liberation Sans, sans-serif" font-size="353px" font-weight="400"><tspan class="TextPosition" x="1516" y="10761"><tspan fill="rgb(0,0,0)" stroke="none">0.1000</tspan></tspan></tspan></text>
 <text class="TextShape"><tspan class="TextParagraph" font-family="Liberation Sans, sans-serif" font-size="353px" font-weight="400"><tspan class="TextPosition" x="1516" y="9758"><tspan fill="rgb(0,0,0)" stroke="none">0.2000</tspan></tspan></tspan></text>
 <text class="TextShape"><tspan class="TextParagraph" font-family="Liberation Sans, sans-serif" font-size="353px" font-weight="400"><tspan class="TextPosition" x="1516" y="8755"><tspan fill="rgb(0,0,0)" stroke="none">0.3000</tspan></tspan></tspan></text>
 <text class="TextShape"><tspan class="TextParagraph" font-family="Liberation Sans, sans-serif" font-size="353px" font-weight="400"><tspan class="TextPosition" x="1516" y="7752"><tspan fill="rgb(0,0,0)" stroke="none">0.4000</tspan></tspan></tspan></text>
 <text class="TextShape"><tspan class="TextParagraph" font-family="Liberation Sans, sans-serif" font-size="353px" font-weight="400"><tspan class="TextPosition" x="1516" y="6748"><tspan fill="rgb(0,0,0)" stroke="none">0.5000</tspan></tspan></tspan></text>
 <text class="TextShape"><tspan class="TextParagraph" font-family="Liberation Sans, sans-serif" font-size="353px" font-weight="400"><tspan class="TextPosition" x="1516" y="5745"><tspan fill="rgb(0,0,0)" stroke="none">0.6000</tspan></tspan></tspan></text>
 <text class="TextShape"><tspan class="TextParagraph" font-family="Liberation Sans, sans-serif" font-size="353px" font-weight="400"><tspan class="TextPosition" x="1516" y="4742"><tspan fill="rgb(0,0,0)" stroke="none">0.7000</tspan></tspan></tspan></text>
 <text class="TextShape"><tspan class="TextParagraph" font-family="Liberation Sans, sans-serif" font-size="353px" font-weight="400"><tspan class="TextPosition" x="1516" y="3739"><tspan fill="rgb(0,0,0)" stroke="none">0.8000</tspan></tspan></tspan></text>
 <text class="TextShape"><tspan class="TextParagraph" font-family="Liberation Sans, sans-serif" font-size="353px" font-weight="400"><tspan class="TextPosition" x="1516" y="2736"><tspan fill="rgb(0,0,0)" stroke="none">0.9000</tspan></tspan></tspan></text>
 <text class="TextShape"><tspan class="TextParagraph" font-family="Liberation Sans, sans-serif" font-size="353px" font-weight="400"><tspan class="TextPosition" x="1516" y="1732"><tspan fill="rgb(0,0,0)" stroke="none">1.0000</tspan></tspan></tspan></text>
 <text class="TextShape"><tspan class="TextParagraph" font-family="Liberation Sans, sans-serif" font-size="353px" font-weight="400"><tspan class="TextPosition" x="3757" y="6869"><tspan fill="rgb(255,255,255)" stroke="none">97.61%</tspan></tspan></tspan></text>
 <text class="TextShape"><tspan class="TextParagraph" font-family="Liberation Sans, sans-serif" font-size="353px" font-weight="400"><tspan class="TextPosition" x="6840" y="6860"><tspan fill="rgb(255,255,255)" stroke="none">97.77%</tspan></tspan></tspan></text>
 <text class="TextShape"><tspan class="TextParagraph" font-family="Liberation Sans, sans-serif" font-size="353px" font-weight="400"><tspan class="TextPosition" x="9924" y="6862"><tspan fill="rgb(255,255,255)" stroke="none">97.74%</tspan></tspan></tspan></text>
 <text class="TextShape"><tspan class="TextParagraph" font-family="Liberation Sans, sans-serif" font-size="353px" font-weight="400"><tspan class="TextPosition" x="13007" y="6927"><tspan fill="rgb(255,255,255)" stroke="none">96.44%</tspan></tspan></tspan></text>
 <text class="TextShape"><tspan class="TextParagraph" font-family="Liberation Sans, sans-serif" font-size="353px" font-weight="400"><tspan class="TextPosition" x="16090" y="6856"><tspan fill="rgb(255,255,255)" stroke="none">97.85%</tspan></tspan></tspan></text>
 <text class="TextShape"><tspan class="TextParagraph" font-family="Liberation Sans, sans-serif" font-size="353px" font-weight="400"><tspan class="TextPosition" x="19174" y="7047"><tspan fill="rgb(255,255,255)" stroke="none">94.05%</tspan></tspan></tspan></text>
 <text class="TextShape"><tspan class="TextParagraph" font-family="Liberation Sans, sans-serif" font-size="353px" font-weight="400"><tspan class="TextPosition" x="22257" y="7038"><tspan fill="rgb(255,255,255)" stroke="none">94.23%</tspan></tspan></tspan></text>
 <text class="TextShape"><tspan class="TextParagraph" font-family="Liberation Sans, sans-serif" font-size="459px" font-weight="400"><tspan class="TextPosition" x="9616" y="921"><tspan fill="rgb(0,0,0)" stroke="none">Fruit Classification - Accuracy</tspan></tspan></tspan></text>
 <text class="TextShape" transform="rotate(-90 837 7806)"><tspan class="TextParagraph" font-family="Liberation Sans, sans-serif" font-size="318px" font-weight="400"><tspan class="TextPosition" x="837" y="7806"><tspan fill="rgb(0,0,0)" stroke="none">Accuracy (%)</tspan></tspan></tspan></text>
</svg>