<?xml version="1.0" encoding="UTF-8"?>
<!DOCTYPE svg PUBLIC "-//W3C//DTD SVG 1.1//EN" "http://www.w3.org/Graphics/SVG/1.1/DTD/svg11.dtd">
<svg width="252mm" height="125mm" viewBox="0 0 25200 12500" version="1.1" xmlns="http://www.w3.org/2000/svg" xmlns:xlink="http://www.w3.org/1999/xlink" stroke-width="28.222" stroke-linejoin="round" xml:space="preserve">
 <path fill="rgb(255,255,255)" stroke="none" d="M 12616,12542 L 0,12542 0,0 25232,0 25232,12542 12616,12542 Z"/>
 <path fill="none" stroke="rgb(179,179,179)" stroke-linejoin="round" d="M 13321,11645 L 2427,11645 2427,2397 24215,2397 24215,11645 13321,11645 Z"/>
 <path fill="none" stroke="rgb(179,179,179)" stroke-linejoin="round" d="M 24215,11644 L 2427,11644"/>
 <path fill="none" stroke="rgb(179,179,179)" stroke-linejoin="round" d="M 24215,10102 L 2427,10102"/>
 <path fill="none" stroke="rgb(179,179,179)" stroke-linejoin="round" d="M 24215,8561 L 2427,8561"/>
 <path fill="none" stroke="rgb(179,179,179)" stroke-linejoin="round" d="M 24215,7019 L 2427,7019"/>
 <path fill="none" stroke="rgb(179,179,179)" stroke-linejoin="round" d="M 24215,5479 L 2427,5479"/>
 <path fill="none" stroke="rgb(179,179,179)" stroke-linejoin="round" d="M 24215,3937 L 2427,3937"/>
 <path fill="none" stroke="rgb(179,179,179)" stroke-linejoin="round" d="M 24215,2396 L 2427,2396"/>
 <path fill="none" stroke="rgb(179,179,179)" stroke-linejoin="round" d="M 2427,11794 L 2427,11644"/>
 <path fill="none" stroke="rgb(179,179,179)" stroke-linejoin="round" d="M 2427,11794 L 2427,11644"/>
 <path fill="none" stroke="rgb(179,179,179)" stroke-linejoin="round" d="M 5539,11794 L 5539,11644"/>
 <path fill="none" stroke="rgb(179,179,179)" stroke-linejoin="round" d="M 5539,11794 L 5539,11644"/>
 <path fill="none" stroke="rgb(179,179,179)" stroke-linejoin="round" d="M 8652,11794 L 8652,11644"/>
 <path fill="none" stroke="rgb(179,179,179)" stroke-linejoin="round" d="M 8652,11794 L 8652,11644"/>
 <path fill="none" stroke="rgb(179,179,179)" stroke-linejoin="round" d="M 11765,11794 L 11765,11644"/>
 <path fill="none" stroke="rgb(179,179,179)" stroke-linejoin="round" d="M 11765,11794 L 11765,11644"/>
 <path fill="none" stroke="rgb(179,179,179)" stroke-linejoin="round" d="M 14876,11794 L 14876,11644"/>
 <path fill="none" stroke="rgb(179,179,179)" stroke-linejoin="round" d="M 14876,11794 L 14876,11644"/>
 <path fill="none" stroke="rgb(179,179,179)" stroke-linejoin="round" d="M 17989,11794 L 17989,11644"/>
 <path fill="none" stroke="rgb(179,179,179)" stroke-linejoin="round" d="M 17989,11794 L 17989,11644"/>
 <path fill="none" stroke="rgb(179,179,179)" stroke-linejoin="round" d="M 21102,11794 L 21102,11644"/>
 <path fill="none" stroke="rgb(179,179,179)" stroke-linejoin="round" d="M 21102,11794 L 21102,11644"/>
 <path fill="none" stroke="rgb(179,179,179)" stroke-linejoin="round" d="M 24215,11794 L 24215,11644"/>
 <path fill="none" stroke="rgb(179,179,179)" stroke-linejoin="round" d="M 24215,11794 L 24215,11644"/>
 <path fill="none" stroke="rgb(179,179,179)" stroke-linejoin="round" d="M 2427,11644 L 24215,11644"/>
 <path fill="none" stroke="rgb(179,179,179)" stroke-linejoin="round" d="M 2277,11644 L 2427,11644"/>
 <path fill="none" stroke="rgb(179,179,179)" stroke-linejoin="round" d="M 2277,11644 L 2427,11644"/>
 <path fill="none" stroke="rgb(179,179,179)" stroke-linejoin="round" d="M 2277,10102 L 2427,10102"/>
 <path fill="none" stroke="rgb(179,179,179)" stroke-linejoin="round" d="M 2277,10102 L 2427,10102"/>
 <path fill="none" stroke="rgb(179,179,179)" stroke-linejoin="round" d="M 2277,8561 L 2427,8561"/>
 <path fill="none" stroke="rgb(179,179,179)" stroke-linejoin="round" d="M 2277,8561 L 2427,8561"/>
 <path fill="none" stroke="rgb(179,179,179)" stroke-linejoin="round" d="M 2277,7019 L 2427,7019"/>
 <path fill="none" stroke="rgb(179,179,179)" stroke-linejoin="round" d="M 2277,7019 L 2427,7019"/>
 <path fill="none" stroke="rgb(179,179,179)" stroke-linejoin="round" d="M 2277,5479 L 2427,5479"/>
 <path fill="none" stroke="rgb(179,179,179)" stroke-linejoin="round" d="M 2277,5479 L 2427,5479"/>
 <path fill="none" stroke="rgb(179,179,179)" stroke-linejoin="round" d="M 2277,3937 L 2427,3937"/>
 <path fill="none" stroke="rgb(179,179,179)" stroke-linejoin="round" d="M 2277,3937 L 2427,3937"/>
 <path fill="none" stroke="rgb(179,179,179)" stroke-linejoin="round" d="M 2277,2396 L 2427,2396"/>
 <path fill="none" stroke="rgb(179,179,179)" stroke-linejoin="round" d="M 2277,2396 L 2427,2396"/>
 <path fill="none" stroke="rgb(179,179,179)" stroke-linejoin="round" d="M 2427,11644 L 2427,2396"/>
 <path fill="rgb(0,69,134)" stroke="none" d="M 21621,11644 L 22658,11644 22658,7750 21621,7750 21621,11644 Z"/>
 <path fill="rgb(0,69,134)" stroke="none" d="M 18508,11644 L 19545,11644 19545,7625 18508,7625 18508,11644 Z"/>
 <path fill="rgb(0,69,134)" stroke="none" d="M 15395,11644 L 16433,11644 16433,9769 15395,9769 15395,11644 Z"/>
 <path fill="rgb(0,69,134)" stroke="none" d="M 12283,11644 L 13320,11644 13320,10398 12283,10398 12283,11644 Z"/>
 <path fill="rgb(0,69,134)" stroke="none" d="M 9171,11644 L 10208,11644 10208,9659 9171,9659 9171,11644 Z"/>
 <path fill="rgb(0,69,134)" stroke="none" d="M 6058,11644 L 7096,11644 7096,9598 6058,9598 6058,11644 Z"/>
 <path fill="rgb(0,69,134)" stroke="none" d="M 2945,11644 L 3983,11644 3983,10387 2945,10387 2945,11644 Z"/>
 <path fill="rgb(255,66,14)" stroke="none" d="M 22658,11644 L 23696,11644 23696,3017 22658,3017 22658,11644 Z"/>
 <path fill="rgb(255,66,14)" stroke="none" d="M 19545,11644 L 20583,11644 20583,3937 19545,3937 19545,11644 Z"/>
 <path fill="rgb(255,66,14)" stroke="none" d="M 16433,11644 L 17470,11644 17470,3722 16433,3722 16433,11644 Z"/>
 <path fill="rgb(255,66,14)" stroke="none" d="M 13320,11644 L 14358,11644 14358,3242 13320,3242 13320,11644 Z"/>
 <path fill="rgb(255,66,14)" stroke="none" d="M 10208,11644 L 11246,11644 11246,3256 10208,3256 10208,11644 Z"/>
 <path fill="rgb(255,66,14)" stroke="none" d="M 7096,11644 L 8133,11644 8133,3040 7096,3040 7096,11644 Z"/>
 <path fill="rgb(255,66,14)" stroke="none" d="M 3983,11644 L 5020,11644 5020,3524 3983,3524 3983,11644 Z"/>
 <text class="TextShape"><tspan class="TextParagraph" font-family="Liberation Sans, sans-serif" font-size="353px" font-weight="400"><tspan class="TextPosition" x="3321" y="12212"><tspan fill="rgb(0,0,0)" stroke="none">Baseline</tspan></tspan></tspan></text>
 <text class="TextShape"><tspan class="TextParagraph" font-family="Liberation Sans, sans-serif" font-size="353px" font-weight="400"><tspan class="TextPosition" x="6090" y="12212"><tspan fill="rgb(0,0,0)" stroke="none">Red. In. Size</tspan></tspan></tspan></text>
 <text class="TextShape"><tspan class="TextParagraph" font-family="Liberation Sans, sans-serif" font-size="353px" font-weight="400"><tspan class="TextPosition" x="8977" y="12212"><tspan fill="rgb(0,0,0)" stroke="none">Red. Layer Size</tspan></tspan></tspan></text>
 <text class="TextShape"><tspan class="TextParagraph" font-family="Liberation Sans, sans-serif" font-size="353px" font-weight="400"><tspan class="TextPosition" x="12739" y="12212"><tspan fill="rgb(0,0,0)" stroke="none">Pruning</tspan></tspan></tspan></text>
 <text class="TextShape"><tspan class="TextParagraph" font-family="Liberation Sans, sans-serif" font-size="353px" font-weight="400"><tspan class="TextPosition" x="15574" y="12212"><tspan fill="rgb(0,0,0)" stroke="none">Sep. Conv.</tspan></tspan></tspan></text>
 <text class="TextShape"><tspan class="TextParagraph" font-family="Liberation Sans, sans-serif" font-size="353px" font-weight="400"><tspan class="TextPosition" x="18778" y="12212"><tspan fill="rgb(0,0,0)" stroke="none">Combined</tspan></tspan></tspan></text>
 <text class="TextShape"><tspan class="TextParagraph" font-family="Liberation Sans, sans-serif" font-size="353px" font-weight="400"><tspan class="TextPosition" x="20741" y="12212"><tspan fill="rgb(0,0,0)" stroke="none">Combined no Sep. Conv.</tspan></tspan></tspan></text>
 <text class="TextShape"><tspan class="TextParagraph" font-family="Liberation Sans, sans-serif" font-size="353px" font-weight="400"><tspan class="TextPosition" x="1701" y="11765"><tspan fill="rgb(0,0,0)" stroke="none">0.0</tspan></tspan></tspan></text>
 <text class="TextShape"><tspan class="TextParagraph" font-family="Liberation Sans, sans-serif" font-size="353px" font-weight="400"><tspan class="TextPosition" x="1516" y="10223"><tspan fill="rgb(0,0,0)" stroke="none">20.0</tspan></tspan></tspan></text>
 <text class="TextShape"><tspan class="TextParagraph" font-family="Liberation Sans, sans-serif" font-size="353px" font-weight="400"><tspan class="TextPosition" x="1516" y="8682"><tspan fill="rgb(0,0,0)" stroke="none">40.0</tspan></tspan></tspan></text>
 <text class="TextShape"><tspan class="TextParagraph" font-family="Liberation Sans, sans-serif" font-size="353px" font-weight="400"><tspan class="TextPosition" x="1516" y="7140"><tspan fill="rgb(0,0,0)" stroke="none">60.0</tspan></tspan></tspan></text>
 <text class="TextShape"><tspan class="TextParagraph" font-family="Liberation Sans, sans-serif" font-size="353px" font-weight="400"><tspan class="TextPosition" x="1516" y="5599"><tspan fill="rgb(0,0,0)" stroke="none">80.0</tspan></tspan></tspan></text>
 <text class="TextShape"><tspan class="TextParagraph" font-family="Liberation Sans, sans-serif" font-size="353px" font-weight="400"><tspan class="TextPosition" x="1330" y="4057"><tspan fill="rgb(0,0,0)" stroke="none">100.0</tspan></tspan></tspan></text>
 <text class="TextShape"><tspan class="TextParagraph" font-family="Liberation Sans, sans-serif" font-size="353px" font-weight="400"><tspan class="TextPosition" x="1330" y="2516"><tspan fill="rgb(0,0,0)" stroke="none">120.0</tspan></tspan></tspan></text>
 <text class="TextShape"><tspan class="TextParagraph" font-family="Liberation Sans, sans-serif" font-size="353px" font-weight="400"><tspan class="TextPosition" x="3133" y="10209"><tspan fill="rgb(0,0,0)" stroke="none">16.3</tspan></tspan></tspan></text>
 <text class="TextShape"><tspan class="TextParagraph" font-family="Liberation Sans, sans-serif" font-size="353px" font-weight="400"><tspan class="TextPosition" x="6246" y="9420"><tspan fill="rgb(0,0,0)" stroke="none">26.5</tspan></tspan></tspan></text>
 <text class="TextShape"><tspan class="TextParagraph" font-family="Liberation Sans, sans-serif" font-size="353px" font-weight="400"><tspan class="TextPosition" x="9359" y="9481"><tspan fill="rgb(0,0,0)" stroke="none">25.7</tspan></tspan></tspan></text>
 <text class="TextShape"><tspan class="TextParagraph" font-family="Liberation Sans, sans-serif" font-size="353px" font-weight="400"><tspan class="TextPosition" x="12471" y="10220"><tspan fill="rgb(0,0,0)" stroke="none">16.2</tspan></tspan></tspan></text>
 <text class="TextShape"><tspan class="TextParagraph" font-family="Liberation Sans, sans-serif" font-size="353px" font-weight="400"><tspan class="TextPosition" x="15584" y="9591"><tspan fill="rgb(0,0,0)" stroke="none">24.3</tspan></tspan></tspan></text>
 <text class="TextShape"><tspan class="TextParagraph" font-family="Liberation Sans, sans-serif" font-size="353px" font-weight="400"><tspan class="TextPosition" x="18697" y="7447"><tspan fill="rgb(0,0,0)" stroke="none">52.1</tspan></tspan></tspan></text>
 <text class="TextShape"><tspan class="TextParagraph" font-family="Liberation Sans, sans-serif" font-size="353px" font-weight="400"><tspan class="TextPosition" x="21809" y="7572"><tspan fill="rgb(0,0,0)" stroke="none">50.5</tspan></tspan></tspan></text>
 <text class="TextShape"><tspan class="TextParagraph" font-family="Liberation Sans, sans-serif" font-size="353px" font-weight="400"><tspan class="TextPosition" x="4078" y="3346"><tspan fill="rgb(0,0,0)" stroke="none">105.4</tspan></tspan></tspan></text>
 <text class="TextShape"><tspan class="TextParagraph" font-family="Liberation Sans, sans-serif" font-size="353px" font-weight="400"><tspan class="TextPosition" x="7190" y="2862"><tspan fill="rgb(0,0,0)" stroke="none">111.6</tspan></tspan></tspan></text>
 <text class="TextShape"><tspan class="TextParagraph" font-family="Liberation Sans, sans-serif" font-size="353px" font-weight="400"><tspan class="TextPosition" x="10303" y="3078"><tspan fill="rgb(0,0,0)" stroke="none">108.8</tspan></tspan></tspan></text>
 <text class="TextShape"><tspan class="TextParagraph" font-family="Liberation Sans, sans-serif" font-size="353px" font-weight="400"><tspan class="TextPosition" x="13416" y="3064"><tspan fill="rgb(0,0,0)" stroke="none">109.0</tspan></tspan></tspan></text>
 <text class="TextShape"><tspan class="TextParagraph" font-family="Liberation Sans, sans-serif" font-size="353px" font-weight="400"><tspan class="TextPosition" x="16529" y="3544"><tspan fill="rgb(0,0,0)" stroke="none">102.8</tspan></tspan></tspan></text>
 <text class="TextShape"><tspan class="TextParagraph" font-family="Liberation Sans, sans-serif" font-size="353px" font-weight="400"><tspan class="TextPosition" x="19641" y="3759"><tspan fill="rgb(0,0,0)" stroke="none">100.0</tspan></tspan></tspan></text>
 <text class="TextShape"><tspan class="TextParagraph" font-family="Liberation Sans, sans-serif" font-size="353px" font-weight="400"><tspan class="TextPosition" x="22754" y="2839"><tspan fill="rgb(0,0,0)" stroke="none">111.9</tspan></tspan></tspan></text>
 <text class="TextShape"><tspan class="TextParagraph" font-family="Liberation Sans, sans-serif" font-size="459px" font-weight="400"><tspan class="TextPosition" x="8700" y="921"><tspan fill="rgb(0,0,0)" stroke="none">Audio Classification - Energy Efficiency</tspan></tspan></tspan></text>
 <path fill="rgb(0,69,134)" stroke="none" d="M 10625,1754 L 10520,1754 10520,1543 10731,1543 10731,1754 10625,1754 Z"/>
 <path fill="rgb(255,66,14)" stroke="none" d="M 12837,1754 L 12731,1754 12731,1543 12942,1543 12942,1754 12837,1754 Z"/>
 <text class="TextShape"><tspan class="TextParagraph" font-family="Liberation Sans, sans-serif" font-size="353px" font-weight="400"><tspan class="TextPosition" x="10831" y="1768"><tspan fill="rgb(0,0,0)" stroke="none">Tensorflow</tspan></tspan></tspan></text>
 <text class="TextShape"><tspan class="TextParagraph" font-family="Liberation Sans, sans-serif" font-size="353px" font-weight="400"><tspan class="TextPosition" x="13042" y="1768"><tspan fill="rgb(0,0,0)" stroke="none">OpenVINO</tspan></tspan></tspan></text>
 <text class="TextShape" transform="rotate(-90 837 10009)"><tspan class="TextParagraph" font-family="Liberation Sans, sans-serif" font-size="318px" font-weight="400"><tspan class="TextPosition" x="837" y="10009"><tspan fill="rgb(0,0,0)" stroke="none">Performance per Watt (inferences/s/W)</tspan></tspan></tspan></text>
</svg>