<?xml version="1.0" encoding="UTF-8"?>
<!DOCTYPE svg PUBLIC "-//W3C//DTD SVG 1.1//EN" "http://www.w3.org/Graphics/SVG/1.1/DTD/svg11.dtd">
<svg width="252mm" height="125mm" viewBox="0 0 25200 12500" version="1.1" xmlns="http://www.w3.org/2000/svg" xmlns:xlink="http://www.w3.org/1999/xlink" stroke-width="28.222" stroke-linejoin="round" xml:space="preserve">
 <path fill="rgb(255,255,255)" stroke="none" d="M 12616,12543 L 0,12543 0,0 25231,0 25231,12543 12616,12543 Z"/>
 <path fill="none" stroke="rgb(179,179,179)" stroke-linejoin="round" d="M 13320,11646 L 2427,11646 2427,2397 24214,2397 24214,11646 13320,11646 Z"/>
 <path fill="none" stroke="rgb(179,179,179)" stroke-linejoin="round" d="M 24214,11645 L 2427,11645"/>
 <path fill="none" stroke="rgb(179,179,179)" stroke-linejoin="round" d="M 24214,10720 L 2427,10720"/>
 <path fill="none" stroke="rgb(179,179,179)" stroke-linejoin="round" d="M 24214,9795 L 2427,9795"/>
 <path fill="none" stroke="rgb(179,179,179)" stroke-linejoin="round" d="M 24214,8870 L 2427,8870"/>
 <path fill="none" stroke="rgb(179,179,179)" stroke-linejoin="round" d="M 24214,7945 L 2427,7945"/>
 <path fill="none" stroke="rgb(179,179,179)" stroke-linejoin="round" d="M 24214,7020 L 2427,7020"/>
 <path fill="none" stroke="rgb(179,179,179)" stroke-linejoin="round" d="M 24214,6096 L 2427,6096"/>
 <path fill="none" stroke="rgb(179,179,179)" stroke-linejoin="round" d="M 24214,5171 L 2427,5171"/>
 <path fill="none" stroke="rgb(179,179,179)" stroke-linejoin="round" d="M 24214,4246 L 2427,4246"/>
 <path fill="none" stroke="rgb(179,179,179)" stroke-linejoin="round" d="M 24214,3321 L 2427,3321"/>
 <path fill="none" stroke="rgb(179,179,179)" stroke-linejoin="round" d="M 24214,2396 L 2427,2396"/>
 <path fill="none" stroke="rgb(179,179,179)" stroke-linejoin="round" d="M 2427,11795 L 2427,11645"/>
 <path fill="none" stroke="rgb(179,179,179)" stroke-linejoin="round" d="M 2427,11795 L 2427,11645"/>
 <path fill="none" stroke="rgb(179,179,179)" stroke-linejoin="round" d="M 5539,11795 L 5539,11645"/>
 <path fill="none" stroke="rgb(179,179,179)" stroke-linejoin="round" d="M 5539,11795 L 5539,11645"/>
 <path fill="none" stroke="rgb(179,179,179)" stroke-linejoin="round" d="M 8652,11795 L 8652,11645"/>
 <path fill="none" stroke="rgb(179,179,179)" stroke-linejoin="round" d="M 8652,11795 L 8652,11645"/>
 <path fill="none" stroke="rgb(179,179,179)" stroke-linejoin="round" d="M 11764,11795 L 11764,11645"/>
 <path fill="none" stroke="rgb(179,179,179)" stroke-linejoin="round" d="M 11764,11795 L 11764,11645"/>
 <path fill="none" stroke="rgb(179,179,179)" stroke-linejoin="round" d="M 14876,11795 L 14876,11645"/>
 <path fill="none" stroke="rgb(179,179,179)" stroke-linejoin="round" d="M 14876,11795 L 14876,11645"/>
 <path fill="none" stroke="rgb(179,179,179)" stroke-linejoin="round" d="M 17988,11795 L 17988,11645"/>
 <path fill="none" stroke="rgb(179,179,179)" stroke-linejoin="round" d="M 17988,11795 L 17988,11645"/>
 <path fill="none" stroke="rgb(179,179,179)" stroke-linejoin="round" d="M 21101,11795 L 21101,11645"/>
 <path fill="none" stroke="rgb(179,179,179)" stroke-linejoin="round" d="M 21101,11795 L 21101,11645"/>
 <path fill="none" stroke="rgb(179,179,179)" stroke-linejoin="round" d="M 24214,11795 L 24214,11645"/>
 <path fill="none" stroke="rgb(179,179,179)" stroke-linejoin="round" d="M 24214,11795 L 24214,11645"/>
 <path fill="none" stroke="rgb(179,179,179)" stroke-linejoin="round" d="M 2427,11645 L 24214,11645"/>
 <path fill="none" stroke="rgb(179,179,179)" stroke-linejoin="round" d="M 2277,11645 L 2427,11645"/>
 <path fill="none" stroke="rgb(179,179,179)" stroke-linejoin="round" d="M 2277,11645 L 2427,11645"/>
 <path fill="none" stroke="rgb(179,179,179)" stroke-linejoin="round" d="M 2277,10720 L 2427,10720"/>
 <path fill="none" stroke="rgb(179,179,179)" stroke-linejoin="round" d="M 2277,10720 L 2427,10720"/>
 <path fill="none" stroke="rgb(179,179,179)" stroke-linejoin="round" d="M 2277,9795 L 2427,9795"/>
 <path fill="none" stroke="rgb(179,179,179)" stroke-linejoin="round" d="M 2277,9795 L 2427,9795"/>
 <path fill="none" stroke="rgb(179,179,179)" stroke-linejoin="round" d="M 2277,8870 L 2427,8870"/>
 <path fill="none" stroke="rgb(179,179,179)" stroke-linejoin="round" d="M 2277,8870 L 2427,8870"/>
 <path fill="none" stroke="rgb(179,179,179)" stroke-linejoin="round" d="M 2277,7945 L 2427,7945"/>
 <path fill="none" stroke="rgb(179,179,179)" stroke-linejoin="round" d="M 2277,7945 L 2427,7945"/>
 <path fill="none" stroke="rgb(179,179,179)" stroke-linejoin="round" d="M 2277,7020 L 2427,7020"/>
 <path fill="none" stroke="rgb(179,179,179)" stroke-linejoin="round" d="M 2277,7020 L 2427,7020"/>
 <path fill="none" stroke="rgb(179,179,179)" stroke-linejoin="round" d="M 2277,6096 L 2427,6096"/>
 <path fill="none" stroke="rgb(179,179,179)" stroke-linejoin="round" d="M 2277,6096 L 2427,6096"/>
 <path fill="none" stroke="rgb(179,179,179)" stroke-linejoin="round" d="M 2277,5170 L 2427,5170"/>
 <path fill="none" stroke="rgb(179,179,179)" stroke-linejoin="round" d="M 2277,5170 L 2427,5170"/>
 <path fill="none" stroke="rgb(179,179,179)" stroke-linejoin="round" d="M 2277,4246 L 2427,4246"/>
 <path fill="none" stroke="rgb(179,179,179)" stroke-linejoin="round" d="M 2277,4246 L 2427,4246"/>
 <path fill="none" stroke="rgb(179,179,179)" stroke-linejoin="round" d="M 2277,3321 L 2427,3321"/>
 <path fill="none" stroke="rgb(179,179,179)" stroke-linejoin="round" d="M 2277,3321 L 2427,3321"/>
 <path fill="none" stroke="rgb(179,179,179)" stroke-linejoin="round" d="M 2277,2396 L 2427,2396"/>
 <path fill="none" stroke="rgb(179,179,179)" stroke-linejoin="round" d="M 2277,2396 L 2427,2396"/>
 <path fill="none" stroke="rgb(179,179,179)" stroke-linejoin="round" d="M 2427,11645 L 2427,2396"/>
 <path fill="rgb(0,69,134)" stroke="none" d="M 21620,11645 L 22657,11645 22657,9976 21620,9976 21620,11645 Z"/>
 <path fill="rgb(0,69,134)" stroke="none" d="M 18507,11645 L 19545,11645 19545,9117 18507,9117 18507,11645 Z"/>
 <path fill="rgb(0,69,134)" stroke="none" d="M 15395,11645 L 16432,11645 16432,10546 15395,10546 15395,11645 Z"/>
 <path fill="rgb(0,69,134)" stroke="none" d="M 12283,11645 L 13320,11645 13320,11029 12283,11029 12283,11645 Z"/>
 <path fill="rgb(0,69,134)" stroke="none" d="M 9170,11645 L 10208,11645 10208,10761 9170,10761 9170,11645 Z"/>
 <path fill="rgb(0,69,134)" stroke="none" d="M 6058,11645 L 7095,11645 7095,10513 6058,10513 6058,11645 Z"/>
 <path fill="rgb(0,69,134)" stroke="none" d="M 2945,11645 L 3983,11645 3983,11025 2945,11025 2945,11645 Z"/>
 <path fill="rgb(255,66,14)" stroke="none" d="M 22657,11645 L 23695,11645 23695,2903 22657,2903 22657,11645 Z"/>
 <path fill="rgb(255,66,14)" stroke="none" d="M 19545,11645 L 20582,11645 20582,3541 19545,3541 19545,11645 Z"/>
 <path fill="rgb(255,66,14)" stroke="none" d="M 16432,11645 L 17470,11645 17470,4101 16432,4101 16432,11645 Z"/>
 <path fill="rgb(255,66,14)" stroke="none" d="M 13320,11645 L 14357,11645 14357,3652 13320,3652 13320,11645 Z"/>
 <path fill="rgb(255,66,14)" stroke="none" d="M 10208,11645 L 11245,11645 11245,3572 10208,3572 10208,11645 Z"/>
 <path fill="rgb(255,66,14)" stroke="none" d="M 7095,11645 L 8133,11645 8133,3504 7095,3504 7095,11645 Z"/>
 <path fill="rgb(255,66,14)" stroke="none" d="M 3983,11645 L 5020,11645 5020,3275 3983,3275 3983,11645 Z"/>
 <text class="TextShape"><tspan class="TextParagraph" font-family="Liberation Sans, sans-serif" font-size="353px" font-weight="400"><tspan class="TextPosition" x="3321" y="12213"><tspan fill="rgb(0,0,0)" stroke="none">Baseline</tspan></tspan></tspan></text>
 <text class="TextShape"><tspan class="TextParagraph" font-family="Liberation Sans, sans-serif" font-size="353px" font-weight="400"><tspan class="TextPosition" x="6089" y="12213"><tspan fill="rgb(0,0,0)" stroke="none">Red. In. Size</tspan></tspan></tspan></text>
 <text class="TextShape"><tspan class="TextParagraph" font-family="Liberation Sans, sans-serif" font-size="353px" font-weight="400"><tspan class="TextPosition" x="8977" y="12213"><tspan fill="rgb(0,0,0)" stroke="none">Red. Layer Size</tspan></tspan></tspan></text>
 <text class="TextShape"><tspan class="TextParagraph" font-family="Liberation Sans, sans-serif" font-size="353px" font-weight="400"><tspan class="TextPosition" x="12739" y="12213"><tspan fill="rgb(0,0,0)" stroke="none">Pruning</tspan></tspan></tspan></text>
 <text class="TextShape"><tspan class="TextParagraph" font-family="Liberation Sans, sans-serif" font-size="353px" font-weight="400"><tspan class="TextPosition" x="15573" y="12213"><tspan fill="rgb(0,0,0)" stroke="none">Sep. Conv.</tspan></tspan></tspan></text>
 <text class="TextShape"><tspan class="TextParagraph" font-family="Liberation Sans, sans-serif" font-size="353px" font-weight="400"><tspan class="TextPosition" x="18778" y="12213"><tspan fill="rgb(0,0,0)" stroke="none">Combined</tspan></tspan></tspan></text>
 <text class="TextShape"><tspan class="TextParagraph" font-family="Liberation Sans, sans-serif" font-size="353px" font-weight="400"><tspan class="TextPosition" x="20740" y="12213"><tspan fill="rgb(0,0,0)" stroke="none">Combined no Sep. Conv.</tspan></tspan></tspan></text>
 <text class="TextShape"><tspan class="TextParagraph" font-family="Liberation Sans, sans-serif" font-size="353px" font-weight="400"><tspan class="TextPosition" x="1701" y="11766"><tspan fill="rgb(0,0,0)" stroke="none">0.0</tspan></tspan></tspan></text>
 <text class="TextShape"><tspan class="TextParagraph" font-family="Liberation Sans, sans-serif" font-size="353px" font-weight="400"><tspan class="TextPosition" x="1516" y="10841"><tspan fill="rgb(0,0,0)" stroke="none">10.0</tspan></tspan></tspan></text>
 <text class="TextShape"><tspan class="TextParagraph" font-family="Liberation Sans, sans-serif" font-size="353px" font-weight="400"><tspan class="TextPosition" x="1516" y="9916"><tspan fill="rgb(0,0,0)" stroke="none">20.0</tspan></tspan></tspan></text>
 <text class="TextShape"><tspan class="TextParagraph" font-family="Liberation Sans, sans-serif" font-size="353px" font-weight="400"><tspan class="TextPosition" x="1516" y="8991"><tspan fill="rgb(0,0,0)" stroke="none">30.0</tspan></tspan></tspan></text>
 <text class="TextShape"><tspan class="TextParagraph" font-family="Liberation Sans, sans-serif" font-size="353px" font-weight="400"><tspan class="TextPosition" x="1516" y="8066"><tspan fill="rgb(0,0,0)" stroke="none">40.0</tspan></tspan></tspan></text>
 <text class="TextShape"><tspan class="TextParagraph" font-family="Liberation Sans, sans-serif" font-size="353px" font-weight="400"><tspan class="TextPosition" x="1516" y="7141"><tspan fill="rgb(0,0,0)" stroke="none">50.0</tspan></tspan></tspan></text>
 <text class="TextShape"><tspan class="TextParagraph" font-family="Liberation Sans, sans-serif" font-size="353px" font-weight="400"><tspan class="TextPosition" x="1516" y="6216"><tspan fill="rgb(0,0,0)" stroke="none">60.0</tspan></tspan></tspan></text>
 <text class="TextShape"><tspan class="TextParagraph" font-family="Liberation Sans, sans-serif" font-size="353px" font-weight="400"><tspan class="TextPosition" x="1516" y="5290"><tspan fill="rgb(0,0,0)" stroke="none">70.0</tspan></tspan></tspan></text>
 <text class="TextShape"><tspan class="TextParagraph" font-family="Liberation Sans, sans-serif" font-size="353px" font-weight="400"><tspan class="TextPosition" x="1516" y="4366"><tspan fill="rgb(0,0,0)" stroke="none">80.0</tspan></tspan></tspan></text>
 <text class="TextShape"><tspan class="TextParagraph" font-family="Liberation Sans, sans-serif" font-size="353px" font-weight="400"><tspan class="TextPosition" x="1516" y="3441"><tspan fill="rgb(0,0,0)" stroke="none">90.0</tspan></tspan></tspan></text>
 <text class="TextShape"><tspan class="TextParagraph" font-family="Liberation Sans, sans-serif" font-size="353px" font-weight="400"><tspan class="TextPosition" x="1330" y="2516"><tspan fill="rgb(0,0,0)" stroke="none">100.0</tspan></tspan></tspan></text>
 <text class="TextShape"><tspan class="TextParagraph" font-family="Liberation Sans, sans-serif" font-size="353px" font-weight="400"><tspan class="TextPosition" x="3226" y="10847"><tspan fill="rgb(0,0,0)" stroke="none">6.7</tspan></tspan></tspan></text>
 <text class="TextShape"><tspan class="TextParagraph" font-family="Liberation Sans, sans-serif" font-size="353px" font-weight="400"><tspan class="TextPosition" x="6246" y="10335"><tspan fill="rgb(0,0,0)" stroke="none">12.2</tspan></tspan></tspan></text>
 <text class="TextShape"><tspan class="TextParagraph" font-family="Liberation Sans, sans-serif" font-size="353px" font-weight="400"><tspan class="TextPosition" x="9451" y="10583"><tspan fill="rgb(0,0,0)" stroke="none">9.6</tspan></tspan></tspan></text>
 <text class="TextShape"><tspan class="TextParagraph" font-family="Liberation Sans, sans-serif" font-size="353px" font-weight="400"><tspan class="TextPosition" x="12564" y="10851"><tspan fill="rgb(0,0,0)" stroke="none">6.7</tspan></tspan></tspan></text>
 <text class="TextShape"><tspan class="TextParagraph" font-family="Liberation Sans, sans-serif" font-size="353px" font-weight="400"><tspan class="TextPosition" x="15583" y="10368"><tspan fill="rgb(0,0,0)" stroke="none">11.9</tspan></tspan></tspan></text>
 <text class="TextShape"><tspan class="TextParagraph" font-family="Liberation Sans, sans-serif" font-size="353px" font-weight="400"><tspan class="TextPosition" x="18696" y="8939"><tspan fill="rgb(0,0,0)" stroke="none">27.3</tspan></tspan></tspan></text>
 <text class="TextShape"><tspan class="TextParagraph" font-family="Liberation Sans, sans-serif" font-size="353px" font-weight="400"><tspan class="TextPosition" x="21808" y="9798"><tspan fill="rgb(0,0,0)" stroke="none">18.0</tspan></tspan></tspan></text>
 <text class="TextShape"><tspan class="TextParagraph" font-family="Liberation Sans, sans-serif" font-size="353px" font-weight="400"><tspan class="TextPosition" x="4171" y="3097"><tspan fill="rgb(0,0,0)" stroke="none">90.5</tspan></tspan></tspan></text>
 <text class="TextShape"><tspan class="TextParagraph" font-family="Liberation Sans, sans-serif" font-size="353px" font-weight="400"><tspan class="TextPosition" x="7283" y="3326"><tspan fill="rgb(0,0,0)" stroke="none">88.0</tspan></tspan></tspan></text>
 <text class="TextShape"><tspan class="TextParagraph" font-family="Liberation Sans, sans-serif" font-size="353px" font-weight="400"><tspan class="TextPosition" x="10396" y="3394"><tspan fill="rgb(0,0,0)" stroke="none">87.3</tspan></tspan></tspan></text>
 <text class="TextShape"><tspan class="TextParagraph" font-family="Liberation Sans, sans-serif" font-size="353px" font-weight="400"><tspan class="TextPosition" x="13508" y="3474"><tspan fill="rgb(0,0,0)" stroke="none">86.4</tspan></tspan></tspan></text>
 <text class="TextShape"><tspan class="TextParagraph" font-family="Liberation Sans, sans-serif" font-size="353px" font-weight="400"><tspan class="TextPosition" x="16621" y="3923"><tspan fill="rgb(0,0,0)" stroke="none">81.6</tspan></tspan></tspan></text>
 <text class="TextShape"><tspan class="TextParagraph" font-family="Liberation Sans, sans-serif" font-size="353px" font-weight="400"><tspan class="TextPosition" x="19733" y="3363"><tspan fill="rgb(0,0,0)" stroke="none">87.6</tspan></tspan></tspan></text>
 <text class="TextShape"><tspan class="TextParagraph" font-family="Liberation Sans, sans-serif" font-size="353px" font-weight="400"><tspan class="TextPosition" x="22846" y="2725"><tspan fill="rgb(0,0,0)" stroke="none">94.5</tspan></tspan></tspan></text>
 <text class="TextShape"><tspan class="TextParagraph" font-family="Liberation Sans, sans-serif" font-size="459px" font-weight="400"><tspan class="TextPosition" x="8806" y="921"><tspan fill="rgb(0,0,0)" stroke="none">Fruit Classification - Energy Efficiency</tspan></tspan></tspan></text>
 <path fill="rgb(0,69,134)" stroke="none" d="M 10625,1754 L 10520,1754 10520,1543 10731,1543 10731,1754 10625,1754 Z"/>
 <path fill="rgb(255,66,14)" stroke="none" d="M 12837,1754 L 12731,1754 12731,1543 12942,1543 12942,1754 12837,1754 Z"/>
 <text class="TextShape"><tspan class="TextParagraph" font-family="Liberation Sans, sans-serif" font-size="353px" font-weight="400"><tspan class="TextPosition" x="10831" y="1768"><tspan fill="rgb(0,0,0)" stroke="none">Tensorflow</tspan></tspan></tspan></text>
 <text class="TextShape"><tspan class="TextParagraph" font-family="Liberation Sans, sans-serif" font-size="353px" font-weight="400"><tspan class="TextPosition" x="13042" y="1768"><tspan fill="rgb(0,0,0)" stroke="none">OpenVINO</tspan></tspan></tspan></text>
 <text class="TextShape" transform="rotate(-90 837 10010)"><tspan class="TextParagraph" font-family="Liberation Sans, sans-serif" font-size="318px" font-weight="400"><tspan class="TextPosition" x="837" y="10010"><tspan fill="rgb(0,0,0)" stroke="none">Performance per Watt (inferences/s/W)</tspan></tspan></tspan></text>
</svg>