<?xml version="1.0" encoding="UTF-8"?>
<!DOCTYPE svg PUBLIC "-//W3C//DTD SVG 1.1//EN" "http://www.w3.org/Graphics/SVG/1.1/DTD/svg11.dtd">
<svg width="252mm" height="125mm" viewBox="0 0 25200 12500" version="1.1" xmlns="http://www.w3.org/2000/svg" xmlns:xlink="http://www.w3.org/1999/xlink" stroke-width="28.222" stroke-linejoin="round" xml:space="preserve">
 <path fill="rgb(255,255,255)" stroke="none" d="M 12616,12543 L 0,12543 0,0 25232,0 25232,12543 12616,12543 Z"/>
 <path fill="none" stroke="rgb(179,179,179)" stroke-linejoin="round" d="M 13414,11646 L 2427,11646 2427,2397 24401,2397 24401,11646 13414,11646 Z"/>
 <path fill="none" stroke="rgb(179,179,179)" stroke-linejoin="round" d="M 24401,11645 L 2427,11645"/>
 <path fill="none" stroke="rgb(179,179,179)" stroke-linejoin="round" d="M 24401,10323 L 2427,10323"/>
 <path fill="none" stroke="rgb(179,179,179)" stroke-linejoin="round" d="M 24401,9002 L 2427,9002"/>
 <path fill="none" stroke="rgb(179,179,179)" stroke-linejoin="round" d="M 24401,7680 L 2427,7680"/>
 <path fill="none" stroke="rgb(179,179,179)" stroke-linejoin="round" d="M 24401,6359 L 2427,6359"/>
 <path fill="none" stroke="rgb(179,179,179)" stroke-linejoin="round" d="M 24401,5038 L 2427,5038"/>
 <path fill="none" stroke="rgb(179,179,179)" stroke-linejoin="round" d="M 24401,3717 L 2427,3717"/>
 <path fill="none" stroke="rgb(179,179,179)" stroke-linejoin="round" d="M 24401,2396 L 2427,2396"/>
 <path fill="none" stroke="rgb(179,179,179)" stroke-linejoin="round" d="M 2427,11795 L 2427,11645"/>
 <path fill="none" stroke="rgb(179,179,179)" stroke-linejoin="round" d="M 2427,11795 L 2427,11645"/>
 <path fill="none" stroke="rgb(179,179,179)" stroke-linejoin="round" d="M 5566,11795 L 5566,11645"/>
 <path fill="none" stroke="rgb(179,179,179)" stroke-linejoin="round" d="M 5566,11795 L 5566,11645"/>
 <path fill="none" stroke="rgb(179,179,179)" stroke-linejoin="round" d="M 8705,11795 L 8705,11645"/>
 <path fill="none" stroke="rgb(179,179,179)" stroke-linejoin="round" d="M 8705,11795 L 8705,11645"/>
 <path fill="none" stroke="rgb(179,179,179)" stroke-linejoin="round" d="M 11844,11795 L 11844,11645"/>
 <path fill="none" stroke="rgb(179,179,179)" stroke-linejoin="round" d="M 11844,11795 L 11844,11645"/>
 <path fill="none" stroke="rgb(179,179,179)" stroke-linejoin="round" d="M 14983,11795 L 14983,11645"/>
 <path fill="none" stroke="rgb(179,179,179)" stroke-linejoin="round" d="M 14983,11795 L 14983,11645"/>
 <path fill="none" stroke="rgb(179,179,179)" stroke-linejoin="round" d="M 18122,11795 L 18122,11645"/>
 <path fill="none" stroke="rgb(179,179,179)" stroke-linejoin="round" d="M 18122,11795 L 18122,11645"/>
 <path fill="none" stroke="rgb(179,179,179)" stroke-linejoin="round" d="M 21261,11795 L 21261,11645"/>
 <path fill="none" stroke="rgb(179,179,179)" stroke-linejoin="round" d="M 21261,11795 L 21261,11645"/>
 <path fill="none" stroke="rgb(179,179,179)" stroke-linejoin="round" d="M 24401,11795 L 24401,11645"/>
 <path fill="none" stroke="rgb(179,179,179)" stroke-linejoin="round" d="M 24401,11795 L 24401,11645"/>
 <path fill="none" stroke="rgb(179,179,179)" stroke-linejoin="round" d="M 2427,11645 L 24401,11645"/>
 <path fill="none" stroke="rgb(179,179,179)" stroke-linejoin="round" d="M 2277,11645 L 2427,11645"/>
 <path fill="none" stroke="rgb(179,179,179)" stroke-linejoin="round" d="M 2277,11645 L 2427,11645"/>
 <path fill="none" stroke="rgb(179,179,179)" stroke-linejoin="round" d="M 2277,10323 L 2427,10323"/>
 <path fill="none" stroke="rgb(179,179,179)" stroke-linejoin="round" d="M 2277,10323 L 2427,10323"/>
 <path fill="none" stroke="rgb(179,179,179)" stroke-linejoin="round" d="M 2277,9002 L 2427,9002"/>
 <path fill="none" stroke="rgb(179,179,179)" stroke-linejoin="round" d="M 2277,9002 L 2427,9002"/>
 <path fill="none" stroke="rgb(179,179,179)" stroke-linejoin="round" d="M 2277,7680 L 2427,7680"/>
 <path fill="none" stroke="rgb(179,179,179)" stroke-linejoin="round" d="M 2277,7680 L 2427,7680"/>
 <path fill="none" stroke="rgb(179,179,179)" stroke-linejoin="round" d="M 2277,6359 L 2427,6359"/>
 <path fill="none" stroke="rgb(179,179,179)" stroke-linejoin="round" d="M 2277,6359 L 2427,6359"/>
 <path fill="none" stroke="rgb(179,179,179)" stroke-linejoin="round" d="M 2277,5038 L 2427,5038"/>
 <path fill="none" stroke="rgb(179,179,179)" stroke-linejoin="round" d="M 2277,5038 L 2427,5038"/>
 <path fill="none" stroke="rgb(179,179,179)" stroke-linejoin="round" d="M 2277,3717 L 2427,3717"/>
 <path fill="none" stroke="rgb(179,179,179)" stroke-linejoin="round" d="M 2277,3717 L 2427,3717"/>
 <path fill="none" stroke="rgb(179,179,179)" stroke-linejoin="round" d="M 2277,2396 L 2427,2396"/>
 <path fill="none" stroke="rgb(179,179,179)" stroke-linejoin="round" d="M 2277,2396 L 2427,2396"/>
 <path fill="none" stroke="rgb(179,179,179)" stroke-linejoin="round" d="M 2427,11645 L 2427,2396"/>
 <path fill="rgb(0,69,134)" stroke="none" d="M 21784,11645 L 22831,11645 22831,11171 21784,11171 21784,11645 Z"/>
 <path fill="rgb(0,69,134)" stroke="none" d="M 18645,11645 L 19692,11645 19692,10805 18645,10805 18645,11645 Z"/>
 <path fill="rgb(0,69,134)" stroke="none" d="M 15506,11645 L 16552,11645 16552,11278 15506,11278 15506,11645 Z"/>
 <path fill="rgb(0,69,134)" stroke="none" d="M 12368,11645 L 13413,11645 13413,11464 12368,11464 12368,11645 Z"/>
 <path fill="rgb(0,69,134)" stroke="none" d="M 9228,11645 L 10275,11645 10275,11378 9228,11378 9228,11645 Z"/>
 <path fill="rgb(0,69,134)" stroke="none" d="M 6089,11645 L 7135,11645 7135,11328 6089,11328 6089,11645 Z"/>
 <path fill="rgb(0,69,134)" stroke="none" d="M 2950,11645 L 3996,11645 3996,11476 2950,11476 2950,11645 Z"/>
 <path fill="rgb(255,66,14)" stroke="none" d="M 22831,11645 L 23877,11645 23877,3416 22831,3416 22831,11645 Z"/>
 <path fill="rgb(255,66,14)" stroke="none" d="M 19692,11645 L 20738,11645 20738,6014 19692,6014 19692,11645 Z"/>
 <path fill="rgb(255,66,14)" stroke="none" d="M 16552,11645 L 17599,11645 17599,8681 16552,8681 16552,11645 Z"/>
 <path fill="rgb(255,66,14)" stroke="none" d="M 13413,11645 L 14459,11645 14459,8217 13413,8217 13413,11645 Z"/>
 <path fill="rgb(255,66,14)" stroke="none" d="M 10275,11645 L 11321,11645 11321,7444 10275,7444 10275,11645 Z"/>
 <path fill="rgb(255,66,14)" stroke="none" d="M 7135,11645 L 8182,11645 8182,4814 7135,4814 7135,11645 Z"/>
 <path fill="rgb(255,66,14)" stroke="none" d="M 3996,11645 L 5043,11645 5043,8158 3996,8158 3996,11645 Z"/>
 <text class="TextShape"><tspan class="TextParagraph" font-family="Liberation Sans, sans-serif" font-size="353px" font-weight="400"><tspan class="TextPosition" x="3334" y="12213"><tspan fill="rgb(0,0,0)" stroke="none">Baseline</tspan></tspan></tspan></text>
 <text class="TextShape"><tspan class="TextParagraph" font-family="Liberation Sans, sans-serif" font-size="353px" font-weight="400"><tspan class="TextPosition" x="6129" y="12213"><tspan fill="rgb(0,0,0)" stroke="none">Red. In. Size</tspan></tspan></tspan></text>
 <text class="TextShape"><tspan class="TextParagraph" font-family="Liberation Sans, sans-serif" font-size="353px" font-weight="400"><tspan class="TextPosition" x="9044" y="12213"><tspan fill="rgb(0,0,0)" stroke="none">Red. Layer Size</tspan></tspan></tspan></text>
 <text class="TextShape"><tspan class="TextParagraph" font-family="Liberation Sans, sans-serif" font-size="353px" font-weight="400"><tspan class="TextPosition" x="12832" y="12213"><tspan fill="rgb(0,0,0)" stroke="none">Pruning</tspan></tspan></tspan></text>
 <text class="TextShape"><tspan class="TextParagraph" font-family="Liberation Sans, sans-serif" font-size="353px" font-weight="400"><tspan class="TextPosition" x="15693" y="12213"><tspan fill="rgb(0,0,0)" stroke="none">Sep. Conv.</tspan></tspan></tspan></text>
 <text class="TextShape"><tspan class="TextParagraph" font-family="Liberation Sans, sans-serif" font-size="353px" font-weight="400"><tspan class="TextPosition" x="18925" y="12213"><tspan fill="rgb(0,0,0)" stroke="none">Combined</tspan></tspan></tspan></text>
 <text class="TextShape"><tspan class="TextParagraph" font-family="Liberation Sans, sans-serif" font-size="353px" font-weight="400"><tspan class="TextPosition" x="20914" y="12213"><tspan fill="rgb(0,0,0)" stroke="none">Combined no Sep. Conv.</tspan></tspan></tspan></text>
 <text class="TextShape"><tspan class="TextParagraph" font-family="Liberation Sans, sans-serif" font-size="353px" font-weight="400"><tspan class="TextPosition" x="1701" y="11766"><tspan fill="rgb(0,0,0)" stroke="none">0.0</tspan></tspan></tspan></text>
 <text class="TextShape"><tspan class="TextParagraph" font-family="Liberation Sans, sans-serif" font-size="353px" font-weight="400"><tspan class="TextPosition" x="1516" y="10444"><tspan fill="rgb(0,0,0)" stroke="none">10.0</tspan></tspan></tspan></text>
 <text class="TextShape"><tspan class="TextParagraph" font-family="Liberation Sans, sans-serif" font-size="353px" font-weight="400"><tspan class="TextPosition" x="1516" y="9123"><tspan fill="rgb(0,0,0)" stroke="none">20.0</tspan></tspan></tspan></text>
 <text class="TextShape"><tspan class="TextParagraph" font-family="Liberation Sans, sans-serif" font-size="353px" font-weight="400"><tspan class="TextPosition" x="1516" y="7801"><tspan fill="rgb(0,0,0)" stroke="none">30.0</tspan></tspan></tspan></text>
 <text class="TextShape"><tspan class="TextParagraph" font-family="Liberation Sans, sans-serif" font-size="353px" font-weight="400"><tspan class="TextPosition" x="1516" y="6480"><tspan fill="rgb(0,0,0)" stroke="none">40.0</tspan></tspan></tspan></text>
 <text class="TextShape"><tspan class="TextParagraph" font-family="Liberation Sans, sans-serif" font-size="353px" font-weight="400"><tspan class="TextPosition" x="1516" y="5158"><tspan fill="rgb(0,0,0)" stroke="none">50.0</tspan></tspan></tspan></text>
 <text class="TextShape"><tspan class="TextParagraph" font-family="Liberation Sans, sans-serif" font-size="353px" font-weight="400"><tspan class="TextPosition" x="1516" y="3837"><tspan fill="rgb(0,0,0)" stroke="none">60.0</tspan></tspan></tspan></text>
 <text class="TextShape"><tspan class="TextParagraph" font-family="Liberation Sans, sans-serif" font-size="353px" font-weight="400"><tspan class="TextPosition" x="1516" y="2516"><tspan fill="rgb(0,0,0)" stroke="none">70.0</tspan></tspan></tspan></text>
 <text class="TextShape"><tspan class="TextParagraph" font-family="Liberation Sans, sans-serif" font-size="353px" font-weight="400"><tspan class="TextPosition" x="3235" y="11298"><tspan fill="rgb(0,0,0)" stroke="none">1.3</tspan></tspan></tspan></text>
 <text class="TextShape"><tspan class="TextParagraph" font-family="Liberation Sans, sans-serif" font-size="353px" font-weight="400"><tspan class="TextPosition" x="6374" y="11150"><tspan fill="rgb(0,0,0)" stroke="none">2.4</tspan></tspan></tspan></text>
 <text class="TextShape"><tspan class="TextParagraph" font-family="Liberation Sans, sans-serif" font-size="353px" font-weight="400"><tspan class="TextPosition" x="9514" y="11200"><tspan fill="rgb(0,0,0)" stroke="none">2.0</tspan></tspan></tspan></text>
 <text class="TextShape"><tspan class="TextParagraph" font-family="Liberation Sans, sans-serif" font-size="353px" font-weight="400"><tspan class="TextPosition" x="12653" y="11286"><tspan fill="rgb(0,0,0)" stroke="none">1.4</tspan></tspan></tspan></text>
 <text class="TextShape"><tspan class="TextParagraph" font-family="Liberation Sans, sans-serif" font-size="353px" font-weight="400"><tspan class="TextPosition" x="15792" y="11100"><tspan fill="rgb(0,0,0)" stroke="none">2.8</tspan></tspan></tspan></text>
 <text class="TextShape"><tspan class="TextParagraph" font-family="Liberation Sans, sans-serif" font-size="353px" font-weight="400"><tspan class="TextPosition" x="18931" y="10627"><tspan fill="rgb(0,0,0)" stroke="none">6.3</tspan></tspan></tspan></text>
 <text class="TextShape"><tspan class="TextParagraph" font-family="Liberation Sans, sans-serif" font-size="353px" font-weight="400"><tspan class="TextPosition" x="22071" y="10993"><tspan fill="rgb(0,0,0)" stroke="none">3.6</tspan></tspan></tspan></text>
 <text class="TextShape"><tspan class="TextParagraph" font-family="Liberation Sans, sans-serif" font-size="353px" font-weight="400"><tspan class="TextPosition" x="4188" y="7980"><tspan fill="rgb(0,0,0)" stroke="none">26.4</tspan></tspan></tspan></text>
 <text class="TextShape"><tspan class="TextParagraph" font-family="Liberation Sans, sans-serif" font-size="353px" font-weight="400"><tspan class="TextPosition" x="7328" y="4636"><tspan fill="rgb(0,0,0)" stroke="none">51.7</tspan></tspan></tspan></text>
 <text class="TextShape"><tspan class="TextParagraph" font-family="Liberation Sans, sans-serif" font-size="353px" font-weight="400"><tspan class="TextPosition" x="10467" y="7266"><tspan fill="rgb(0,0,0)" stroke="none">31.8</tspan></tspan></tspan></text>
 <text class="TextShape"><tspan class="TextParagraph" font-family="Liberation Sans, sans-serif" font-size="353px" font-weight="400"><tspan class="TextPosition" x="13606" y="8039"><tspan fill="rgb(0,0,0)" stroke="none">25.9</tspan></tspan></tspan></text>
 <text class="TextShape"><tspan class="TextParagraph" font-family="Liberation Sans, sans-serif" font-size="353px" font-weight="400"><tspan class="TextPosition" x="16746" y="8503"><tspan fill="rgb(0,0,0)" stroke="none">22.4</tspan></tspan></tspan></text>
 <text class="TextShape"><tspan class="TextParagraph" font-family="Liberation Sans, sans-serif" font-size="353px" font-weight="400"><tspan class="TextPosition" x="19885" y="5836"><tspan fill="rgb(0,0,0)" stroke="none">42.6</tspan></tspan></tspan></text>
 <text class="TextShape"><tspan class="TextParagraph" font-family="Liberation Sans, sans-serif" font-size="353px" font-weight="400"><tspan class="TextPosition" x="23024" y="3238"><tspan fill="rgb(0,0,0)" stroke="none">62.3</tspan></tspan></tspan></text>
 <text class="TextShape"><tspan class="TextParagraph" font-family="Liberation Sans, sans-serif" font-size="459px" font-weight="400"><tspan class="TextPosition" x="8634" y="921"><tspan fill="rgb(0,0,0)" stroke="none">Scene Classification - Energy Efficiency</tspan></tspan></tspan></text>
 <path fill="rgb(0,69,134)" stroke="none" d="M 10625,1754 L 10520,1754 10520,1543 10731,1543 10731,1754 10625,1754 Z"/>
 <path fill="rgb(255,66,14)" stroke="none" d="M 12837,1754 L 12731,1754 12731,1543 12942,1543 12942,1754 12837,1754 Z"/>
 <text class="TextShape"><tspan class="TextParagraph" font-family="Liberation Sans, sans-serif" font-size="353px" font-weight="400"><tspan class="TextPosition" x="10831" y="1768"><tspan fill="rgb(0,0,0)" stroke="none">Tensorflow</tspan></tspan></tspan></text>
 <text class="TextShape"><tspan class="TextParagraph" font-family="Liberation Sans, sans-serif" font-size="353px" font-weight="400"><tspan class="TextPosition" x="13042" y="1768"><tspan fill="rgb(0,0,0)" stroke="none">OpenVINO</tspan></tspan></tspan></text>
 <text class="TextShape" transform="rotate(-90 837 10010)"><tspan class="TextParagraph" font-family="Liberation Sans, sans-serif" font-size="318px" font-weight="400"><tspan class="TextPosition" x="837" y="10010"><tspan fill="rgb(0,0,0)" stroke="none">Performance per Watt (inferences/s/W)</tspan></tspan></tspan></text>
</svg>