<?xml version="1.0" encoding="UTF-8"?>
<!DOCTYPE svg PUBLIC "-//W3C//DTD SVG 1.1//EN" "http://www.w3.org/Graphics/SVG/1.1/DTD/svg11.dtd">
<svg width="273mm" height="90mm" viewBox="0 0 27300 9000" version="1.1" xmlns="http://www.w3.org/2000/svg" xmlns:xlink="http://www.w3.org/1999/xlink" stroke-width="28.222" stroke-linejoin="round" xml:space="preserve">
 <path fill="rgb(255,255,255)" stroke="none" d="M 13634,8977 L 0,8977 0,0 27268,0 27268,8977 13634,8977 Z"/>
 <path fill="none" stroke="rgb(179,179,179)" stroke-linejoin="round" d="M 14688,8151 L 2654,8151 2654,1161 26723,1161 26723,8151 14688,8151 Z"/>
 <path fill="none" stroke="rgb(179,179,179)" stroke-linejoin="round" d="M 26723,8150 L 2654,8150"/>
 <path fill="none" stroke="rgb(179,179,179)" stroke-linejoin="round" d="M 26723,6984 L 2654,6984"/>
 <path fill="none" stroke="rgb(179,179,179)" stroke-linejoin="round" d="M 26723,5819 L 2654,5819"/>
 <path fill="none" stroke="rgb(179,179,179)" stroke-linejoin="round" d="M 26723,4654 L 2654,4654"/>
 <path fill="none" stroke="rgb(179,179,179)" stroke-linejoin="round" d="M 26723,3490 L 2654,3490"/>
 <path fill="none" stroke="rgb(179,179,179)" stroke-linejoin="round" d="M 26723,2325 L 2654,2325"/>
 <path fill="none" stroke="rgb(179,179,179)" stroke-linejoin="round" d="M 26723,1160 L 2654,1160"/>
 <path fill="none" stroke="rgb(179,179,179)" stroke-linejoin="round" d="M 2654,8300 L 2654,8150"/>
 <path fill="none" stroke="rgb(179,179,179)" stroke-linejoin="round" d="M 2654,8300 L 2654,8150"/>
 <path fill="none" stroke="rgb(179,179,179)" stroke-linejoin="round" d="M 8671,8300 L 8671,8150"/>
 <path fill="none" stroke="rgb(179,179,179)" stroke-linejoin="round" d="M 8671,8300 L 8671,8150"/>
 <path fill="none" stroke="rgb(179,179,179)" stroke-linejoin="round" d="M 14688,8300 L 14688,8150"/>
 <path fill="none" stroke="rgb(179,179,179)" stroke-linejoin="round" d="M 14688,8300 L 14688,8150"/>
 <path fill="none" stroke="rgb(179,179,179)" stroke-linejoin="round" d="M 20705,8300 L 20705,8150"/>
 <path fill="none" stroke="rgb(179,179,179)" stroke-linejoin="round" d="M 20705,8300 L 20705,8150"/>
 <path fill="none" stroke="rgb(179,179,179)" stroke-linejoin="round" d="M 26723,8300 L 26723,8150"/>
 <path fill="none" stroke="rgb(179,179,179)" stroke-linejoin="round" d="M 26723,8300 L 26723,8150"/>
 <path fill="none" stroke="rgb(179,179,179)" stroke-linejoin="round" d="M 2654,8150 L 26723,8150"/>
 <path fill="none" stroke="rgb(179,179,179)" stroke-linejoin="round" d="M 2504,8150 L 2654,8150"/>
 <path fill="none" stroke="rgb(179,179,179)" stroke-linejoin="round" d="M 2504,8150 L 2654,8150"/>
 <path fill="none" stroke="rgb(179,179,179)" stroke-linejoin="round" d="M 2504,6984 L 2654,6984"/>
 <path fill="none" stroke="rgb(179,179,179)" stroke-linejoin="round" d="M 2504,6984 L 2654,6984"/>
 <path fill="none" stroke="rgb(179,179,179)" stroke-linejoin="round" d="M 2504,5819 L 2654,5819"/>
 <path fill="none" stroke="rgb(179,179,179)" stroke-linejoin="round" d="M 2504,5819 L 2654,5819"/>
 <path fill="none" stroke="rgb(179,179,179)" stroke-linejoin="round" d="M 2504,4654 L 2654,4654"/>
 <path fill="none" stroke="rgb(179,179,179)" stroke-linejoin="round" d="M 2504,4654 L 2654,4654"/>
 <path fill="none" stroke="rgb(179,179,179)" stroke-linejoin="round" d="M 2504,3490 L 2654,3490"/>
 <path fill="none" stroke="rgb(179,179,179)" stroke-linejoin="round" d="M 2504,3490 L 2654,3490"/>
 <path fill="none" stroke="rgb(179,179,179)" stroke-linejoin="round" d="M 2504,2325 L 2654,2325"/>
 <path fill="none" stroke="rgb(179,179,179)" stroke-linejoin="round" d="M 2504,2325 L 2654,2325"/>
 <path fill="none" stroke="rgb(179,179,179)" stroke-linejoin="round" d="M 2504,1160 L 2654,1160"/>
 <path fill="none" stroke="rgb(179,179,179)" stroke-linejoin="round" d="M 2504,1160 L 2654,1160"/>
 <path fill="none" stroke="rgb(179,179,179)" stroke-linejoin="round" d="M 2654,8150 L 2654,1160"/>
 <path fill="rgb(0,69,134)" stroke="none" d="M 21135,8150 L 21994,8150 21994,4422 21135,4422 21135,8150 Z"/>
 <path fill="rgb(0,69,134)" stroke="none" d="M 15117,8150 L 15977,8150 15977,6931 15117,6931 15117,8150 Z"/>
 <path fill="rgb(0,69,134)" stroke="none" d="M 9101,8150 L 9960,8150 9960,5623 9101,5623 9101,8150 Z"/>
 <path fill="rgb(0,69,134)" stroke="none" d="M 3083,8150 L 3943,8150 3943,3786 3083,3786 3083,8150 Z"/>
 <path fill="rgb(255,66,14)" stroke="none" d="M 21994,8150 L 22854,8150 22854,4058 21994,4058 21994,8150 Z"/>
 <path fill="rgb(255,66,14)" stroke="none" d="M 15977,8150 L 16837,8150 16837,6928 15977,6928 15977,8150 Z"/>
 <path fill="rgb(255,66,14)" stroke="none" d="M 9960,8150 L 10820,8150 10820,5630 9960,5630 9960,8150 Z"/>
 <path fill="rgb(255,66,14)" stroke="none" d="M 3943,8150 L 4803,8150 4803,2597 3943,2597 3943,8150 Z"/>
 <path fill="rgb(255,211,32)" stroke="none" d="M 22854,8150 L 23714,8150 23714,5985 22854,5985 22854,8150 Z"/>
 <path fill="rgb(255,211,32)" stroke="none" d="M 16837,8150 L 17696,8150 17696,6935 16837,6935 16837,8150 Z"/>
 <path fill="rgb(255,211,32)" stroke="none" d="M 10820,8150 L 11680,8150 11680,6719 10820,6719 10820,8150 Z"/>
 <path fill="rgb(255,211,32)" stroke="none" d="M 4803,8150 L 5662,8150 5662,5304 4803,5304 4803,8150 Z"/>
 <path fill="rgb(87,157,28)" stroke="none" d="M 23714,8150 L 24573,8150 24573,5463 23714,5463 23714,8150 Z"/>
 <path fill="rgb(87,157,28)" stroke="none" d="M 17696,8150 L 18556,8150 18556,6931 17696,6931 17696,8150 Z"/>
 <path fill="rgb(87,157,28)" stroke="none" d="M 11680,8150 L 12539,8150 12539,6688 11680,6688 11680,8150 Z"/>
 <path fill="rgb(87,157,28)" stroke="none" d="M 5662,8150 L 6522,8150 6522,4519 5662,4519 5662,8150 Z"/>
 <path fill="rgb(126,0,33)" stroke="none" d="M 24573,8150 L 25433,8150 25433,3863 24573,3863 24573,8150 Z"/>
 <path fill="rgb(126,0,33)" stroke="none" d="M 18556,8150 L 19416,8150 19416,7844 18556,7844 18556,8150 Z"/>
 <path fill="rgb(126,0,33)" stroke="none" d="M 12539,8150 L 13399,8150 13399,6942 12539,6942 12539,8150 Z"/>
 <path fill="rgb(126,0,33)" stroke="none" d="M 6522,8150 L 7382,8150 7382,5866 6522,5866 6522,8150 Z"/>
 <path fill="rgb(131,202,255)" stroke="none" d="M 25433,8150 L 26293,8150 26293,4077 25433,4077 25433,8150 Z"/>
 <path fill="rgb(131,202,255)" stroke="none" d="M 19416,8150 L 20275,8150 20275,7823 19416,7823 19416,8150 Z"/>
 <path fill="rgb(131,202,255)" stroke="none" d="M 13399,8150 L 14258,8150 14258,6903 13399,6903 13399,8150 Z"/>
 <path fill="rgb(131,202,255)" stroke="none" d="M 7382,8150 L 8241,8150 8241,4284 7382,4284 7382,8150 Z"/>
 <text class="TextShape"><tspan class="TextParagraph" font-family="Liberation Sans, sans-serif" font-size="353px" font-weight="400"><tspan class="TextPosition" x="4656" y="8718"><tspan fill="rgb(0,0,0)" stroke="none">blackscholes</tspan></tspan></tspan></text>
 <text class="TextShape"><tspan class="TextParagraph" font-family="Liberation Sans, sans-serif" font-size="353px" font-weight="400"><tspan class="TextPosition" x="10899" y="8718"><tspan fill="rgb(0,0,0)" stroke="none">inversek2j</tspan></tspan></tspan></text>
 <text class="TextShape"><tspan class="TextParagraph" font-family="Liberation Sans, sans-serif" font-size="353px" font-weight="400"><tspan class="TextPosition" x="17088" y="8718"><tspan fill="rgb(0,0,0)" stroke="none">kmeans</tspan></tspan></tspan></text>
 <text class="TextShape"><tspan class="TextParagraph" font-family="Liberation Sans, sans-serif" font-size="353px" font-weight="400"><tspan class="TextPosition" x="23305" y="8718"><tspan fill="rgb(0,0,0)" stroke="none">sobel</tspan></tspan></tspan></text>
 <text class="TextShape"><tspan class="TextParagraph" font-family="Liberation Sans, sans-serif" font-size="353px" font-weight="400"><tspan class="TextPosition" x="1743" y="8271"><tspan fill="rgb(0,0,0)" stroke="none">0.00</tspan></tspan></tspan></text>
 <text class="TextShape"><tspan class="TextParagraph" font-family="Liberation Sans, sans-serif" font-size="353px" font-weight="400"><tspan class="TextPosition" x="1743" y="7105"><tspan fill="rgb(0,0,0)" stroke="none">5.00</tspan></tspan></tspan></text>
 <text class="TextShape"><tspan class="TextParagraph" font-family="Liberation Sans, sans-serif" font-size="353px" font-weight="400"><tspan class="TextPosition" x="1557" y="5940"><tspan fill="rgb(0,0,0)" stroke="none">10.00</tspan></tspan></tspan></text>
 <text class="TextShape"><tspan class="TextParagraph" font-family="Liberation Sans, sans-serif" font-size="353px" font-weight="400"><tspan class="TextPosition" x="1557" y="4775"><tspan fill="rgb(0,0,0)" stroke="none">15.00</tspan></tspan></tspan></text>
 <text class="TextShape"><tspan class="TextParagraph" font-family="Liberation Sans, sans-serif" font-size="353px" font-weight="400"><tspan class="TextPosition" x="1557" y="3610"><tspan fill="rgb(0,0,0)" stroke="none">20.00</tspan></tspan></tspan></text>
 <text class="TextShape"><tspan class="TextParagraph" font-family="Liberation Sans, sans-serif" font-size="353px" font-weight="400"><tspan class="TextPosition" x="1557" y="2445"><tspan fill="rgb(0,0,0)" stroke="none">25.00</tspan></tspan></tspan></text>
 <text class="TextShape"><tspan class="TextParagraph" font-family="Liberation Sans, sans-serif" font-size="353px" font-weight="400"><tspan class="TextPosition" x="1557" y="1280"><tspan fill="rgb(0,0,0)" stroke="none">30.00</tspan></tspan></tspan></text>
 <text class="TextShape"><tspan class="TextParagraph" font-family="Liberation Sans, sans-serif" font-size="353px" font-weight="400"><tspan class="TextPosition" x="3089" y="3608"><tspan fill="rgb(0,0,0)" stroke="none">18.73</tspan></tspan></tspan></text>
 <text class="TextShape"><tspan class="TextParagraph" font-family="Liberation Sans, sans-serif" font-size="353px" font-weight="400"><tspan class="TextPosition" x="9107" y="5445"><tspan fill="rgb(0,0,0)" stroke="none">10.84</tspan></tspan></tspan></text>
 <text class="TextShape"><tspan class="TextParagraph" font-family="Liberation Sans, sans-serif" font-size="353px" font-weight="400"><tspan class="TextPosition" x="15217" y="6753"><tspan fill="rgb(0,0,0)" stroke="none">5.23</tspan></tspan></tspan></text>
 <text class="TextShape"><tspan class="TextParagraph" font-family="Liberation Sans, sans-serif" font-size="353px" font-weight="400"><tspan class="TextPosition" x="21142" y="4244"><tspan fill="rgb(0,0,0)" stroke="none">16.00</tspan></tspan></tspan></text>
 <text class="TextShape"><tspan class="TextParagraph" font-family="Liberation Sans, sans-serif" font-size="353px" font-weight="400"><tspan class="TextPosition" x="3949" y="2419"><tspan fill="rgb(0,0,0)" stroke="none">23.83</tspan></tspan></tspan></text>
 <text class="TextShape"><tspan class="TextParagraph" font-family="Liberation Sans, sans-serif" font-size="353px" font-weight="400"><tspan class="TextPosition" x="9966" y="5452"><tspan fill="rgb(0,0,0)" stroke="none">10.81</tspan></tspan></tspan></text>
 <text class="TextShape"><tspan class="TextParagraph" font-family="Liberation Sans, sans-serif" font-size="353px" font-weight="400"><tspan class="TextPosition" x="16077" y="6750"><tspan fill="rgb(0,0,0)" stroke="none">5.24</tspan></tspan></tspan></text>
 <text class="TextShape"><tspan class="TextParagraph" font-family="Liberation Sans, sans-serif" font-size="353px" font-weight="400"><tspan class="TextPosition" x="22001" y="3880"><tspan fill="rgb(0,0,0)" stroke="none">17.56</tspan></tspan></tspan></text>
 <text class="TextShape"><tspan class="TextParagraph" font-family="Liberation Sans, sans-serif" font-size="353px" font-weight="400"><tspan class="TextPosition" x="4808" y="5126"><tspan fill="rgb(0,0,0)" stroke="none">12.21</tspan></tspan></tspan></text>
 <text class="TextShape"><tspan class="TextParagraph" font-family="Liberation Sans, sans-serif" font-size="353px" font-weight="400"><tspan class="TextPosition" x="10919" y="6541"><tspan fill="rgb(0,0,0)" stroke="none">6.14</tspan></tspan></tspan></text>
 <text class="TextShape"><tspan class="TextParagraph" font-family="Liberation Sans, sans-serif" font-size="353px" font-weight="400"><tspan class="TextPosition" x="16936" y="6757"><tspan fill="rgb(0,0,0)" stroke="none">5.21</tspan></tspan></tspan></text>
 <text class="TextShape"><tspan class="TextParagraph" font-family="Liberation Sans, sans-serif" font-size="353px" font-weight="400"><tspan class="TextPosition" x="22954" y="5807"><tspan fill="rgb(0,0,0)" stroke="none">9.29</tspan></tspan></tspan></text>
 <text class="TextShape"><tspan class="TextParagraph" font-family="Liberation Sans, sans-serif" font-size="353px" font-weight="400"><tspan class="TextPosition" x="5668" y="4342"><tspan fill="rgb(0,0,0)" stroke="none">15.58</tspan></tspan></tspan></text>
 <text class="TextShape"><tspan class="TextParagraph" font-family="Liberation Sans, sans-serif" font-size="353px" font-weight="400"><tspan class="TextPosition" x="11779" y="6510"><tspan fill="rgb(0,0,0)" stroke="none">6.27</tspan></tspan></tspan></text>
 <text class="TextShape"><tspan class="TextParagraph" font-family="Liberation Sans, sans-serif" font-size="353px" font-weight="400"><tspan class="TextPosition" x="17796" y="6753"><tspan fill="rgb(0,0,0)" stroke="none">5.23</tspan></tspan></tspan></text>
 <text class="TextShape"><tspan class="TextParagraph" font-family="Liberation Sans, sans-serif" font-size="353px" font-weight="400"><tspan class="TextPosition" x="23721" y="5285"><tspan fill="rgb(0,0,0)" stroke="none">11.53</tspan></tspan></tspan></text>
 <text class="TextShape"><tspan class="TextParagraph" font-family="Liberation Sans, sans-serif" font-size="353px" font-weight="400"><tspan class="TextPosition" x="6621" y="5688"><tspan fill="rgb(0,0,0)" stroke="none">9.80</tspan></tspan></tspan></text>
 <text class="TextShape"><tspan class="TextParagraph" font-family="Liberation Sans, sans-serif" font-size="353px" font-weight="400"><tspan class="TextPosition" x="12638" y="6764"><tspan fill="rgb(0,0,0)" stroke="none">5.18</tspan></tspan></tspan></text>
 <text class="TextShape"><tspan class="TextParagraph" font-family="Liberation Sans, sans-serif" font-size="353px" font-weight="400"><tspan class="TextPosition" x="18656" y="7666"><tspan fill="rgb(0,0,0)" stroke="none">1.31</tspan></tspan></tspan></text>
 <text class="TextShape"><tspan class="TextParagraph" font-family="Liberation Sans, sans-serif" font-size="353px" font-weight="400"><tspan class="TextPosition" x="24580" y="3685"><tspan fill="rgb(0,0,0)" stroke="none">18.40</tspan></tspan></tspan></text>
 <text class="TextShape"><tspan class="TextParagraph" font-family="Liberation Sans, sans-serif" font-size="353px" font-weight="400"><tspan class="TextPosition" x="7387" y="4106"><tspan fill="rgb(0,0,0)" stroke="none">16.59</tspan></tspan></tspan></text>
 <text class="TextShape"><tspan class="TextParagraph" font-family="Liberation Sans, sans-serif" font-size="353px" font-weight="400"><tspan class="TextPosition" x="13498" y="6725"><tspan fill="rgb(0,0,0)" stroke="none">5.35</tspan></tspan></tspan></text>
 <text class="TextShape"><tspan class="TextParagraph" font-family="Liberation Sans, sans-serif" font-size="353px" font-weight="400"><tspan class="TextPosition" x="19515" y="7645"><tspan fill="rgb(0,0,0)" stroke="none">1.40</tspan></tspan></tspan></text>
 <text class="TextShape"><tspan class="TextParagraph" font-family="Liberation Sans, sans-serif" font-size="353px" font-weight="400"><tspan class="TextPosition" x="25440" y="3899"><tspan fill="rgb(0,0,0)" stroke="none">17.48</tspan></tspan></tspan></text>
 <path fill="rgb(0,69,134)" stroke="none" d="M 5870,589 L 5765,589 5765,378 5976,378 5976,589 5870,589 Z"/>
 <path fill="rgb(255,66,14)" stroke="none" d="M 8214,589 L 8109,589 8109,378 8320,378 8320,589 8214,589 Z"/>
 <path fill="rgb(255,211,32)" stroke="none" d="M 11193,589 L 11088,589 11088,378 11299,378 11299,589 11193,589 Z"/>
 <path fill="rgb(87,157,28)" stroke="none" d="M 13537,589 L 13432,589 13432,378 13642,378 13642,589 13537,589 Z"/>
 <path fill="rgb(126,0,33)" stroke="none" d="M 16516,589 L 16410,589 16410,378 16621,378 16621,589 16516,589 Z"/>
 <path fill="rgb(131,202,255)" stroke="none" d="M 18860,589 L 18754,589 18754,378 18965,378 18965,589 18860,589 Z"/>
 <text class="TextShape"><tspan class="TextParagraph" font-family="Liberation Sans, sans-serif" font-size="353px" font-weight="400"><tspan class="TextPosition" x="6076" y="603"><tspan fill="rgb(0,0,0)" stroke="none">CPU (NN 1)</tspan></tspan></tspan></text>
 <text class="TextShape"><tspan class="TextParagraph" font-family="Liberation Sans, sans-serif" font-size="353px" font-weight="400"><tspan class="TextPosition" x="8420" y="603"><tspan fill="rgb(0,0,0)" stroke="none">MYRIAD (NN 1)</tspan></tspan></tspan></text>
 <text class="TextShape"><tspan class="TextParagraph" font-family="Liberation Sans, sans-serif" font-size="353px" font-weight="400"><tspan class="TextPosition" x="11399" y="603"><tspan fill="rgb(0,0,0)" stroke="none">CPU (NN 2)</tspan></tspan></tspan></text>
 <text class="TextShape"><tspan class="TextParagraph" font-family="Liberation Sans, sans-serif" font-size="353px" font-weight="400"><tspan class="TextPosition" x="13742" y="603"><tspan fill="rgb(0,0,0)" stroke="none">MYRIAD (NN 2)</tspan></tspan></tspan></text>
 <text class="TextShape"><tspan class="TextParagraph" font-family="Liberation Sans, sans-serif" font-size="353px" font-weight="400"><tspan class="TextPosition" x="16721" y="603"><tspan fill="rgb(0,0,0)" stroke="none">CPU (NN 3)</tspan></tspan></tspan></text>
 <text class="TextShape"><tspan class="TextParagraph" font-family="Liberation Sans, sans-serif" font-size="353px" font-weight="400"><tspan class="TextPosition" x="19065" y="603"><tspan fill="rgb(0,0,0)" stroke="none">MYRIAD (NN 3)</tspan></tspan></tspan></text>
 <text class="TextShape" transform="rotate(-90 837 5329)"><tspan class="TextParagraph" font-family="Liberation Sans, sans-serif" font-size="318px" font-weight="400"><tspan class="TextPosition" x="837" y="5329"><tspan fill="rgb(0,0,0)" stroke="none">MAPE</tspan></tspan></tspan></text>
</svg>