<?xml version="1.0" encoding="UTF-8"?>
<!DOCTYPE svg PUBLIC "-//W3C//DTD SVG 1.1//EN" "http://www.w3.org/Graphics/SVG/1.1/DTD/svg11.dtd">
<svg width="273mm" height="90mm" viewBox="0 0 27300 9000" version="1.1" xmlns="http://www.w3.org/2000/svg" xmlns:xlink="http://www.w3.org/1999/xlink" stroke-width="28.222" stroke-linejoin="round" xml:space="preserve">
 <path fill="rgb(255,255,255)" stroke="none" d="M 13633,8978 L 0,8978 0,0 27266,0 27266,8978 13633,8978 Z"/>
 <path fill="none" stroke="rgb(179,179,179)" stroke-linejoin="round" d="M 15150,8152 L 3580,8152 3580,1162 26721,1162 26721,8152 15150,8152 Z"/>
 <path fill="none" stroke="rgb(179,179,179)" stroke-linejoin="round" d="M 26721,8151 L 3580,8151"/>
 <path fill="none" stroke="rgb(179,179,179)" stroke-linejoin="round" d="M 26721,6985 L 3580,6985"/>
 <path fill="none" stroke="rgb(179,179,179)" stroke-linejoin="round" d="M 26721,5820 L 3580,5820"/>
 <path fill="none" stroke="rgb(179,179,179)" stroke-linejoin="round" d="M 26721,4655 L 3580,4655"/>
 <path fill="none" stroke="rgb(179,179,179)" stroke-linejoin="round" d="M 26721,3491 L 3580,3491"/>
 <path fill="none" stroke="rgb(179,179,179)" stroke-linejoin="round" d="M 26721,2326 L 3580,2326"/>
 <path fill="none" stroke="rgb(179,179,179)" stroke-linejoin="round" d="M 26721,1160 L 3580,1160"/>
 <path fill="none" stroke="rgb(221,221,221)" stroke-linejoin="round" d="M 26721,7568 L 3580,7568"/>
 <path fill="none" stroke="rgb(221,221,221)" stroke-linejoin="round" d="M 26721,6403 L 3580,6403"/>
 <path fill="none" stroke="rgb(221,221,221)" stroke-linejoin="round" d="M 26721,5238 L 3580,5238"/>
 <path fill="none" stroke="rgb(221,221,221)" stroke-linejoin="round" d="M 26721,4073 L 3580,4073"/>
 <path fill="none" stroke="rgb(221,221,221)" stroke-linejoin="round" d="M 26721,2908 L 3580,2908"/>
 <path fill="none" stroke="rgb(221,221,221)" stroke-linejoin="round" d="M 26721,1743 L 3580,1743"/>
 <path fill="none" stroke="rgb(179,179,179)" stroke-linejoin="round" d="M 3580,8301 L 3580,8151"/>
 <path fill="none" stroke="rgb(179,179,179)" stroke-linejoin="round" d="M 3580,8301 L 3580,8151"/>
 <path fill="none" stroke="rgb(179,179,179)" stroke-linejoin="round" d="M 9365,8301 L 9365,8151"/>
 <path fill="none" stroke="rgb(179,179,179)" stroke-linejoin="round" d="M 9365,8301 L 9365,8151"/>
 <path fill="none" stroke="rgb(179,179,179)" stroke-linejoin="round" d="M 15150,8301 L 15150,8151"/>
 <path fill="none" stroke="rgb(179,179,179)" stroke-linejoin="round" d="M 15150,8301 L 15150,8151"/>
 <path fill="none" stroke="rgb(179,179,179)" stroke-linejoin="round" d="M 20935,8301 L 20935,8151"/>
 <path fill="none" stroke="rgb(179,179,179)" stroke-linejoin="round" d="M 20935,8301 L 20935,8151"/>
 <path fill="none" stroke="rgb(179,179,179)" stroke-linejoin="round" d="M 26721,8301 L 26721,8151"/>
 <path fill="none" stroke="rgb(179,179,179)" stroke-linejoin="round" d="M 26721,8301 L 26721,8151"/>
 <path fill="none" stroke="rgb(179,179,179)" stroke-linejoin="round" d="M 3580,8151 L 26721,8151"/>
 <path fill="none" stroke="rgb(179,179,179)" stroke-linejoin="round" d="M 3430,8151 L 3580,8151"/>
 <path fill="none" stroke="rgb(179,179,179)" stroke-linejoin="round" d="M 3430,8151 L 3580,8151"/>
 <path fill="none" stroke="rgb(179,179,179)" stroke-linejoin="round" d="M 3430,6985 L 3580,6985"/>
 <path fill="none" stroke="rgb(179,179,179)" stroke-linejoin="round" d="M 3430,6985 L 3580,6985"/>
 <path fill="none" stroke="rgb(179,179,179)" stroke-linejoin="round" d="M 3430,5820 L 3580,5820"/>
 <path fill="none" stroke="rgb(179,179,179)" stroke-linejoin="round" d="M 3430,5820 L 3580,5820"/>
 <path fill="none" stroke="rgb(179,179,179)" stroke-linejoin="round" d="M 3430,4655 L 3580,4655"/>
 <path fill="none" stroke="rgb(179,179,179)" stroke-linejoin="round" d="M 3430,4655 L 3580,4655"/>
 <path fill="none" stroke="rgb(179,179,179)" stroke-linejoin="round" d="M 3430,3491 L 3580,3491"/>
 <path fill="none" stroke="rgb(179,179,179)" stroke-linejoin="round" d="M 3430,3491 L 3580,3491"/>
 <path fill="none" stroke="rgb(179,179,179)" stroke-linejoin="round" d="M 3430,2326 L 3580,2326"/>
 <path fill="none" stroke="rgb(179,179,179)" stroke-linejoin="round" d="M 3430,2326 L 3580,2326"/>
 <path fill="none" stroke="rgb(179,179,179)" stroke-linejoin="round" d="M 3430,1160 L 3580,1160"/>
 <path fill="none" stroke="rgb(179,179,179)" stroke-linejoin="round" d="M 3430,1160 L 3580,1160"/>
 <path fill="none" stroke="rgb(179,179,179)" stroke-linejoin="round" d="M 3580,8151 L 3580,1160"/>
 <path fill="rgb(0,69,134)" stroke="none" d="M 21348,8151 L 22175,8151 22175,2614 21348,2614 21348,8151 Z"/>
 <path fill="rgb(0,69,134)" stroke="none" d="M 15563,8151 L 16389,8151 16389,1783 15563,1783 15563,8151 Z"/>
 <path fill="rgb(0,69,134)" stroke="none" d="M 9778,8151 L 10605,8151 10605,3725 9778,3725 9778,8151 Z"/>
 <path fill="rgb(0,69,134)" stroke="none" d="M 3993,8151 L 4819,8151 4819,6274 3993,6274 3993,8151 Z"/>
 <path fill="rgb(255,66,14)" stroke="none" d="M 22175,8151 L 23001,8151 23001,2492 22175,2492 22175,8151 Z"/>
 <path fill="rgb(255,66,14)" stroke="none" d="M 16389,8151 L 17216,8151 17216,1830 16389,1830 16389,8151 Z"/>
 <path fill="rgb(255,66,14)" stroke="none" d="M 10605,8151 L 11431,8151 11431,3733 10605,3733 10605,8151 Z"/>
 <path fill="rgb(255,66,14)" stroke="none" d="M 4819,8151 L 5646,8151 5646,3012 4819,3012 4819,8151 Z"/>
 <path fill="rgb(255,211,32)" stroke="none" d="M 23001,8151 L 23828,8151 23828,6393 23001,6393 23001,8151 Z"/>
 <path fill="rgb(255,211,32)" stroke="none" d="M 17216,8151 L 18042,8151 18042,2459 17216,2459 17216,8151 Z"/>
 <path fill="rgb(255,211,32)" stroke="none" d="M 11431,8151 L 12258,8151 12258,7130 11431,7130 11431,8151 Z"/>
 <path fill="rgb(255,211,32)" stroke="none" d="M 5646,8151 L 6472,8151 6472,7992 5646,7992 5646,8151 Z"/>
 <path fill="rgb(87,157,28)" stroke="none" d="M 23828,8151 L 24654,8151 24654,6291 23828,6291 23828,8151 Z"/>
 <path fill="rgb(87,157,28)" stroke="none" d="M 18042,8151 L 18869,8151 18869,2456 18042,2456 18042,8151 Z"/>
 <path fill="rgb(87,157,28)" stroke="none" d="M 12258,8151 L 13084,8151 13084,7057 12258,7057 12258,8151 Z"/>
 <path fill="rgb(87,157,28)" stroke="none" d="M 6472,8151 L 7299,8151 7299,6719 6472,6719 6472,8151 Z"/>
 <path fill="rgb(191,0,50)" stroke="none" d="M 24654,8151 L 25481,8151 25481,5750 24654,5750 24654,8151 Z"/>
 <path fill="rgb(191,0,50)" stroke="none" d="M 18869,8151 L 19695,8151 19695,6399 18869,6399 18869,8151 Z"/>
 <path fill="rgb(191,0,50)" stroke="none" d="M 13084,8151 L 13910,8151 13910,7507 13084,7507 13084,8151 Z"/>
 <path fill="rgb(191,0,50)" stroke="none" d="M 7299,8151 L 8125,8151 8125,8034 7299,8034 7299,8151 Z"/>
 <path fill="rgb(131,202,255)" stroke="none" d="M 25481,8151 L 26307,8151 26307,5718 25481,5718 25481,8151 Z"/>
 <path fill="rgb(131,202,255)" stroke="none" d="M 19695,8151 L 20522,8151 20522,6255 19695,6255 19695,8151 Z"/>
 <path fill="rgb(131,202,255)" stroke="none" d="M 13910,8151 L 14736,8151 14736,7417 13910,7417 13910,8151 Z"/>
 <path fill="rgb(131,202,255)" stroke="none" d="M 8125,8151 L 8952,8151 8952,5853 8125,5853 8125,8151 Z"/>
 <text class="TextShape"><tspan class="TextParagraph" font-family="Liberation Sans, sans-serif" font-size="353px" font-weight="400"><tspan class="TextPosition" x="5466" y="8719"><tspan fill="rgb(0,0,0)" stroke="none">blackscholes</tspan></tspan></tspan></text>
 <text class="TextShape"><tspan class="TextParagraph" font-family="Liberation Sans, sans-serif" font-size="353px" font-weight="400"><tspan class="TextPosition" x="11477" y="8719"><tspan fill="rgb(0,0,0)" stroke="none">inversek2j</tspan></tspan></tspan></text>
 <text class="TextShape"><tspan class="TextParagraph" font-family="Liberation Sans, sans-serif" font-size="353px" font-weight="400"><tspan class="TextPosition" x="17434" y="8719"><tspan fill="rgb(0,0,0)" stroke="none">kmeans</tspan></tspan></tspan></text>
 <text class="TextShape"><tspan class="TextParagraph" font-family="Liberation Sans, sans-serif" font-size="353px" font-weight="400"><tspan class="TextPosition" x="23419" y="8719"><tspan fill="rgb(0,0,0)" stroke="none">sobel</tspan></tspan></tspan></text>
 <text class="TextShape"><tspan class="TextParagraph" font-family="Liberation Sans, sans-serif" font-size="353px" font-weight="400"><tspan class="TextPosition" x="1557" y="8272"><tspan fill="rgb(0,0,0)" stroke="none">0.00000000</tspan></tspan></tspan></text>
 <text class="TextShape"><tspan class="TextParagraph" font-family="Liberation Sans, sans-serif" font-size="353px" font-weight="400"><tspan class="TextPosition" x="1557" y="7106"><tspan fill="rgb(0,0,0)" stroke="none">0.05000000</tspan></tspan></tspan></text>
 <text class="TextShape"><tspan class="TextParagraph" font-family="Liberation Sans, sans-serif" font-size="353px" font-weight="400"><tspan class="TextPosition" x="1557" y="5941"><tspan fill="rgb(0,0,0)" stroke="none">0.10000000</tspan></tspan></tspan></text>
 <text class="TextShape"><tspan class="TextParagraph" font-family="Liberation Sans, sans-serif" font-size="353px" font-weight="400"><tspan class="TextPosition" x="1557" y="4776"><tspan fill="rgb(0,0,0)" stroke="none">0.15000000</tspan></tspan></tspan></text>
 <text class="TextShape"><tspan class="TextParagraph" font-family="Liberation Sans, sans-serif" font-size="353px" font-weight="400"><tspan class="TextPosition" x="1557" y="3611"><tspan fill="rgb(0,0,0)" stroke="none">0.20000000</tspan></tspan></tspan></text>
 <text class="TextShape"><tspan class="TextParagraph" font-family="Liberation Sans, sans-serif" font-size="353px" font-weight="400"><tspan class="TextPosition" x="1557" y="2446"><tspan fill="rgb(0,0,0)" stroke="none">0.25000000</tspan></tspan></tspan></text>
 <text class="TextShape"><tspan class="TextParagraph" font-family="Liberation Sans, sans-serif" font-size="353px" font-weight="400"><tspan class="TextPosition" x="1557" y="1280"><tspan fill="rgb(0,0,0)" stroke="none">0.30000000</tspan></tspan></tspan></text>
 <text class="TextShape" transform="rotate(-90 4527 8050)"><tspan class="TextParagraph" font-family="Liberation Sans, sans-serif" font-size="353px" font-weight="400"><tspan class="TextPosition" x="4527" y="8050"><tspan fill="rgb(0,0,0)" stroke="none">8.0541E-02</tspan></tspan></tspan></text>
 <text class="TextShape" transform="rotate(-90 10313 8050)"><tspan class="TextParagraph" font-family="Liberation Sans, sans-serif" font-size="353px" font-weight="400"><tspan class="TextPosition" x="10313" y="8050"><tspan fill="rgb(0,0,0)" stroke="none">1.8995E-01</tspan></tspan></tspan></text>
 <text class="TextShape" transform="rotate(-90 16097 8050)"><tspan class="TextParagraph" font-family="Liberation Sans, sans-serif" font-size="353px" font-weight="400"><tspan class="TextPosition" x="16097" y="8050"><tspan fill="rgb(0,0,0)" stroke="none">2.7331E-01</tspan></tspan></tspan></text>
 <text class="TextShape" transform="rotate(-90 21882 8050)"><tspan class="TextParagraph" font-family="Liberation Sans, sans-serif" font-size="353px" font-weight="400"><tspan class="TextPosition" x="21882" y="8050"><tspan fill="rgb(0,0,0)" stroke="none">2.3761E-01</tspan></tspan></tspan></text>
 <text class="TextShape" transform="rotate(-90 5353 8050)"><tspan class="TextParagraph" font-family="Liberation Sans, sans-serif" font-size="353px" font-weight="400"><tspan class="TextPosition" x="5353" y="8050"><tspan fill="rgb(0,0,0)" stroke="none">2.2057E-01</tspan></tspan></tspan></text>
 <text class="TextShape" transform="rotate(-90 11139 8050)"><tspan class="TextParagraph" font-family="Liberation Sans, sans-serif" font-size="353px" font-weight="400"><tspan class="TextPosition" x="11139" y="8050"><tspan fill="rgb(0,0,0)" stroke="none">1.8959E-01</tspan></tspan></tspan></text>
 <text class="TextShape" transform="rotate(-90 16924 8050)"><tspan class="TextParagraph" font-family="Liberation Sans, sans-serif" font-size="353px" font-weight="400"><tspan class="TextPosition" x="16924" y="8050"><tspan fill="rgb(0,0,0)" stroke="none">2.7127E-01</tspan></tspan></tspan></text>
 <text class="TextShape" transform="rotate(-90 22709 8050)"><tspan class="TextParagraph" font-family="Liberation Sans, sans-serif" font-size="353px" font-weight="400"><tspan class="TextPosition" x="22709" y="8050"><tspan fill="rgb(0,0,0)" stroke="none">2.4284E-01</tspan></tspan></tspan></text>
 <text class="TextShape" transform="rotate(-90 6180 8050)"><tspan class="TextParagraph" font-family="Liberation Sans, sans-serif" font-size="353px" font-weight="400"><tspan class="TextPosition" x="6180" y="8050"><tspan fill="rgb(0,0,0)" stroke="none">6.7920E-03</tspan></tspan></tspan></text>
 <text class="TextShape" transform="rotate(-90 11966 8050)"><tspan class="TextParagraph" font-family="Liberation Sans, sans-serif" font-size="353px" font-weight="400"><tspan class="TextPosition" x="11966" y="8050"><tspan fill="rgb(0,0,0)" stroke="none">4.3788E-02</tspan></tspan></tspan></text>
 <text class="TextShape" transform="rotate(-90 17750 8050)"><tspan class="TextParagraph" font-family="Liberation Sans, sans-serif" font-size="353px" font-weight="400"><tspan class="TextPosition" x="17750" y="8050"><tspan fill="rgb(0,0,0)" stroke="none">2.4427E-01</tspan></tspan></tspan></text>
 <text class="TextShape" transform="rotate(-90 23535 8050)"><tspan class="TextParagraph" font-family="Liberation Sans, sans-serif" font-size="353px" font-weight="400"><tspan class="TextPosition" x="23535" y="8050"><tspan fill="rgb(0,0,0)" stroke="none">7.5405E-02</tspan></tspan></tspan></text>
 <text class="TextShape" transform="rotate(-90 7007 8050)"><tspan class="TextParagraph" font-family="Liberation Sans, sans-serif" font-size="353px" font-weight="400"><tspan class="TextPosition" x="7007" y="8050"><tspan fill="rgb(0,0,0)" stroke="none">6.1415E-02</tspan></tspan></tspan></text>
 <text class="TextShape" transform="rotate(-90 12792 8050)"><tspan class="TextParagraph" font-family="Liberation Sans, sans-serif" font-size="353px" font-weight="400"><tspan class="TextPosition" x="12792" y="8050"><tspan fill="rgb(0,0,0)" stroke="none">4.6911E-02</tspan></tspan></tspan></text>
 <text class="TextShape" transform="rotate(-90 18577 8050)"><tspan class="TextParagraph" font-family="Liberation Sans, sans-serif" font-size="353px" font-weight="400"><tspan class="TextPosition" x="18577" y="8050"><tspan fill="rgb(0,0,0)" stroke="none">2.4442E-01</tspan></tspan></tspan></text>
 <text class="TextShape" transform="rotate(-90 24362 8050)"><tspan class="TextParagraph" font-family="Liberation Sans, sans-serif" font-size="353px" font-weight="400"><tspan class="TextPosition" x="24362" y="8050"><tspan fill="rgb(0,0,0)" stroke="none">7.9802E-02</tspan></tspan></tspan></text>
 <text class="TextShape" transform="rotate(-90 7833 8050)"><tspan class="TextParagraph" font-family="Liberation Sans, sans-serif" font-size="353px" font-weight="400"><tspan class="TextPosition" x="7833" y="8050"><tspan fill="rgb(0,0,0)" stroke="none">5.0205E-03</tspan></tspan></tspan></text>
 <text class="TextShape" transform="rotate(-90 13619 8050)"><tspan class="TextParagraph" font-family="Liberation Sans, sans-serif" font-size="353px" font-weight="400"><tspan class="TextPosition" x="13619" y="8050"><tspan fill="rgb(0,0,0)" stroke="none">2.7635E-02</tspan></tspan></tspan></text>
 <text class="TextShape" transform="rotate(-90 19403 8050)"><tspan class="TextParagraph" font-family="Liberation Sans, sans-serif" font-size="353px" font-weight="400"><tspan class="TextPosition" x="19403" y="8050"><tspan fill="rgb(0,0,0)" stroke="none">7.5181E-02</tspan></tspan></tspan></text>
 <text class="TextShape" transform="rotate(-90 25188 8050)"><tspan class="TextParagraph" font-family="Liberation Sans, sans-serif" font-size="353px" font-weight="400"><tspan class="TextPosition" x="25188" y="8050"><tspan fill="rgb(0,0,0)" stroke="none">1.0303E-01</tspan></tspan></tspan></text>
 <text class="TextShape" transform="rotate(-90 8659 8050)"><tspan class="TextParagraph" font-family="Liberation Sans, sans-serif" font-size="353px" font-weight="400"><tspan class="TextPosition" x="8659" y="8050"><tspan fill="rgb(0,0,0)" stroke="none">9.8594E-02</tspan></tspan></tspan></text>
 <text class="TextShape" transform="rotate(-90 14444 8050)"><tspan class="TextParagraph" font-family="Liberation Sans, sans-serif" font-size="353px" font-weight="400"><tspan class="TextPosition" x="14444" y="8050"><tspan fill="rgb(0,0,0)" stroke="none">3.1465E-02</tspan></tspan></tspan></text>
 <text class="TextShape" transform="rotate(-90 20230 8050)"><tspan class="TextParagraph" font-family="Liberation Sans, sans-serif" font-size="353px" font-weight="400"><tspan class="TextPosition" x="20230" y="8050"><tspan fill="rgb(0,0,0)" stroke="none">8.1356E-02</tspan></tspan></tspan></text>
 <text class="TextShape" transform="rotate(-90 26015 8050)"><tspan class="TextParagraph" font-family="Liberation Sans, sans-serif" font-size="353px" font-weight="400"><tspan class="TextPosition" x="26015" y="8050"><tspan fill="rgb(0,0,0)" stroke="none">1.0437E-01</tspan></tspan></tspan></text>
 <path fill="rgb(0,69,134)" stroke="none" d="M 5869,589 L 5764,589 5764,378 5975,378 5975,589 5869,589 Z"/>
 <path fill="rgb(255,66,14)" stroke="none" d="M 8213,589 L 8108,589 8108,378 8319,378 8319,589 8213,589 Z"/>
 <path fill="rgb(255,211,32)" stroke="none" d="M 11192,589 L 11087,589 11087,378 11298,378 11298,589 11192,589 Z"/>
 <path fill="rgb(87,157,28)" stroke="none" d="M 13536,589 L 13431,589 13431,378 13641,378 13641,589 13536,589 Z"/>
 <path fill="rgb(191,0,50)" stroke="none" d="M 16515,589 L 16409,589 16409,378 16620,378 16620,589 16515,589 Z"/>
 <path fill="rgb(131,202,255)" stroke="none" d="M 18859,589 L 18753,589 18753,378 18964,378 18964,589 18859,589 Z"/>
 <text class="TextShape"><tspan class="TextParagraph" font-family="Liberation Sans, sans-serif" font-size="353px" font-weight="400"><tspan class="TextPosition" x="6075" y="603"><tspan fill="rgb(0,0,0)" stroke="none">CPU (NN 1)</tspan></tspan></tspan></text>
 <text class="TextShape"><tspan class="TextParagraph" font-family="Liberation Sans, sans-serif" font-size="353px" font-weight="400"><tspan class="TextPosition" x="8419" y="603"><tspan fill="rgb(0,0,0)" stroke="none">MYRIAD (NN 1)</tspan></tspan></tspan></text>
 <text class="TextShape"><tspan class="TextParagraph" font-family="Liberation Sans, sans-serif" font-size="353px" font-weight="400"><tspan class="TextPosition" x="11398" y="603"><tspan fill="rgb(0,0,0)" stroke="none">CPU (NN 2)</tspan></tspan></tspan></text>
 <text class="TextShape"><tspan class="TextParagraph" font-family="Liberation Sans, sans-serif" font-size="353px" font-weight="400"><tspan class="TextPosition" x="13741" y="603"><tspan fill="rgb(0,0,0)" stroke="none">MYRIAD (NN 2)</tspan></tspan></tspan></text>
 <text class="TextShape"><tspan class="TextParagraph" font-family="Liberation Sans, sans-serif" font-size="353px" font-weight="400"><tspan class="TextPosition" x="16720" y="603"><tspan fill="rgb(0,0,0)" stroke="none">CPU (NN 3)</tspan></tspan></tspan></text>
 <text class="TextShape"><tspan class="TextParagraph" font-family="Liberation Sans, sans-serif" font-size="353px" font-weight="400"><tspan class="TextPosition" x="19064" y="603"><tspan fill="rgb(0,0,0)" stroke="none">MYRIAD (NN 3)</tspan></tspan></tspan></text>
 <text class="TextShape" transform="rotate(-90 837 5224)"><tspan class="TextParagraph" font-family="Liberation Sans, sans-serif" font-size="318px" font-weight="400"><tspan class="TextPosition" x="837" y="5224"><tspan fill="rgb(0,0,0)" stroke="none">MSE</tspan></tspan></tspan></text>
</svg>