<?xml version="1.0" encoding="UTF-8"?>
<!DOCTYPE svg PUBLIC "-//W3C//DTD SVG 1.1//EN" "http://www.w3.org/Graphics/SVG/1.1/DTD/svg11.dtd">
<svg width="273mm" height="90mm" viewBox="0 0 27300 9000" version="1.1" xmlns="http://www.w3.org/2000/svg" xmlns:xlink="http://www.w3.org/1999/xlink" stroke-width="28.222" stroke-linejoin="round" xml:space="preserve">
 <path fill="rgb(255,255,255)" stroke="none" d="M 13639,8984 L 0,8984 0,0 27278,0 27278,8984 13639,8984 Z"/>
 <path fill="none" stroke="rgb(179,179,179)" stroke-linejoin="round" d="M 14786,8158 L 2839,8158 2839,1161 26733,1161 26733,8158 14786,8158 Z"/>
 <path fill="none" stroke="rgb(179,179,179)" stroke-linejoin="round" d="M 26733,8157 L 2839,8157"/>
 <path fill="none" stroke="rgb(179,179,179)" stroke-linejoin="round" d="M 26733,5824 L 2839,5824"/>
 <path fill="none" stroke="rgb(179,179,179)" stroke-linejoin="round" d="M 26733,3492 L 2839,3492"/>
 <path fill="none" stroke="rgb(179,179,179)" stroke-linejoin="round" d="M 26733,1160 L 2839,1160"/>
 <path fill="none" stroke="rgb(221,221,221)" stroke-linejoin="round" d="M 26733,7454 L 2839,7454"/>
 <path fill="none" stroke="rgb(221,221,221)" stroke-linejoin="round" d="M 26733,7044 L 2839,7044"/>
 <path fill="none" stroke="rgb(221,221,221)" stroke-linejoin="round" d="M 26733,6752 L 2839,6752"/>
 <path fill="none" stroke="rgb(221,221,221)" stroke-linejoin="round" d="M 26733,6526 L 2839,6526"/>
 <path fill="none" stroke="rgb(221,221,221)" stroke-linejoin="round" d="M 26733,6341 L 2839,6341"/>
 <path fill="none" stroke="rgb(221,221,221)" stroke-linejoin="round" d="M 26733,6185 L 2839,6185"/>
 <path fill="none" stroke="rgb(221,221,221)" stroke-linejoin="round" d="M 26733,6050 L 2839,6050"/>
 <path fill="none" stroke="rgb(221,221,221)" stroke-linejoin="round" d="M 26733,5931 L 2839,5931"/>
 <path fill="none" stroke="rgb(221,221,221)" stroke-linejoin="round" d="M 26733,5122 L 2839,5122"/>
 <path fill="none" stroke="rgb(221,221,221)" stroke-linejoin="round" d="M 26733,4711 L 2839,4711"/>
 <path fill="none" stroke="rgb(221,221,221)" stroke-linejoin="round" d="M 26733,4420 L 2839,4420"/>
 <path fill="none" stroke="rgb(221,221,221)" stroke-linejoin="round" d="M 26733,4194 L 2839,4194"/>
 <path fill="none" stroke="rgb(221,221,221)" stroke-linejoin="round" d="M 26733,4010 L 2839,4010"/>
 <path fill="none" stroke="rgb(221,221,221)" stroke-linejoin="round" d="M 26733,3854 L 2839,3854"/>
 <path fill="none" stroke="rgb(221,221,221)" stroke-linejoin="round" d="M 26733,3718 L 2839,3718"/>
 <path fill="none" stroke="rgb(221,221,221)" stroke-linejoin="round" d="M 26733,3599 L 2839,3599"/>
 <path fill="none" stroke="rgb(221,221,221)" stroke-linejoin="round" d="M 26733,2790 L 2839,2790"/>
 <path fill="none" stroke="rgb(221,221,221)" stroke-linejoin="round" d="M 26733,2379 L 2839,2379"/>
 <path fill="none" stroke="rgb(221,221,221)" stroke-linejoin="round" d="M 26733,2088 L 2839,2088"/>
 <path fill="none" stroke="rgb(221,221,221)" stroke-linejoin="round" d="M 26733,1862 L 2839,1862"/>
 <path fill="none" stroke="rgb(221,221,221)" stroke-linejoin="round" d="M 26733,1677 L 2839,1677"/>
 <path fill="none" stroke="rgb(221,221,221)" stroke-linejoin="round" d="M 26733,1521 L 2839,1521"/>
 <path fill="none" stroke="rgb(221,221,221)" stroke-linejoin="round" d="M 26733,1386 L 2839,1386"/>
 <path fill="none" stroke="rgb(221,221,221)" stroke-linejoin="round" d="M 26733,1266 L 2839,1266"/>
 <path fill="none" stroke="rgb(179,179,179)" stroke-linejoin="round" d="M 2839,8307 L 2839,8157"/>
 <path fill="none" stroke="rgb(179,179,179)" stroke-linejoin="round" d="M 2839,8307 L 2839,8157"/>
 <path fill="none" stroke="rgb(179,179,179)" stroke-linejoin="round" d="M 7618,8307 L 7618,8157"/>
 <path fill="none" stroke="rgb(179,179,179)" stroke-linejoin="round" d="M 7618,8307 L 7618,8157"/>
 <path fill="none" stroke="rgb(179,179,179)" stroke-linejoin="round" d="M 12397,8307 L 12397,8157"/>
 <path fill="none" stroke="rgb(179,179,179)" stroke-linejoin="round" d="M 12397,8307 L 12397,8157"/>
 <path fill="none" stroke="rgb(179,179,179)" stroke-linejoin="round" d="M 17175,8307 L 17175,8157"/>
 <path fill="none" stroke="rgb(179,179,179)" stroke-linejoin="round" d="M 17175,8307 L 17175,8157"/>
 <path fill="none" stroke="rgb(179,179,179)" stroke-linejoin="round" d="M 21954,8307 L 21954,8157"/>
 <path fill="none" stroke="rgb(179,179,179)" stroke-linejoin="round" d="M 21954,8307 L 21954,8157"/>
 <path fill="none" stroke="rgb(179,179,179)" stroke-linejoin="round" d="M 26733,8307 L 26733,8157"/>
 <path fill="none" stroke="rgb(179,179,179)" stroke-linejoin="round" d="M 26733,8307 L 26733,8157"/>
 <path fill="none" stroke="rgb(179,179,179)" stroke-linejoin="round" d="M 2839,8157 L 26733,8157"/>
 <path fill="none" stroke="rgb(179,179,179)" stroke-linejoin="round" d="M 2689,8157 L 2839,8157"/>
 <path fill="none" stroke="rgb(179,179,179)" stroke-linejoin="round" d="M 2689,8157 L 2839,8157"/>
 <path fill="none" stroke="rgb(179,179,179)" stroke-linejoin="round" d="M 2689,5824 L 2839,5824"/>
 <path fill="none" stroke="rgb(179,179,179)" stroke-linejoin="round" d="M 2689,5824 L 2839,5824"/>
 <path fill="none" stroke="rgb(179,179,179)" stroke-linejoin="round" d="M 2689,3492 L 2839,3492"/>
 <path fill="none" stroke="rgb(179,179,179)" stroke-linejoin="round" d="M 2689,3492 L 2839,3492"/>
 <path fill="none" stroke="rgb(179,179,179)" stroke-linejoin="round" d="M 2689,1160 L 2839,1160"/>
 <path fill="none" stroke="rgb(179,179,179)" stroke-linejoin="round" d="M 2689,1160 L 2839,1160"/>
 <path fill="none" stroke="rgb(179,179,179)" stroke-linejoin="round" d="M 2839,8157 L 2839,1160"/>
 <path fill="rgb(0,69,134)" stroke="none" d="M 22295,8157 L 22978,8157 22978,6477 22295,6477 22295,8157 Z"/>
 <path fill="rgb(0,69,134)" stroke="none" d="M 17516,8157 L 18199,8157 18199,4064 17516,4064 17516,8157 Z"/>
 <path fill="rgb(0,69,134)" stroke="none" d="M 12738,8157 L 13421,8157 13421,6310 12738,6310 12738,8157 Z"/>
 <path fill="rgb(0,69,134)" stroke="none" d="M 7959,8157 L 8642,8157 8642,7838 7959,7838 7959,8157 Z"/>
 <path fill="rgb(0,69,134)" stroke="none" d="M 3180,8157 L 3863,8157 3863,6929 3180,6929 3180,8157 Z"/>
 <path fill="rgb(255,66,14)" stroke="none" d="M 22978,8157 L 23660,8157 23660,4572 22978,4572 22978,8157 Z"/>
 <path fill="rgb(255,66,14)" stroke="none" d="M 18199,8157 L 18881,8157 18881,2132 18199,2132 18199,8157 Z"/>
 <path fill="rgb(255,66,14)" stroke="none" d="M 13421,8157 L 14102,8157 14102,3606 13421,3606 13421,8157 Z"/>
 <path fill="rgb(255,66,14)" stroke="none" d="M 8642,8157 L 9324,8157 9324,5624 8642,5624 8642,8157 Z"/>
 <path fill="rgb(255,66,14)" stroke="none" d="M 3863,8157 L 4545,8157 4545,4845 3863,4845 3863,8157 Z"/>
 <path fill="rgb(255,211,32)" stroke="none" d="M 23660,8157 L 24343,8157 24343,6366 23660,6366 23660,8157 Z"/>
 <path fill="rgb(255,211,32)" stroke="none" d="M 18881,8157 L 19564,8157 19564,4065 18881,4065 18881,8157 Z"/>
 <path fill="rgb(255,211,32)" stroke="none" d="M 14102,8157 L 14785,8157 14785,6218 14102,6218 14102,8157 Z"/>
 <path fill="rgb(255,211,32)" stroke="none" d="M 9324,8157 L 10007,8157 10007,7635 9324,7635 9324,8157 Z"/>
 <path fill="rgb(255,211,32)" stroke="none" d="M 4545,8157 L 5228,8157 5228,6448 4545,6448 4545,8157 Z"/>
 <path fill="rgb(87,157,28)" stroke="none" d="M 24343,8157 L 25026,8157 25026,4319 24343,4319 24343,8157 Z"/>
 <path fill="rgb(87,157,28)" stroke="none" d="M 19564,8157 L 20247,8157 20247,2139 19564,2139 19564,8157 Z"/>
 <path fill="rgb(87,157,28)" stroke="none" d="M 14785,8157 L 15468,8157 15468,3563 14785,3563 14785,8157 Z"/>
 <path fill="rgb(87,157,28)" stroke="none" d="M 10007,8157 L 10690,8157 10690,5669 10007,5669 10007,8157 Z"/>
 <path fill="rgb(87,157,28)" stroke="none" d="M 5228,8157 L 5911,8157 5911,4769 5228,4769 5228,8157 Z"/>
 <path fill="rgb(126,0,33)" stroke="none" d="M 25026,8157 L 25708,8157 25708,6303 25026,6303 25026,8157 Z"/>
 <path fill="rgb(126,0,33)" stroke="none" d="M 20247,8157 L 20929,8157 20929,4063 20247,4063 20247,8157 Z"/>
 <path fill="rgb(126,0,33)" stroke="none" d="M 15468,8157 L 16150,8157 16150,6145 15468,6145 15468,8157 Z"/>
 <path fill="rgb(126,0,33)" stroke="none" d="M 10690,8157 L 11372,8157 11372,7554 10690,7554 10690,8157 Z"/>
 <path fill="rgb(126,0,33)" stroke="none" d="M 5911,8157 L 6593,8157 6593,6257 5911,6257 5911,8157 Z"/>
 <path fill="rgb(131,202,255)" stroke="none" d="M 25708,8157 L 26391,8157 26391,4062 25708,4062 25708,8157 Z"/>
 <path fill="rgb(131,202,255)" stroke="none" d="M 20929,8157 L 21612,8157 21612,2134 20929,2134 20929,8157 Z"/>
 <path fill="rgb(131,202,255)" stroke="none" d="M 16150,8157 L 16833,8157 16833,3502 16150,3502 16150,8157 Z"/>
 <path fill="rgb(131,202,255)" stroke="none" d="M 11372,8157 L 12055,8157 12055,5580 11372,5580 11372,8157 Z"/>
 <path fill="rgb(131,202,255)" stroke="none" d="M 6593,8157 L 7276,8157 7276,4607 6593,4607 6593,8157 Z"/>
 <text class="TextShape"><tspan class="TextParagraph" font-family="Liberation Sans, sans-serif" font-size="353px" font-weight="400"><tspan class="TextPosition" x="4222" y="8725"><tspan fill="rgb(0,0,0)" stroke="none">blackscholes</tspan></tspan></tspan></text>
 <text class="TextShape"><tspan class="TextParagraph" font-family="Liberation Sans, sans-serif" font-size="353px" font-weight="400"><tspan class="TextPosition" x="9226" y="8725"><tspan fill="rgb(0,0,0)" stroke="none">inversek2j</tspan></tspan></tspan></text>
 <text class="TextShape"><tspan class="TextParagraph" font-family="Liberation Sans, sans-serif" font-size="353px" font-weight="400"><tspan class="TextPosition" x="14323" y="8725"><tspan fill="rgb(0,0,0)" stroke="none">jmeint</tspan></tspan></tspan></text>
 <text class="TextShape"><tspan class="TextParagraph" font-family="Liberation Sans, sans-serif" font-size="353px" font-weight="400"><tspan class="TextPosition" x="18956" y="8725"><tspan fill="rgb(0,0,0)" stroke="none">kmeans</tspan></tspan></tspan></text>
 <text class="TextShape"><tspan class="TextParagraph" font-family="Liberation Sans, sans-serif" font-size="353px" font-weight="400"><tspan class="TextPosition" x="23934" y="8725"><tspan fill="rgb(0,0,0)" stroke="none">sobel</tspan></tspan></tspan></text>
 <text class="TextShape"><tspan class="TextParagraph" font-family="Liberation Sans, sans-serif" font-size="353px" font-weight="400"><tspan class="TextPosition" x="1928" y="8278"><tspan fill="rgb(0,0,0)" stroke="none">0.10</tspan></tspan></tspan></text>
 <text class="TextShape"><tspan class="TextParagraph" font-family="Liberation Sans, sans-serif" font-size="353px" font-weight="400"><tspan class="TextPosition" x="1928" y="5945"><tspan fill="rgb(0,0,0)" stroke="none">1.00</tspan></tspan></tspan></text>
 <text class="TextShape"><tspan class="TextParagraph" font-family="Liberation Sans, sans-serif" font-size="353px" font-weight="400"><tspan class="TextPosition" x="1742" y="3612"><tspan fill="rgb(0,0,0)" stroke="none">10.00</tspan></tspan></tspan></text>
 <text class="TextShape"><tspan class="TextParagraph" font-family="Liberation Sans, sans-serif" font-size="353px" font-weight="400"><tspan class="TextPosition" x="1557" y="1280"><tspan fill="rgb(0,0,0)" stroke="none">100.00</tspan></tspan></tspan></text>
 <text class="TextShape"><tspan class="TextParagraph" font-family="Liberation Sans, sans-serif" font-size="353px" font-weight="400"><tspan class="TextPosition" x="3190" y="6751"><tspan fill="rgb(0,0,0)" stroke="none">0.34</tspan></tspan></tspan></text>
 <text class="TextShape"><tspan class="TextParagraph" font-family="Liberation Sans, sans-serif" font-size="353px" font-weight="400"><tspan class="TextPosition" x="7969" y="7660"><tspan fill="rgb(0,0,0)" stroke="none">0.14</tspan></tspan></tspan></text>
 <text class="TextShape"><tspan class="TextParagraph" font-family="Liberation Sans, sans-serif" font-size="353px" font-weight="400"><tspan class="TextPosition" x="12748" y="6132"><tspan fill="rgb(0,0,0)" stroke="none">0.62</tspan></tspan></tspan></text>
 <text class="TextShape"><tspan class="TextParagraph" font-family="Liberation Sans, sans-serif" font-size="353px" font-weight="400"><tspan class="TextPosition" x="17527" y="3886"><tspan fill="rgb(0,0,0)" stroke="none">5.69</tspan></tspan></tspan></text>
 <text class="TextShape"><tspan class="TextParagraph" font-family="Liberation Sans, sans-serif" font-size="353px" font-weight="400"><tspan class="TextPosition" x="22306" y="6299"><tspan fill="rgb(0,0,0)" stroke="none">0.52</tspan></tspan></tspan></text>
 <text class="TextShape"><tspan class="TextParagraph" font-family="Liberation Sans, sans-serif" font-size="353px" font-weight="400"><tspan class="TextPosition" x="3873" y="4667"><tspan fill="rgb(0,0,0)" stroke="none">2.63</tspan></tspan></tspan></text>
 <text class="TextShape"><tspan class="TextParagraph" font-family="Liberation Sans, sans-serif" font-size="353px" font-weight="400"><tspan class="TextPosition" x="8652" y="5446"><tspan fill="rgb(0,0,0)" stroke="none">1.22</tspan></tspan></tspan></text>
 <text class="TextShape"><tspan class="TextParagraph" font-family="Liberation Sans, sans-serif" font-size="353px" font-weight="400"><tspan class="TextPosition" x="13431" y="3428"><tspan fill="rgb(0,0,0)" stroke="none">8.94</tspan></tspan></tspan></text>
 <text class="TextShape"><tspan class="TextParagraph" font-family="Liberation Sans, sans-serif" font-size="353px" font-weight="400"><tspan class="TextPosition" x="18117" y="1954"><tspan fill="rgb(0,0,0)" stroke="none">38.28</tspan></tspan></tspan></text>
 <text class="TextShape"><tspan class="TextParagraph" font-family="Liberation Sans, sans-serif" font-size="353px" font-weight="400"><tspan class="TextPosition" x="22989" y="4395"><tspan fill="rgb(0,0,0)" stroke="none">3.44</tspan></tspan></tspan></text>
 <text class="TextShape"><tspan class="TextParagraph" font-family="Liberation Sans, sans-serif" font-size="353px" font-weight="400"><tspan class="TextPosition" x="4556" y="6270"><tspan fill="rgb(0,0,0)" stroke="none">0.54</tspan></tspan></tspan></text>
 <text class="TextShape"><tspan class="TextParagraph" font-family="Liberation Sans, sans-serif" font-size="353px" font-weight="400"><tspan class="TextPosition" x="9335" y="7457"><tspan fill="rgb(0,0,0)" stroke="none">0.17</tspan></tspan></tspan></text>
 <text class="TextShape"><tspan class="TextParagraph" font-family="Liberation Sans, sans-serif" font-size="353px" font-weight="400"><tspan class="TextPosition" x="14114" y="6040"><tspan fill="rgb(0,0,0)" stroke="none">0.68</tspan></tspan></tspan></text>
 <text class="TextShape"><tspan class="TextParagraph" font-family="Liberation Sans, sans-serif" font-size="353px" font-weight="400"><tspan class="TextPosition" x="18893" y="3887"><tspan fill="rgb(0,0,0)" stroke="none">5.68</tspan></tspan></tspan></text>
 <text class="TextShape"><tspan class="TextParagraph" font-family="Liberation Sans, sans-serif" font-size="353px" font-weight="400"><tspan class="TextPosition" x="23672" y="6188"><tspan fill="rgb(0,0,0)" stroke="none">0.59</tspan></tspan></tspan></text>
 <text class="TextShape"><tspan class="TextParagraph" font-family="Liberation Sans, sans-serif" font-size="353px" font-weight="400"><tspan class="TextPosition" x="5238" y="4591"><tspan fill="rgb(0,0,0)" stroke="none">2.83</tspan></tspan></tspan></text>
 <text class="TextShape"><tspan class="TextParagraph" font-family="Liberation Sans, sans-serif" font-size="353px" font-weight="400"><tspan class="TextPosition" x="10017" y="5491"><tspan fill="rgb(0,0,0)" stroke="none">1.16</tspan></tspan></tspan></text>
 <text class="TextShape"><tspan class="TextParagraph" font-family="Liberation Sans, sans-serif" font-size="353px" font-weight="400"><tspan class="TextPosition" x="14796" y="3385"><tspan fill="rgb(0,0,0)" stroke="none">9.33</tspan></tspan></tspan></text>
 <text class="TextShape"><tspan class="TextParagraph" font-family="Liberation Sans, sans-serif" font-size="353px" font-weight="400"><tspan class="TextPosition" x="19482" y="1961"><tspan fill="rgb(0,0,0)" stroke="none">38.02</tspan></tspan></tspan></text>
 <text class="TextShape"><tspan class="TextParagraph" font-family="Liberation Sans, sans-serif" font-size="353px" font-weight="400"><tspan class="TextPosition" x="24354" y="4141"><tspan fill="rgb(0,0,0)" stroke="none">4.42</tspan></tspan></tspan></text>
 <text class="TextShape"><tspan class="TextParagraph" font-family="Liberation Sans, sans-serif" font-size="353px" font-weight="400"><tspan class="TextPosition" x="5921" y="6079"><tspan fill="rgb(0,0,0)" stroke="none">0.65</tspan></tspan></tspan></text>
 <text class="TextShape"><tspan class="TextParagraph" font-family="Liberation Sans, sans-serif" font-size="353px" font-weight="400"><tspan class="TextPosition" x="10700" y="7376"><tspan fill="rgb(0,0,0)" stroke="none">0.18</tspan></tspan></tspan></text>
 <text class="TextShape"><tspan class="TextParagraph" font-family="Liberation Sans, sans-serif" font-size="353px" font-weight="400"><tspan class="TextPosition" x="15479" y="5967"><tspan fill="rgb(0,0,0)" stroke="none">0.73</tspan></tspan></tspan></text>
 <text class="TextShape"><tspan class="TextParagraph" font-family="Liberation Sans, sans-serif" font-size="353px" font-weight="400"><tspan class="TextPosition" x="20258" y="3885"><tspan fill="rgb(0,0,0)" stroke="none">5.69</tspan></tspan></tspan></text>
 <text class="TextShape"><tspan class="TextParagraph" font-family="Liberation Sans, sans-serif" font-size="353px" font-weight="400"><tspan class="TextPosition" x="25037" y="6125"><tspan fill="rgb(0,0,0)" stroke="none">0.62</tspan></tspan></tspan></text>
 <text class="TextShape"><tspan class="TextParagraph" font-family="Liberation Sans, sans-serif" font-size="353px" font-weight="400"><tspan class="TextPosition" x="6604" y="4430"><tspan fill="rgb(0,0,0)" stroke="none">3.32</tspan></tspan></tspan></text>
 <text class="TextShape"><tspan class="TextParagraph" font-family="Liberation Sans, sans-serif" font-size="353px" font-weight="400"><tspan class="TextPosition" x="11383" y="5402"><tspan fill="rgb(0,0,0)" stroke="none">1.27</tspan></tspan></tspan></text>
 <text class="TextShape"><tspan class="TextParagraph" font-family="Liberation Sans, sans-serif" font-size="353px" font-weight="400"><tspan class="TextPosition" x="16162" y="3324"><tspan fill="rgb(0,0,0)" stroke="none">9.90</tspan></tspan></tspan></text>
 <text class="TextShape"><tspan class="TextParagraph" font-family="Liberation Sans, sans-serif" font-size="353px" font-weight="400"><tspan class="TextPosition" x="20848" y="1956"><tspan fill="rgb(0,0,0)" stroke="none">38.21</tspan></tspan></tspan></text>
 <text class="TextShape"><tspan class="TextParagraph" font-family="Liberation Sans, sans-serif" font-size="353px" font-weight="400"><tspan class="TextPosition" x="25720" y="3884"><tspan fill="rgb(0,0,0)" stroke="none">5.70</tspan></tspan></tspan></text>
 <path fill="rgb(0,69,134)" stroke="none" d="M 5875,589 L 5770,589 5770,378 5981,378 5981,589 5875,589 Z"/>
 <path fill="rgb(255,66,14)" stroke="none" d="M 8219,589 L 8114,589 8114,378 8325,378 8325,589 8219,589 Z"/>
 <path fill="rgb(255,211,32)" stroke="none" d="M 11198,589 L 11093,589 11093,378 11304,378 11304,589 11198,589 Z"/>
 <path fill="rgb(87,157,28)" stroke="none" d="M 13542,589 L 13437,589 13437,378 13647,378 13647,589 13542,589 Z"/>
 <path fill="rgb(126,0,33)" stroke="none" d="M 16521,589 L 16415,589 16415,378 16626,378 16626,589 16521,589 Z"/>
 <path fill="rgb(131,202,255)" stroke="none" d="M 18865,589 L 18759,589 18759,378 18970,378 18970,589 18865,589 Z"/>
 <text class="TextShape"><tspan class="TextParagraph" font-family="Liberation Sans, sans-serif" font-size="353px" font-weight="400"><tspan class="TextPosition" x="6081" y="603"><tspan fill="rgb(0,0,0)" stroke="none">CPU (NN 1)</tspan></tspan></tspan></text>
 <text class="TextShape"><tspan class="TextParagraph" font-family="Liberation Sans, sans-serif" font-size="353px" font-weight="400"><tspan class="TextPosition" x="8425" y="603"><tspan fill="rgb(0,0,0)" stroke="none">MYRIAD (NN 1)</tspan></tspan></tspan></text>
 <text class="TextShape"><tspan class="TextParagraph" font-family="Liberation Sans, sans-serif" font-size="353px" font-weight="400"><tspan class="TextPosition" x="11404" y="603"><tspan fill="rgb(0,0,0)" stroke="none">CPU (NN 2)</tspan></tspan></tspan></text>
 <text class="TextShape"><tspan class="TextParagraph" font-family="Liberation Sans, sans-serif" font-size="353px" font-weight="400"><tspan class="TextPosition" x="13747" y="603"><tspan fill="rgb(0,0,0)" stroke="none">MYRIAD (NN 2)</tspan></tspan></tspan></text>
 <text class="TextShape"><tspan class="TextParagraph" font-family="Liberation Sans, sans-serif" font-size="353px" font-weight="400"><tspan class="TextPosition" x="16726" y="603"><tspan fill="rgb(0,0,0)" stroke="none">CPU (NN 3)</tspan></tspan></tspan></text>
 <text class="TextShape"><tspan class="TextParagraph" font-family="Liberation Sans, sans-serif" font-size="353px" font-weight="400"><tspan class="TextPosition" x="19070" y="603"><tspan fill="rgb(0,0,0)" stroke="none">MYRIAD (NN 3)</tspan></tspan></tspan></text>
 <text class="TextShape" transform="rotate(-90 837 6630)"><tspan class="TextParagraph" font-family="Liberation Sans, sans-serif" font-size="318px" font-weight="400"><tspan class="TextPosition" x="837" y="6630"><tspan fill="rgb(0,0,0)" stroke="none">Relative Execution Time</tspan></tspan></tspan></text>
</svg>