<?xml version="1.0" encoding="UTF-8"?>
<!DOCTYPE svg PUBLIC "-//W3C//DTD SVG 1.1//EN" "http://www.w3.org/Graphics/SVG/1.1/DTD/svg11.dtd">
<svg width="160mm" height="90mm" viewBox="0 0 16000 9000" version="1.1" xmlns="http://www.w3.org/2000/svg" xmlns:xlink="http://www.w3.org/1999/xlink" stroke-width="28.222" stroke-linejoin="round" xml:space="preserve">
 <path fill="rgb(255,255,255)" stroke="none" d="M 8000,8999 L 0,8999 0,0 15999,0 15999,8999 8000,8999 Z"/>
 <path fill="none" stroke="rgb(179,179,179)" stroke-linejoin="round" d="M 9146,8172 L 2614,8172 2614,1162 15679,1162 15679,8172 9146,8172 Z"/>
 <path fill="none" stroke="rgb(179,179,179)" stroke-linejoin="round" d="M 15679,8171 L 2614,8171"/>
 <path fill="none" stroke="rgb(179,179,179)" stroke-linejoin="round" d="M 15679,5834 L 2614,5834"/>
 <path fill="none" stroke="rgb(179,179,179)" stroke-linejoin="round" d="M 15679,3498 L 2614,3498"/>
 <path fill="none" stroke="rgb(179,179,179)" stroke-linejoin="round" d="M 15679,1161 L 2614,1161"/>
 <path fill="none" stroke="rgb(221,221,221)" stroke-linejoin="round" d="M 15679,7467 L 2614,7467"/>
 <path fill="none" stroke="rgb(221,221,221)" stroke-linejoin="round" d="M 15679,7055 L 2614,7055"/>
 <path fill="none" stroke="rgb(221,221,221)" stroke-linejoin="round" d="M 15679,6763 L 2614,6763"/>
 <path fill="none" stroke="rgb(221,221,221)" stroke-linejoin="round" d="M 15679,6537 L 2614,6537"/>
 <path fill="none" stroke="rgb(221,221,221)" stroke-linejoin="round" d="M 15679,6352 L 2614,6352"/>
 <path fill="none" stroke="rgb(221,221,221)" stroke-linejoin="round" d="M 15679,6196 L 2614,6196"/>
 <path fill="none" stroke="rgb(221,221,221)" stroke-linejoin="round" d="M 15679,6060 L 2614,6060"/>
 <path fill="none" stroke="rgb(221,221,221)" stroke-linejoin="round" d="M 15679,5940 L 2614,5940"/>
 <path fill="none" stroke="rgb(221,221,221)" stroke-linejoin="round" d="M 15679,5130 L 2614,5130"/>
 <path fill="none" stroke="rgb(221,221,221)" stroke-linejoin="round" d="M 15679,4718 L 2614,4718"/>
 <path fill="none" stroke="rgb(221,221,221)" stroke-linejoin="round" d="M 15679,4427 L 2614,4427"/>
 <path fill="none" stroke="rgb(221,221,221)" stroke-linejoin="round" d="M 15679,4201 L 2614,4201"/>
 <path fill="none" stroke="rgb(221,221,221)" stroke-linejoin="round" d="M 15679,4016 L 2614,4016"/>
 <path fill="none" stroke="rgb(221,221,221)" stroke-linejoin="round" d="M 15679,3860 L 2614,3860"/>
 <path fill="none" stroke="rgb(221,221,221)" stroke-linejoin="round" d="M 15679,3724 L 2614,3724"/>
 <path fill="none" stroke="rgb(221,221,221)" stroke-linejoin="round" d="M 15679,3604 L 2614,3604"/>
 <path fill="none" stroke="rgb(221,221,221)" stroke-linejoin="round" d="M 15679,2794 L 2614,2794"/>
 <path fill="none" stroke="rgb(221,221,221)" stroke-linejoin="round" d="M 15679,2382 L 2614,2382"/>
 <path fill="none" stroke="rgb(221,221,221)" stroke-linejoin="round" d="M 15679,2090 L 2614,2090"/>
 <path fill="none" stroke="rgb(221,221,221)" stroke-linejoin="round" d="M 15679,1864 L 2614,1864"/>
 <path fill="none" stroke="rgb(221,221,221)" stroke-linejoin="round" d="M 15679,1679 L 2614,1679"/>
 <path fill="none" stroke="rgb(221,221,221)" stroke-linejoin="round" d="M 15679,1523 L 2614,1523"/>
 <path fill="none" stroke="rgb(221,221,221)" stroke-linejoin="round" d="M 15679,1387 L 2614,1387"/>
 <path fill="none" stroke="rgb(221,221,221)" stroke-linejoin="round" d="M 15679,1267 L 2614,1267"/>
 <path fill="none" stroke="rgb(179,179,179)" stroke-linejoin="round" d="M 2614,8321 L 2614,8171"/>
 <path fill="none" stroke="rgb(179,179,179)" stroke-linejoin="round" d="M 2614,8321 L 2614,8171"/>
 <path fill="none" stroke="rgb(179,179,179)" stroke-linejoin="round" d="M 5227,8321 L 5227,8171"/>
 <path fill="none" stroke="rgb(179,179,179)" stroke-linejoin="round" d="M 5227,8321 L 5227,8171"/>
 <path fill="none" stroke="rgb(179,179,179)" stroke-linejoin="round" d="M 7840,8321 L 7840,8171"/>
 <path fill="none" stroke="rgb(179,179,179)" stroke-linejoin="round" d="M 7840,8321 L 7840,8171"/>
 <path fill="none" stroke="rgb(179,179,179)" stroke-linejoin="round" d="M 10452,8321 L 10452,8171"/>
 <path fill="none" stroke="rgb(179,179,179)" stroke-linejoin="round" d="M 10452,8321 L 10452,8171"/>
 <path fill="none" stroke="rgb(179,179,179)" stroke-linejoin="round" d="M 13065,8321 L 13065,8171"/>
 <path fill="none" stroke="rgb(179,179,179)" stroke-linejoin="round" d="M 13065,8321 L 13065,8171"/>
 <path fill="none" stroke="rgb(179,179,179)" stroke-linejoin="round" d="M 15679,8321 L 15679,8171"/>
 <path fill="none" stroke="rgb(179,179,179)" stroke-linejoin="round" d="M 15679,8321 L 15679,8171"/>
 <path fill="none" stroke="rgb(179,179,179)" stroke-linejoin="round" d="M 2614,8171 L 15679,8171"/>
 <path fill="none" stroke="rgb(179,179,179)" stroke-linejoin="round" d="M 2464,8171 L 2614,8171"/>
 <path fill="none" stroke="rgb(179,179,179)" stroke-linejoin="round" d="M 2464,8171 L 2614,8171"/>
 <path fill="none" stroke="rgb(179,179,179)" stroke-linejoin="round" d="M 2464,5834 L 2614,5834"/>
 <path fill="none" stroke="rgb(179,179,179)" stroke-linejoin="round" d="M 2464,5834 L 2614,5834"/>
 <path fill="none" stroke="rgb(179,179,179)" stroke-linejoin="round" d="M 2464,3498 L 2614,3498"/>
 <path fill="none" stroke="rgb(179,179,179)" stroke-linejoin="round" d="M 2464,3498 L 2614,3498"/>
 <path fill="none" stroke="rgb(179,179,179)" stroke-linejoin="round" d="M 2464,1161 L 2614,1161"/>
 <path fill="none" stroke="rgb(179,179,179)" stroke-linejoin="round" d="M 2464,1161 L 2614,1161"/>
 <path fill="none" stroke="rgb(179,179,179)" stroke-linejoin="round" d="M 2614,8171 L 2614,1161"/>
 <path fill="rgb(0,69,134)" stroke="none" d="M 13501,8171 L 14372,8171 14372,6488 13501,6488 13501,8171 Z"/>
 <path fill="rgb(0,69,134)" stroke="none" d="M 10888,8171 L 11759,8171 11759,4070 10888,4070 10888,8171 Z"/>
 <path fill="rgb(0,69,134)" stroke="none" d="M 8274,8171 L 9146,8171 9146,6321 8274,6321 8274,8171 Z"/>
 <path fill="rgb(0,69,134)" stroke="none" d="M 5662,8171 L 6533,8171 6533,7851 5662,7851 5662,8171 Z"/>
 <path fill="rgb(0,69,134)" stroke="none" d="M 3049,8171 L 3920,8171 3920,6940 3049,6940 3049,8171 Z"/>
 <path fill="rgb(255,66,14)" stroke="none" d="M 14372,8171 L 15243,8171 15243,4579 14372,4579 14372,8171 Z"/>
 <path fill="rgb(255,66,14)" stroke="none" d="M 11759,8171 L 12630,8171 12630,2135 11759,2135 11759,8171 Z"/>
 <path fill="rgb(255,66,14)" stroke="none" d="M 9146,8171 L 10017,8171 10017,3611 9146,3611 9146,8171 Z"/>
 <path fill="rgb(255,66,14)" stroke="none" d="M 6533,8171 L 7404,8171 7404,5633 6533,5633 6533,8171 Z"/>
 <path fill="rgb(255,66,14)" stroke="none" d="M 3920,8171 L 4791,8171 4791,4853 3920,4853 3920,8171 Z"/>
 <text class="TextShape"><tspan class="TextParagraph" font-family="Liberation Sans, sans-serif" font-size="353px" font-weight="400"><tspan class="TextPosition" x="2914" y="8739"><tspan fill="rgb(0,0,0)" stroke="none">blackscholes</tspan></tspan></tspan></text>
 <text class="TextShape"><tspan class="TextParagraph" font-family="Liberation Sans, sans-serif" font-size="353px" font-weight="400"><tspan class="TextPosition" x="5752" y="8739"><tspan fill="rgb(0,0,0)" stroke="none">inversek2j</tspan></tspan></tspan></text>
 <text class="TextShape"><tspan class="TextParagraph" font-family="Liberation Sans, sans-serif" font-size="353px" font-weight="400"><tspan class="TextPosition" x="8684" y="8739"><tspan fill="rgb(0,0,0)" stroke="none">jmeint</tspan></tspan></tspan></text>
 <text class="TextShape"><tspan class="TextParagraph" font-family="Liberation Sans, sans-serif" font-size="353px" font-weight="400"><tspan class="TextPosition" x="11151" y="8739"><tspan fill="rgb(0,0,0)" stroke="none">kmeans</tspan></tspan></tspan></text>
 <text class="TextShape"><tspan class="TextParagraph" font-family="Liberation Sans, sans-serif" font-size="353px" font-weight="400"><tspan class="TextPosition" x="13963" y="8739"><tspan fill="rgb(0,0,0)" stroke="none">sobel</tspan></tspan></tspan></text>
 <text class="TextShape"><tspan class="TextParagraph" font-family="Liberation Sans, sans-serif" font-size="353px" font-weight="400"><tspan class="TextPosition" x="1703" y="8292"><tspan fill="rgb(0,0,0)" stroke="none">0.10</tspan></tspan></tspan></text>
 <text class="TextShape"><tspan class="TextParagraph" font-family="Liberation Sans, sans-serif" font-size="353px" font-weight="400"><tspan class="TextPosition" x="1703" y="5955"><tspan fill="rgb(0,0,0)" stroke="none">1.00</tspan></tspan></tspan></text>
 <text class="TextShape"><tspan class="TextParagraph" font-family="Liberation Sans, sans-serif" font-size="353px" font-weight="400"><tspan class="TextPosition" x="1517" y="3618"><tspan fill="rgb(0,0,0)" stroke="none">10.00</tspan></tspan></tspan></text>
 <text class="TextShape"><tspan class="TextParagraph" font-family="Liberation Sans, sans-serif" font-size="353px" font-weight="400"><tspan class="TextPosition" x="1332" y="1281"><tspan fill="rgb(0,0,0)" stroke="none">100.00</tspan></tspan></tspan></text>
 <text class="TextShape"><tspan class="TextParagraph" font-family="Liberation Sans, sans-serif" font-size="353px" font-weight="400"><tspan class="TextPosition" x="3154" y="6762"><tspan fill="rgb(0,0,0)" stroke="none">0.34</tspan></tspan></tspan></text>
 <text class="TextShape"><tspan class="TextParagraph" font-family="Liberation Sans, sans-serif" font-size="353px" font-weight="400"><tspan class="TextPosition" x="5767" y="7673"><tspan fill="rgb(0,0,0)" stroke="none">0.14</tspan></tspan></tspan></text>
 <text class="TextShape"><tspan class="TextParagraph" font-family="Liberation Sans, sans-serif" font-size="353px" font-weight="400"><tspan class="TextPosition" x="8380" y="6143"><tspan fill="rgb(0,0,0)" stroke="none">0.62</tspan></tspan></tspan></text>
 <text class="TextShape"><tspan class="TextParagraph" font-family="Liberation Sans, sans-serif" font-size="353px" font-weight="400"><tspan class="TextPosition" x="10993" y="3892"><tspan fill="rgb(0,0,0)" stroke="none">5.69</tspan></tspan></tspan></text>
 <text class="TextShape"><tspan class="TextParagraph" font-family="Liberation Sans, sans-serif" font-size="353px" font-weight="400"><tspan class="TextPosition" x="13606" y="6310"><tspan fill="rgb(0,0,0)" stroke="none">0.52</tspan></tspan></tspan></text>
 <text class="TextShape"><tspan class="TextParagraph" font-family="Liberation Sans, sans-serif" font-size="353px" font-weight="400"><tspan class="TextPosition" x="4025" y="4675"><tspan fill="rgb(0,0,0)" stroke="none">2.63</tspan></tspan></tspan></text>
 <text class="TextShape"><tspan class="TextParagraph" font-family="Liberation Sans, sans-serif" font-size="353px" font-weight="400"><tspan class="TextPosition" x="6638" y="5455"><tspan fill="rgb(0,0,0)" stroke="none">1.22</tspan></tspan></tspan></text>
 <text class="TextShape"><tspan class="TextParagraph" font-family="Liberation Sans, sans-serif" font-size="353px" font-weight="400"><tspan class="TextPosition" x="9251" y="3433"><tspan fill="rgb(0,0,0)" stroke="none">8.94</tspan></tspan></tspan></text>
 <text class="TextShape"><tspan class="TextParagraph" font-family="Liberation Sans, sans-serif" font-size="353px" font-weight="400"><tspan class="TextPosition" x="11771" y="1957"><tspan fill="rgb(0,0,0)" stroke="none">38.28</tspan></tspan></tspan></text>
 <text class="TextShape"><tspan class="TextParagraph" font-family="Liberation Sans, sans-serif" font-size="353px" font-weight="400"><tspan class="TextPosition" x="14477" y="4402"><tspan fill="rgb(0,0,0)" stroke="none">3.44</tspan></tspan></tspan></text>
 <path fill="rgb(0,69,134)" stroke="none" d="M 6644,589 L 6539,589 6539,378 6750,378 6750,589 6644,589 Z"/>
 <path fill="rgb(255,66,14)" stroke="none" d="M 7903,589 L 7798,589 7798,378 8008,378 8008,589 7903,589 Z"/>
 <text class="TextShape"><tspan class="TextParagraph" font-family="Liberation Sans, sans-serif" font-size="353px" font-weight="400"><tspan class="TextPosition" x="6850" y="603"><tspan fill="rgb(0,0,0)" stroke="none">CPU</tspan></tspan></tspan></text>
 <text class="TextShape"><tspan class="TextParagraph" font-family="Liberation Sans, sans-serif" font-size="353px" font-weight="400"><tspan class="TextPosition" x="8108" y="603"><tspan fill="rgb(0,0,0)" stroke="none">MYRIAD</tspan></tspan></tspan></text>
 <text class="TextShape" transform="rotate(-90 837 6637)"><tspan class="TextParagraph" font-family="Liberation Sans, sans-serif" font-size="318px" font-weight="400"><tspan class="TextPosition" x="837" y="6637"><tspan fill="rgb(0,0,0)" stroke="none">Relative Execution Time</tspan></tspan></tspan></text>
</svg>