<?xml version="1.0" encoding="UTF-8"?>
<!DOCTYPE svg PUBLIC "-//W3C//DTD SVG 1.1//EN" "http://www.w3.org/Graphics/SVG/1.1/DTD/svg11.dtd">
<svg width="167mm" height="90mm" viewBox="0 0 16700 9000" version="1.1" xmlns="http://www.w3.org/2000/svg" xmlns:xlink="http://www.w3.org/1999/xlink" stroke-width="28.222" stroke-linejoin="round" xml:space="preserve">
 <path fill="rgb(255,255,255)" stroke="none" d="M 8332,8999 L 0,8999 0,0 16664,0 16664,8999 8332,8999 Z"/>
 <path fill="none" stroke="rgb(179,179,179)" stroke-linejoin="round" d="M 9177,8172 L 2256,8172 2256,1162 16099,1162 16099,8172 9177,8172 Z"/>
 <path fill="none" stroke="rgb(179,179,179)" stroke-linejoin="round" d="M 16099,8171 L 2256,8171"/>
 <path fill="none" stroke="rgb(179,179,179)" stroke-linejoin="round" d="M 16099,7392 L 2256,7392"/>
 <path fill="none" stroke="rgb(179,179,179)" stroke-linejoin="round" d="M 16099,6613 L 2256,6613"/>
 <path fill="none" stroke="rgb(179,179,179)" stroke-linejoin="round" d="M 16099,5834 L 2256,5834"/>
 <path fill="none" stroke="rgb(179,179,179)" stroke-linejoin="round" d="M 16099,5055 L 2256,5055"/>
 <path fill="none" stroke="rgb(179,179,179)" stroke-linejoin="round" d="M 16099,4277 L 2256,4277"/>
 <path fill="none" stroke="rgb(179,179,179)" stroke-linejoin="round" d="M 16099,3498 L 2256,3498"/>
 <path fill="none" stroke="rgb(179,179,179)" stroke-linejoin="round" d="M 16099,2719 L 2256,2719"/>
 <path fill="none" stroke="rgb(179,179,179)" stroke-linejoin="round" d="M 16099,1940 L 2256,1940"/>
 <path fill="none" stroke="rgb(179,179,179)" stroke-linejoin="round" d="M 16099,1161 L 2256,1161"/>
 <path fill="none" stroke="rgb(179,179,179)" stroke-linejoin="round" d="M 2256,8321 L 2256,8171"/>
 <path fill="none" stroke="rgb(179,179,179)" stroke-linejoin="round" d="M 2256,8321 L 2256,8171"/>
 <path fill="none" stroke="rgb(179,179,179)" stroke-linejoin="round" d="M 4563,8321 L 4563,8171"/>
 <path fill="none" stroke="rgb(179,179,179)" stroke-linejoin="round" d="M 4563,8321 L 4563,8171"/>
 <path fill="none" stroke="rgb(179,179,179)" stroke-linejoin="round" d="M 6870,8321 L 6870,8171"/>
 <path fill="none" stroke="rgb(179,179,179)" stroke-linejoin="round" d="M 6870,8321 L 6870,8171"/>
 <path fill="none" stroke="rgb(179,179,179)" stroke-linejoin="round" d="M 9177,8321 L 9177,8171"/>
 <path fill="none" stroke="rgb(179,179,179)" stroke-linejoin="round" d="M 9177,8321 L 9177,8171"/>
 <path fill="none" stroke="rgb(179,179,179)" stroke-linejoin="round" d="M 11484,8321 L 11484,8171"/>
 <path fill="none" stroke="rgb(179,179,179)" stroke-linejoin="round" d="M 11484,8321 L 11484,8171"/>
 <path fill="none" stroke="rgb(179,179,179)" stroke-linejoin="round" d="M 13791,8321 L 13791,8171"/>
 <path fill="none" stroke="rgb(179,179,179)" stroke-linejoin="round" d="M 13791,8321 L 13791,8171"/>
 <path fill="none" stroke="rgb(179,179,179)" stroke-linejoin="round" d="M 16099,8321 L 16099,8171"/>
 <path fill="none" stroke="rgb(179,179,179)" stroke-linejoin="round" d="M 16099,8321 L 16099,8171"/>
 <path fill="none" stroke="rgb(179,179,179)" stroke-linejoin="round" d="M 2256,8171 L 16099,8171"/>
 <path fill="none" stroke="rgb(179,179,179)" stroke-linejoin="round" d="M 2106,8171 L 2256,8171"/>
 <path fill="none" stroke="rgb(179,179,179)" stroke-linejoin="round" d="M 2106,8171 L 2256,8171"/>
 <path fill="none" stroke="rgb(179,179,179)" stroke-linejoin="round" d="M 2106,7392 L 2256,7392"/>
 <path fill="none" stroke="rgb(179,179,179)" stroke-linejoin="round" d="M 2106,7392 L 2256,7392"/>
 <path fill="none" stroke="rgb(179,179,179)" stroke-linejoin="round" d="M 2106,6613 L 2256,6613"/>
 <path fill="none" stroke="rgb(179,179,179)" stroke-linejoin="round" d="M 2106,6613 L 2256,6613"/>
 <path fill="none" stroke="rgb(179,179,179)" stroke-linejoin="round" d="M 2106,5834 L 2256,5834"/>
 <path fill="none" stroke="rgb(179,179,179)" stroke-linejoin="round" d="M 2106,5834 L 2256,5834"/>
 <path fill="none" stroke="rgb(179,179,179)" stroke-linejoin="round" d="M 2106,5055 L 2256,5055"/>
 <path fill="none" stroke="rgb(179,179,179)" stroke-linejoin="round" d="M 2106,5055 L 2256,5055"/>
 <path fill="none" stroke="rgb(179,179,179)" stroke-linejoin="round" d="M 2106,4277 L 2256,4277"/>
 <path fill="none" stroke="rgb(179,179,179)" stroke-linejoin="round" d="M 2106,4277 L 2256,4277"/>
 <path fill="none" stroke="rgb(179,179,179)" stroke-linejoin="round" d="M 2106,3498 L 2256,3498"/>
 <path fill="none" stroke="rgb(179,179,179)" stroke-linejoin="round" d="M 2106,3498 L 2256,3498"/>
 <path fill="none" stroke="rgb(179,179,179)" stroke-linejoin="round" d="M 2106,2719 L 2256,2719"/>
 <path fill="none" stroke="rgb(179,179,179)" stroke-linejoin="round" d="M 2106,2719 L 2256,2719"/>
 <path fill="none" stroke="rgb(179,179,179)" stroke-linejoin="round" d="M 2106,1940 L 2256,1940"/>
 <path fill="none" stroke="rgb(179,179,179)" stroke-linejoin="round" d="M 2106,1940 L 2256,1940"/>
 <path fill="none" stroke="rgb(179,179,179)" stroke-linejoin="round" d="M 2106,1161 L 2256,1161"/>
 <path fill="none" stroke="rgb(179,179,179)" stroke-linejoin="round" d="M 2106,1161 L 2256,1161"/>
 <path fill="none" stroke="rgb(179,179,179)" stroke-linejoin="round" d="M 2256,8171 L 2256,1161"/>
 <path fill="rgb(0,69,134)" stroke="none" d="M 14368,8171 L 15522,8171 15522,2629 14368,2629 14368,8171 Z"/>
 <path fill="rgb(0,69,134)" stroke="none" d="M 12061,8171 L 13214,8171 13214,2648 12061,2648 12061,8171 Z"/>
 <path fill="rgb(0,69,134)" stroke="none" d="M 9753,8171 L 10907,8171 10907,2652 9753,2652 9753,8171 Z"/>
 <path fill="rgb(0,69,134)" stroke="none" d="M 7447,8171 L 8600,8171 8600,2641 7447,2641 7447,8171 Z"/>
 <path fill="rgb(0,69,134)" stroke="none" d="M 5140,8171 L 6293,8171 6293,2072 5140,2072 5140,8171 Z"/>
 <path fill="rgb(0,69,134)" stroke="none" d="M 2832,8171 L 3986,8171 3986,2076 2832,2076 2832,8171 Z"/>
 <text class="TextShape"><tspan class="TextParagraph" font-family="Liberation Sans, sans-serif" font-size="353px" font-weight="400"><tspan class="TextPosition" x="2509" y="8739"><tspan fill="rgb(0,0,0)" stroke="none">CPU (NN 1)</tspan></tspan></tspan></text>
 <text class="TextShape"><tspan class="TextParagraph" font-family="Liberation Sans, sans-serif" font-size="353px" font-weight="400"><tspan class="TextPosition" x="4500" y="8739"><tspan fill="rgb(0,0,0)" stroke="none">MYRIAD (NN 1)</tspan></tspan></tspan></text>
 <text class="TextShape"><tspan class="TextParagraph" font-family="Liberation Sans, sans-serif" font-size="353px" font-weight="400"><tspan class="TextPosition" x="7124" y="8739"><tspan fill="rgb(0,0,0)" stroke="none">CPU (NN 2)</tspan></tspan></tspan></text>
 <text class="TextShape"><tspan class="TextParagraph" font-family="Liberation Sans, sans-serif" font-size="353px" font-weight="400"><tspan class="TextPosition" x="9114" y="8739"><tspan fill="rgb(0,0,0)" stroke="none">MYRIAD (NN 2)</tspan></tspan></tspan></text>
 <text class="TextShape"><tspan class="TextParagraph" font-family="Liberation Sans, sans-serif" font-size="353px" font-weight="400"><tspan class="TextPosition" x="11739" y="8739"><tspan fill="rgb(0,0,0)" stroke="none">CPU (NN 3)</tspan></tspan></tspan></text>
 <text class="TextShape"><tspan class="TextParagraph" font-family="Liberation Sans, sans-serif" font-size="353px" font-weight="400"><tspan class="TextPosition" x="13729" y="8739"><tspan fill="rgb(0,0,0)" stroke="none">MYRIAD (NN 3)</tspan></tspan></tspan></text>
 <text class="TextShape"><tspan class="TextParagraph" font-family="Liberation Sans, sans-serif" font-size="353px" font-weight="400"><tspan class="TextPosition" x="1345" y="8292"><tspan fill="rgb(0,0,0)" stroke="none">0.00</tspan></tspan></tspan></text>
 <text class="TextShape"><tspan class="TextParagraph" font-family="Liberation Sans, sans-serif" font-size="353px" font-weight="400"><tspan class="TextPosition" x="1345" y="7513"><tspan fill="rgb(0,0,0)" stroke="none">2.00</tspan></tspan></tspan></text>
 <text class="TextShape"><tspan class="TextParagraph" font-family="Liberation Sans, sans-serif" font-size="353px" font-weight="400"><tspan class="TextPosition" x="1345" y="6734"><tspan fill="rgb(0,0,0)" stroke="none">4.00</tspan></tspan></tspan></text>
 <text class="TextShape"><tspan class="TextParagraph" font-family="Liberation Sans, sans-serif" font-size="353px" font-weight="400"><tspan class="TextPosition" x="1345" y="5955"><tspan fill="rgb(0,0,0)" stroke="none">6.00</tspan></tspan></tspan></text>
 <text class="TextShape"><tspan class="TextParagraph" font-family="Liberation Sans, sans-serif" font-size="353px" font-weight="400"><tspan class="TextPosition" x="1345" y="5176"><tspan fill="rgb(0,0,0)" stroke="none">8.00</tspan></tspan></tspan></text>
 <text class="TextShape"><tspan class="TextParagraph" font-family="Liberation Sans, sans-serif" font-size="353px" font-weight="400"><tspan class="TextPosition" x="1159" y="4397"><tspan fill="rgb(0,0,0)" stroke="none">10.00</tspan></tspan></tspan></text>
 <text class="TextShape"><tspan class="TextParagraph" font-family="Liberation Sans, sans-serif" font-size="353px" font-weight="400"><tspan class="TextPosition" x="1159" y="3618"><tspan fill="rgb(0,0,0)" stroke="none">12.00</tspan></tspan></tspan></text>
 <text class="TextShape"><tspan class="TextParagraph" font-family="Liberation Sans, sans-serif" font-size="353px" font-weight="400"><tspan class="TextPosition" x="1159" y="2839"><tspan fill="rgb(0,0,0)" stroke="none">14.00</tspan></tspan></tspan></text>
 <text class="TextShape"><tspan class="TextParagraph" font-family="Liberation Sans, sans-serif" font-size="353px" font-weight="400"><tspan class="TextPosition" x="1159" y="2060"><tspan fill="rgb(0,0,0)" stroke="none">16.00</tspan></tspan></tspan></text>
 <text class="TextShape"><tspan class="TextParagraph" font-family="Liberation Sans, sans-serif" font-size="353px" font-weight="400"><tspan class="TextPosition" x="1159" y="1281"><tspan fill="rgb(0,0,0)" stroke="none">18.00</tspan></tspan></tspan></text>
 <text class="TextShape"><tspan class="TextParagraph" font-family="Liberation Sans, sans-serif" font-size="353px" font-weight="400"><tspan class="TextPosition" x="2985" y="1898"><tspan fill="rgb(0,0,0)" stroke="none">15.65</tspan></tspan></tspan></text>
 <text class="TextShape"><tspan class="TextParagraph" font-family="Liberation Sans, sans-serif" font-size="353px" font-weight="400"><tspan class="TextPosition" x="5293" y="1894"><tspan fill="rgb(0,0,0)" stroke="none">15.66</tspan></tspan></tspan></text>
 <text class="TextShape"><tspan class="TextParagraph" font-family="Liberation Sans, sans-serif" font-size="353px" font-weight="400"><tspan class="TextPosition" x="7600" y="2463"><tspan fill="rgb(0,0,0)" stroke="none">14.20</tspan></tspan></tspan></text>
 <text class="TextShape"><tspan class="TextParagraph" font-family="Liberation Sans, sans-serif" font-size="353px" font-weight="400"><tspan class="TextPosition" x="9907" y="2474"><tspan fill="rgb(0,0,0)" stroke="none">14.17</tspan></tspan></tspan></text>
 <text class="TextShape"><tspan class="TextParagraph" font-family="Liberation Sans, sans-serif" font-size="353px" font-weight="400"><tspan class="TextPosition" x="12215" y="2470"><tspan fill="rgb(0,0,0)" stroke="none">14.18</tspan></tspan></tspan></text>
 <text class="TextShape"><tspan class="TextParagraph" font-family="Liberation Sans, sans-serif" font-size="353px" font-weight="400"><tspan class="TextPosition" x="14522" y="2451"><tspan fill="rgb(0,0,0)" stroke="none">14.23</tspan></tspan></tspan></text>
 <path fill="rgb(0,69,134)" stroke="none" d="M 7817,589 L 7712,589 7712,378 7923,378 7923,589 7817,589 Z"/>
 <text class="TextShape"><tspan class="TextParagraph" font-family="Liberation Sans, sans-serif" font-size="353px" font-weight="400"><tspan class="TextPosition" x="8023" y="603"><tspan fill="rgb(0,0,0)" stroke="none">jmeint</tspan></tspan></tspan></text>
 <text class="TextShape" transform="rotate(-90 837 5896)"><tspan class="TextParagraph" font-family="Liberation Sans, sans-serif" font-size="318px" font-weight="400"><tspan class="TextPosition" x="837" y="5896"><tspan fill="rgb(0,0,0)" stroke="none">Miss Rate (%)</tspan></tspan></tspan></text>
</svg>