<?xml version="1.0" encoding="UTF-8"?>
<!DOCTYPE svg PUBLIC "-//W3C//DTD SVG 1.1//EN" "http://www.w3.org/Graphics/SVG/1.1/DTD/svg11.dtd">
<svg width="252mm" height="125mm" viewBox="0 0 25200 12500" version="1.1" xmlns="http://www.w3.org/2000/svg" xmlns:xlink="http://www.w3.org/1999/xlink" stroke-width="28.222" stroke-linejoin="round" xml:space="preserve">
 <path fill="rgb(255,255,255)" stroke="none" d="M 12618,12544 L 0,12544 0,0 25236,0 25236,12544 12618,12544 Z"/>
 <path fill="none" stroke="rgb(179,179,179)" stroke-linejoin="round" d="M 13588,11647 L 2798,11647 2798,2397 24379,2397 24379,11647 13588,11647 Z"/>
 <path fill="none" stroke="rgb(179,179,179)" stroke-linejoin="round" d="M 24379,11646 L 2798,11646"/>
 <path fill="none" stroke="rgb(179,179,179)" stroke-linejoin="round" d="M 24379,10324 L 2798,10324"/>
 <path fill="none" stroke="rgb(179,179,179)" stroke-linejoin="round" d="M 24379,9002 L 2798,9002"/>
 <path fill="none" stroke="rgb(179,179,179)" stroke-linejoin="round" d="M 24379,7681 L 2798,7681"/>
 <path fill="none" stroke="rgb(179,179,179)" stroke-linejoin="round" d="M 24379,6359 L 2798,6359"/>
 <path fill="none" stroke="rgb(179,179,179)" stroke-linejoin="round" d="M 24379,5039 L 2798,5039"/>
 <path fill="none" stroke="rgb(179,179,179)" stroke-linejoin="round" d="M 24379,3717 L 2798,3717"/>
 <path fill="none" stroke="rgb(179,179,179)" stroke-linejoin="round" d="M 24379,2396 L 2798,2396"/>
 <path fill="none" stroke="rgb(179,179,179)" stroke-linejoin="round" d="M 2798,11796 L 2798,11646"/>
 <path fill="none" stroke="rgb(179,179,179)" stroke-linejoin="round" d="M 2798,11796 L 2798,11646"/>
 <path fill="none" stroke="rgb(179,179,179)" stroke-linejoin="round" d="M 5881,11796 L 5881,11646"/>
 <path fill="none" stroke="rgb(179,179,179)" stroke-linejoin="round" d="M 5881,11796 L 5881,11646"/>
 <path fill="none" stroke="rgb(179,179,179)" stroke-linejoin="round" d="M 8964,11796 L 8964,11646"/>
 <path fill="none" stroke="rgb(179,179,179)" stroke-linejoin="round" d="M 8964,11796 L 8964,11646"/>
 <path fill="none" stroke="rgb(179,179,179)" stroke-linejoin="round" d="M 12047,11796 L 12047,11646"/>
 <path fill="none" stroke="rgb(179,179,179)" stroke-linejoin="round" d="M 12047,11796 L 12047,11646"/>
 <path fill="none" stroke="rgb(179,179,179)" stroke-linejoin="round" d="M 15129,11796 L 15129,11646"/>
 <path fill="none" stroke="rgb(179,179,179)" stroke-linejoin="round" d="M 15129,11796 L 15129,11646"/>
 <path fill="none" stroke="rgb(179,179,179)" stroke-linejoin="round" d="M 18212,11796 L 18212,11646"/>
 <path fill="none" stroke="rgb(179,179,179)" stroke-linejoin="round" d="M 18212,11796 L 18212,11646"/>
 <path fill="none" stroke="rgb(179,179,179)" stroke-linejoin="round" d="M 21295,11796 L 21295,11646"/>
 <path fill="none" stroke="rgb(179,179,179)" stroke-linejoin="round" d="M 21295,11796 L 21295,11646"/>
 <path fill="none" stroke="rgb(179,179,179)" stroke-linejoin="round" d="M 24379,11796 L 24379,11646"/>
 <path fill="none" stroke="rgb(179,179,179)" stroke-linejoin="round" d="M 24379,11796 L 24379,11646"/>
 <path fill="none" stroke="rgb(179,179,179)" stroke-linejoin="round" d="M 2798,11646 L 24379,11646"/>
 <path fill="none" stroke="rgb(179,179,179)" stroke-linejoin="round" d="M 2648,11646 L 2798,11646"/>
 <path fill="none" stroke="rgb(179,179,179)" stroke-linejoin="round" d="M 2648,11646 L 2798,11646"/>
 <path fill="none" stroke="rgb(179,179,179)" stroke-linejoin="round" d="M 2648,10324 L 2798,10324"/>
 <path fill="none" stroke="rgb(179,179,179)" stroke-linejoin="round" d="M 2648,10324 L 2798,10324"/>
 <path fill="none" stroke="rgb(179,179,179)" stroke-linejoin="round" d="M 2648,9002 L 2798,9002"/>
 <path fill="none" stroke="rgb(179,179,179)" stroke-linejoin="round" d="M 2648,9002 L 2798,9002"/>
 <path fill="none" stroke="rgb(179,179,179)" stroke-linejoin="round" d="M 2648,7681 L 2798,7681"/>
 <path fill="none" stroke="rgb(179,179,179)" stroke-linejoin="round" d="M 2648,7681 L 2798,7681"/>
 <path fill="none" stroke="rgb(179,179,179)" stroke-linejoin="round" d="M 2648,6359 L 2798,6359"/>
 <path fill="none" stroke="rgb(179,179,179)" stroke-linejoin="round" d="M 2648,6359 L 2798,6359"/>
 <path fill="none" stroke="rgb(179,179,179)" stroke-linejoin="round" d="M 2648,5039 L 2798,5039"/>
 <path fill="none" stroke="rgb(179,179,179)" stroke-linejoin="round" d="M 2648,5039 L 2798,5039"/>
 <path fill="none" stroke="rgb(179,179,179)" stroke-linejoin="round" d="M 2648,3717 L 2798,3717"/>
 <path fill="none" stroke="rgb(179,179,179)" stroke-linejoin="round" d="M 2648,3717 L 2798,3717"/>
 <path fill="none" stroke="rgb(179,179,179)" stroke-linejoin="round" d="M 2648,2396 L 2798,2396"/>
 <path fill="none" stroke="rgb(179,179,179)" stroke-linejoin="round" d="M 2648,2396 L 2798,2396"/>
 <path fill="none" stroke="rgb(179,179,179)" stroke-linejoin="round" d="M 2798,11646 L 2798,2396"/>
 <path fill="rgb(0,69,134)" stroke="none" d="M 21809,11646 L 22837,11646 22837,7706 21809,7706 21809,11646 Z"/>
 <path fill="rgb(0,69,134)" stroke="none" d="M 18726,11646 L 19754,11646 19754,8200 18726,8200 18726,11646 Z"/>
 <path fill="rgb(0,69,134)" stroke="none" d="M 15643,11646 L 16671,11646 16671,9910 15643,9910 15643,11646 Z"/>
 <path fill="rgb(0,69,134)" stroke="none" d="M 12561,11646 L 13588,11646 13588,10385 12561,10385 12561,11646 Z"/>
 <path fill="rgb(0,69,134)" stroke="none" d="M 9478,11646 L 10505,11646 10505,9570 9478,9570 9478,11646 Z"/>
 <path fill="rgb(0,69,134)" stroke="none" d="M 6395,11646 L 7422,11646 7422,9541 6395,9541 6395,11646 Z"/>
 <path fill="rgb(0,69,134)" stroke="none" d="M 3311,11646 L 4339,11646 4339,10374 3311,10374 3311,11646 Z"/>
 <path fill="rgb(255,66,14)" stroke="none" d="M 22837,11646 L 23865,11646 23865,2771 22837,2771 22837,11646 Z"/>
 <path fill="rgb(255,66,14)" stroke="none" d="M 19754,11646 L 20782,11646 20782,3849 19754,3849 19754,11646 Z"/>
 <path fill="rgb(255,66,14)" stroke="none" d="M 16671,11646 L 17698,11646 17698,3224 16671,3224 16671,11646 Z"/>
 <path fill="rgb(255,66,14)" stroke="none" d="M 13588,11646 L 14615,11646 14615,2858 13588,2858 13588,11646 Z"/>
 <path fill="rgb(255,66,14)" stroke="none" d="M 10505,11646 L 11533,11646 11533,2872 10505,2872 10505,11646 Z"/>
 <path fill="rgb(255,66,14)" stroke="none" d="M 7422,11646 L 8450,11646 8450,2795 7422,2795 7422,11646 Z"/>
 <path fill="rgb(255,66,14)" stroke="none" d="M 4339,11646 L 5367,11646 5367,3014 4339,3014 4339,11646 Z"/>
 <text class="TextShape"><tspan class="TextParagraph" font-family="Liberation Sans, sans-serif" font-size="353px" font-weight="400"><tspan class="TextPosition" x="3677" y="12214"><tspan fill="rgb(0,0,0)" stroke="none">Baseline</tspan></tspan></tspan></text>
 <text class="TextShape"><tspan class="TextParagraph" font-family="Liberation Sans, sans-serif" font-size="353px" font-weight="400"><tspan class="TextPosition" x="6416" y="12214"><tspan fill="rgb(0,0,0)" stroke="none">Red. In. Size</tspan></tspan></tspan></text>
 <text class="TextShape"><tspan class="TextParagraph" font-family="Liberation Sans, sans-serif" font-size="353px" font-weight="400"><tspan class="TextPosition" x="9274" y="12214"><tspan fill="rgb(0,0,0)" stroke="none">Red. Layer Size</tspan></tspan></tspan></text>
 <text class="TextShape"><tspan class="TextParagraph" font-family="Liberation Sans, sans-serif" font-size="353px" font-weight="400"><tspan class="TextPosition" x="13007" y="12214"><tspan fill="rgb(0,0,0)" stroke="none">Pruning</tspan></tspan></tspan></text>
 <text class="TextShape"><tspan class="TextParagraph" font-family="Liberation Sans, sans-serif" font-size="353px" font-weight="400"><tspan class="TextPosition" x="15812" y="12214"><tspan fill="rgb(0,0,0)" stroke="none">Sep. Conv.</tspan></tspan></tspan></text>
 <text class="TextShape"><tspan class="TextParagraph" font-family="Liberation Sans, sans-serif" font-size="353px" font-weight="400"><tspan class="TextPosition" x="18987" y="12214"><tspan fill="rgb(0,0,0)" stroke="none">Combined</tspan></tspan></tspan></text>
 <text class="TextShape"><tspan class="TextParagraph" font-family="Liberation Sans, sans-serif" font-size="353px" font-weight="400"><tspan class="TextPosition" x="20920" y="12214"><tspan fill="rgb(0,0,0)" stroke="none">Combined no Sep. Conv.</tspan></tspan></tspan></text>
 <text class="TextShape"><tspan class="TextParagraph" font-family="Liberation Sans, sans-serif" font-size="353px" font-weight="400"><tspan class="TextPosition" x="1887" y="11767"><tspan fill="rgb(0,0,0)" stroke="none">0.00</tspan></tspan></tspan></text>
 <text class="TextShape"><tspan class="TextParagraph" font-family="Liberation Sans, sans-serif" font-size="353px" font-weight="400"><tspan class="TextPosition" x="1516" y="10445"><tspan fill="rgb(0,0,0)" stroke="none">100.00</tspan></tspan></tspan></text>
 <text class="TextShape"><tspan class="TextParagraph" font-family="Liberation Sans, sans-serif" font-size="353px" font-weight="400"><tspan class="TextPosition" x="1516" y="9123"><tspan fill="rgb(0,0,0)" stroke="none">200.00</tspan></tspan></tspan></text>
 <text class="TextShape"><tspan class="TextParagraph" font-family="Liberation Sans, sans-serif" font-size="353px" font-weight="400"><tspan class="TextPosition" x="1516" y="7802"><tspan fill="rgb(0,0,0)" stroke="none">300.00</tspan></tspan></tspan></text>
 <text class="TextShape"><tspan class="TextParagraph" font-family="Liberation Sans, sans-serif" font-size="353px" font-weight="400"><tspan class="TextPosition" x="1516" y="6480"><tspan fill="rgb(0,0,0)" stroke="none">400.00</tspan></tspan></tspan></text>
 <text class="TextShape"><tspan class="TextParagraph" font-family="Liberation Sans, sans-serif" font-size="353px" font-weight="400"><tspan class="TextPosition" x="1516" y="5159"><tspan fill="rgb(0,0,0)" stroke="none">500.00</tspan></tspan></tspan></text>
 <text class="TextShape"><tspan class="TextParagraph" font-family="Liberation Sans, sans-serif" font-size="353px" font-weight="400"><tspan class="TextPosition" x="1516" y="3837"><tspan fill="rgb(0,0,0)" stroke="none">600.00</tspan></tspan></tspan></text>
 <text class="TextShape"><tspan class="TextParagraph" font-family="Liberation Sans, sans-serif" font-size="353px" font-weight="400"><tspan class="TextPosition" x="1516" y="2516"><tspan fill="rgb(0,0,0)" stroke="none">700.00</tspan></tspan></tspan></text>
 <text class="TextShape"><tspan class="TextParagraph" font-family="Liberation Sans, sans-serif" font-size="353px" font-weight="400"><tspan class="TextPosition" x="3401" y="10196"><tspan fill="rgb(0,0,0)" stroke="none">96.19</tspan></tspan></tspan></text>
 <text class="TextShape"><tspan class="TextParagraph" font-family="Liberation Sans, sans-serif" font-size="353px" font-weight="400"><tspan class="TextPosition" x="6392" y="9363"><tspan fill="rgb(0,0,0)" stroke="none">159.24</tspan></tspan></tspan></text>
 <text class="TextShape"><tspan class="TextParagraph" font-family="Liberation Sans, sans-serif" font-size="353px" font-weight="400"><tspan class="TextPosition" x="9476" y="9392"><tspan fill="rgb(0,0,0)" stroke="none">157.03</tspan></tspan></tspan></text>
 <text class="TextShape"><tspan class="TextParagraph" font-family="Liberation Sans, sans-serif" font-size="353px" font-weight="400"><tspan class="TextPosition" x="12651" y="10207"><tspan fill="rgb(0,0,0)" stroke="none">95.35</tspan></tspan></tspan></text>
 <text class="TextShape"><tspan class="TextParagraph" font-family="Liberation Sans, sans-serif" font-size="353px" font-weight="400"><tspan class="TextPosition" x="15642" y="9732"><tspan fill="rgb(0,0,0)" stroke="none">131.31</tspan></tspan></tspan></text>
 <text class="TextShape"><tspan class="TextParagraph" font-family="Liberation Sans, sans-serif" font-size="353px" font-weight="400"><tspan class="TextPosition" x="18725" y="8022"><tspan fill="rgb(0,0,0)" stroke="none">260.68</tspan></tspan></tspan></text>
 <text class="TextShape"><tspan class="TextParagraph" font-family="Liberation Sans, sans-serif" font-size="353px" font-weight="400"><tspan class="TextPosition" x="21808" y="7528"><tspan fill="rgb(0,0,0)" stroke="none">298.06</tspan></tspan></tspan></text>
 <text class="TextShape"><tspan class="TextParagraph" font-family="Liberation Sans, sans-serif" font-size="353px" font-weight="400"><tspan class="TextPosition" x="4337" y="2836"><tspan fill="rgb(0,0,0)" stroke="none">653.22</tspan></tspan></tspan></text>
 <text class="TextShape"><tspan class="TextParagraph" font-family="Liberation Sans, sans-serif" font-size="353px" font-weight="400"><tspan class="TextPosition" x="7420" y="2617"><tspan fill="rgb(0,0,0)" stroke="none">669.79</tspan></tspan></tspan></text>
 <text class="TextShape"><tspan class="TextParagraph" font-family="Liberation Sans, sans-serif" font-size="353px" font-weight="400"><tspan class="TextPosition" x="10503" y="2694"><tspan fill="rgb(0,0,0)" stroke="none">663.93</tspan></tspan></tspan></text>
 <text class="TextShape"><tspan class="TextParagraph" font-family="Liberation Sans, sans-serif" font-size="353px" font-weight="400"><tspan class="TextPosition" x="13586" y="2680"><tspan fill="rgb(0,0,0)" stroke="none">664.99</tspan></tspan></tspan></text>
 <text class="TextShape"><tspan class="TextParagraph" font-family="Liberation Sans, sans-serif" font-size="353px" font-weight="400"><tspan class="TextPosition" x="16670" y="3046"><tspan fill="rgb(0,0,0)" stroke="none">637.29</tspan></tspan></tspan></text>
 <text class="TextShape"><tspan class="TextParagraph" font-family="Liberation Sans, sans-serif" font-size="353px" font-weight="400"><tspan class="TextPosition" x="19753" y="3671"><tspan fill="rgb(0,0,0)" stroke="none">590.03</tspan></tspan></tspan></text>
 <text class="TextShape"><tspan class="TextParagraph" font-family="Liberation Sans, sans-serif" font-size="353px" font-weight="400"><tspan class="TextPosition" x="22836" y="2593"><tspan fill="rgb(0,0,0)" stroke="none">671.60</tspan></tspan></tspan></text>
 <text class="TextShape"><tspan class="TextParagraph" font-family="Liberation Sans, sans-serif" font-size="459px" font-weight="400"><tspan class="TextPosition" x="9178" y="921"><tspan fill="rgb(0,0,0)" stroke="none">Audio Classification - Performance</tspan></tspan></tspan></text>
 <path fill="rgb(0,69,134)" stroke="none" d="M 10627,1754 L 10522,1754 10522,1543 10733,1543 10733,1754 10627,1754 Z"/>
 <path fill="rgb(255,66,14)" stroke="none" d="M 12839,1754 L 12733,1754 12733,1543 12944,1543 12944,1754 12839,1754 Z"/>
 <text class="TextShape"><tspan class="TextParagraph" font-family="Liberation Sans, sans-serif" font-size="353px" font-weight="400"><tspan class="TextPosition" x="10833" y="1768"><tspan fill="rgb(0,0,0)" stroke="none">Tensorflow</tspan></tspan></tspan></text>
 <text class="TextShape"><tspan class="TextParagraph" font-family="Liberation Sans, sans-serif" font-size="353px" font-weight="400"><tspan class="TextPosition" x="13044" y="1768"><tspan fill="rgb(0,0,0)" stroke="none">OpenVINO</tspan></tspan></tspan></text>
 <text class="TextShape" transform="rotate(-90 837 9190)"><tspan class="TextParagraph" font-family="Liberation Sans, sans-serif" font-size="318px" font-weight="400"><tspan class="TextPosition" x="837" y="9190"><tspan fill="rgb(0,0,0)" stroke="none">Performance (inferences/s)</tspan></tspan></tspan></text>
</svg>