<?xml version="1.0" encoding="UTF-8"?>
<!DOCTYPE svg PUBLIC "-//W3C//DTD SVG 1.1//EN" "http://www.w3.org/Graphics/SVG/1.1/DTD/svg11.dtd">
<svg width="252mm" height="125mm" viewBox="0 0 25200 12500" version="1.1" xmlns="http://www.w3.org/2000/svg" xmlns:xlink="http://www.w3.org/1999/xlink" stroke-width="28.222" stroke-linejoin="round" xml:space="preserve">
 <path fill="rgb(255,255,255)" stroke="none" d="M 12613,12543 L 0,12543 0,0 25225,0 25225,12543 12613,12543 Z"/>
 <path fill="none" stroke="rgb(179,179,179)" stroke-linejoin="round" d="M 13582,11646 L 2798,11646 2798,2397 24367,2397 24367,11646 13582,11646 Z"/>
 <path fill="none" stroke="rgb(179,179,179)" stroke-linejoin="round" d="M 24367,11645 L 2798,11645"/>
 <path fill="none" stroke="rgb(179,179,179)" stroke-linejoin="round" d="M 24367,10103 L 2798,10103"/>
 <path fill="none" stroke="rgb(179,179,179)" stroke-linejoin="round" d="M 24367,8561 L 2798,8561"/>
 <path fill="none" stroke="rgb(179,179,179)" stroke-linejoin="round" d="M 24367,7020 L 2798,7020"/>
 <path fill="none" stroke="rgb(179,179,179)" stroke-linejoin="round" d="M 24367,5479 L 2798,5479"/>
 <path fill="none" stroke="rgb(179,179,179)" stroke-linejoin="round" d="M 24367,3937 L 2798,3937"/>
 <path fill="none" stroke="rgb(179,179,179)" stroke-linejoin="round" d="M 24367,2396 L 2798,2396"/>
 <path fill="none" stroke="rgb(179,179,179)" stroke-linejoin="round" d="M 2798,11795 L 2798,11645"/>
 <path fill="none" stroke="rgb(179,179,179)" stroke-linejoin="round" d="M 2798,11795 L 2798,11645"/>
 <path fill="none" stroke="rgb(179,179,179)" stroke-linejoin="round" d="M 5879,11795 L 5879,11645"/>
 <path fill="none" stroke="rgb(179,179,179)" stroke-linejoin="round" d="M 5879,11795 L 5879,11645"/>
 <path fill="none" stroke="rgb(179,179,179)" stroke-linejoin="round" d="M 8960,11795 L 8960,11645"/>
 <path fill="none" stroke="rgb(179,179,179)" stroke-linejoin="round" d="M 8960,11795 L 8960,11645"/>
 <path fill="none" stroke="rgb(179,179,179)" stroke-linejoin="round" d="M 12042,11795 L 12042,11645"/>
 <path fill="none" stroke="rgb(179,179,179)" stroke-linejoin="round" d="M 12042,11795 L 12042,11645"/>
 <path fill="none" stroke="rgb(179,179,179)" stroke-linejoin="round" d="M 15122,11795 L 15122,11645"/>
 <path fill="none" stroke="rgb(179,179,179)" stroke-linejoin="round" d="M 15122,11795 L 15122,11645"/>
 <path fill="none" stroke="rgb(179,179,179)" stroke-linejoin="round" d="M 18204,11795 L 18204,11645"/>
 <path fill="none" stroke="rgb(179,179,179)" stroke-linejoin="round" d="M 18204,11795 L 18204,11645"/>
 <path fill="none" stroke="rgb(179,179,179)" stroke-linejoin="round" d="M 21285,11795 L 21285,11645"/>
 <path fill="none" stroke="rgb(179,179,179)" stroke-linejoin="round" d="M 21285,11795 L 21285,11645"/>
 <path fill="none" stroke="rgb(179,179,179)" stroke-linejoin="round" d="M 24367,11795 L 24367,11645"/>
 <path fill="none" stroke="rgb(179,179,179)" stroke-linejoin="round" d="M 24367,11795 L 24367,11645"/>
 <path fill="none" stroke="rgb(179,179,179)" stroke-linejoin="round" d="M 2798,11645 L 24367,11645"/>
 <path fill="none" stroke="rgb(179,179,179)" stroke-linejoin="round" d="M 2648,11645 L 2798,11645"/>
 <path fill="none" stroke="rgb(179,179,179)" stroke-linejoin="round" d="M 2648,11645 L 2798,11645"/>
 <path fill="none" stroke="rgb(179,179,179)" stroke-linejoin="round" d="M 2648,10103 L 2798,10103"/>
 <path fill="none" stroke="rgb(179,179,179)" stroke-linejoin="round" d="M 2648,10103 L 2798,10103"/>
 <path fill="none" stroke="rgb(179,179,179)" stroke-linejoin="round" d="M 2648,8561 L 2798,8561"/>
 <path fill="none" stroke="rgb(179,179,179)" stroke-linejoin="round" d="M 2648,8561 L 2798,8561"/>
 <path fill="none" stroke="rgb(179,179,179)" stroke-linejoin="round" d="M 2648,7020 L 2798,7020"/>
 <path fill="none" stroke="rgb(179,179,179)" stroke-linejoin="round" d="M 2648,7020 L 2798,7020"/>
 <path fill="none" stroke="rgb(179,179,179)" stroke-linejoin="round" d="M 2648,5479 L 2798,5479"/>
 <path fill="none" stroke="rgb(179,179,179)" stroke-linejoin="round" d="M 2648,5479 L 2798,5479"/>
 <path fill="none" stroke="rgb(179,179,179)" stroke-linejoin="round" d="M 2648,3937 L 2798,3937"/>
 <path fill="none" stroke="rgb(179,179,179)" stroke-linejoin="round" d="M 2648,3937 L 2798,3937"/>
 <path fill="none" stroke="rgb(179,179,179)" stroke-linejoin="round" d="M 2648,2396 L 2798,2396"/>
 <path fill="none" stroke="rgb(179,179,179)" stroke-linejoin="round" d="M 2648,2396 L 2798,2396"/>
 <path fill="none" stroke="rgb(179,179,179)" stroke-linejoin="round" d="M 2798,11645 L 2798,2396"/>
 <path fill="rgb(0,69,134)" stroke="none" d="M 21799,11645 L 22826,11645 22826,9976 21799,9976 21799,11645 Z"/>
 <path fill="rgb(0,69,134)" stroke="none" d="M 18717,11645 L 19744,11645 19744,9454 18717,9454 18717,11645 Z"/>
 <path fill="rgb(0,69,134)" stroke="none" d="M 15636,11645 L 16663,11645 16663,10692 15636,10692 15636,11645 Z"/>
 <path fill="rgb(0,69,134)" stroke="none" d="M 12555,11645 L 13582,11645 13582,11008 12555,11008 12555,11645 Z"/>
 <path fill="rgb(0,69,134)" stroke="none" d="M 9474,11645 L 10501,11645 10501,10732 9474,10732 9474,11645 Z"/>
 <path fill="rgb(0,69,134)" stroke="none" d="M 6393,11645 L 7420,11645 7420,10513 6393,10513 6393,11645 Z"/>
 <path fill="rgb(0,69,134)" stroke="none" d="M 3311,11645 L 4338,11645 4338,11015 3311,11015 3311,11645 Z"/>
 <path fill="rgb(255,66,14)" stroke="none" d="M 22826,11645 L 23853,11645 23853,3049 22826,3049 22826,11645 Z"/>
 <path fill="rgb(255,66,14)" stroke="none" d="M 19744,11645 L 20772,11645 20772,3541 19744,3541 19744,11645 Z"/>
 <path fill="rgb(255,66,14)" stroke="none" d="M 16663,11645 L 17690,11645 17690,4101 16663,4101 16663,11645 Z"/>
 <path fill="rgb(255,66,14)" stroke="none" d="M 13582,11645 L 14609,11645 14609,3119 13582,3119 13582,11645 Z"/>
 <path fill="rgb(255,66,14)" stroke="none" d="M 10501,11645 L 11528,11645 11528,3168 10501,3168 10501,11645 Z"/>
 <path fill="rgb(255,66,14)" stroke="none" d="M 7420,11645 L 8447,11645 8447,3097 7420,3097 7420,11645 Z"/>
 <path fill="rgb(255,66,14)" stroke="none" d="M 4338,11645 L 5365,11645 5365,3135 4338,3135 4338,11645 Z"/>
 <text class="TextShape"><tspan class="TextParagraph" font-family="Liberation Sans, sans-serif" font-size="353px" font-weight="400"><tspan class="TextPosition" x="3676" y="12213"><tspan fill="rgb(0,0,0)" stroke="none">Baseline</tspan></tspan></tspan></text>
 <text class="TextShape"><tspan class="TextParagraph" font-family="Liberation Sans, sans-serif" font-size="353px" font-weight="400"><tspan class="TextPosition" x="6414" y="12213"><tspan fill="rgb(0,0,0)" stroke="none">Red. In. Size</tspan></tspan></tspan></text>
 <text class="TextShape"><tspan class="TextParagraph" font-family="Liberation Sans, sans-serif" font-size="353px" font-weight="400"><tspan class="TextPosition" x="9270" y="12213"><tspan fill="rgb(0,0,0)" stroke="none">Red. Layer Size</tspan></tspan></tspan></text>
 <text class="TextShape"><tspan class="TextParagraph" font-family="Liberation Sans, sans-serif" font-size="353px" font-weight="400"><tspan class="TextPosition" x="13001" y="12213"><tspan fill="rgb(0,0,0)" stroke="none">Pruning</tspan></tspan></tspan></text>
 <text class="TextShape"><tspan class="TextParagraph" font-family="Liberation Sans, sans-serif" font-size="353px" font-weight="400"><tspan class="TextPosition" x="15804" y="12213"><tspan fill="rgb(0,0,0)" stroke="none">Sep. Conv.</tspan></tspan></tspan></text>
 <text class="TextShape"><tspan class="TextParagraph" font-family="Liberation Sans, sans-serif" font-size="353px" font-weight="400"><tspan class="TextPosition" x="18977" y="12213"><tspan fill="rgb(0,0,0)" stroke="none">Combined</tspan></tspan></tspan></text>
 <text class="TextShape"><tspan class="TextParagraph" font-family="Liberation Sans, sans-serif" font-size="353px" font-weight="400"><tspan class="TextPosition" x="20909" y="12213"><tspan fill="rgb(0,0,0)" stroke="none">Combined no Sep. Conv.</tspan></tspan></tspan></text>
 <text class="TextShape"><tspan class="TextParagraph" font-family="Liberation Sans, sans-serif" font-size="353px" font-weight="400"><tspan class="TextPosition" x="1887" y="11766"><tspan fill="rgb(0,0,0)" stroke="none">0.00</tspan></tspan></tspan></text>
 <text class="TextShape"><tspan class="TextParagraph" font-family="Liberation Sans, sans-serif" font-size="353px" font-weight="400"><tspan class="TextPosition" x="1516" y="10224"><tspan fill="rgb(0,0,0)" stroke="none">100.00</tspan></tspan></tspan></text>
 <text class="TextShape"><tspan class="TextParagraph" font-family="Liberation Sans, sans-serif" font-size="353px" font-weight="400"><tspan class="TextPosition" x="1516" y="8682"><tspan fill="rgb(0,0,0)" stroke="none">200.00</tspan></tspan></tspan></text>
 <text class="TextShape"><tspan class="TextParagraph" font-family="Liberation Sans, sans-serif" font-size="353px" font-weight="400"><tspan class="TextPosition" x="1516" y="7141"><tspan fill="rgb(0,0,0)" stroke="none">300.00</tspan></tspan></tspan></text>
 <text class="TextShape"><tspan class="TextParagraph" font-family="Liberation Sans, sans-serif" font-size="353px" font-weight="400"><tspan class="TextPosition" x="1516" y="5599"><tspan fill="rgb(0,0,0)" stroke="none">400.00</tspan></tspan></tspan></text>
 <text class="TextShape"><tspan class="TextParagraph" font-family="Liberation Sans, sans-serif" font-size="353px" font-weight="400"><tspan class="TextPosition" x="1516" y="4057"><tspan fill="rgb(0,0,0)" stroke="none">500.00</tspan></tspan></tspan></text>
 <text class="TextShape"><tspan class="TextParagraph" font-family="Liberation Sans, sans-serif" font-size="353px" font-weight="400"><tspan class="TextPosition" x="1516" y="2516"><tspan fill="rgb(0,0,0)" stroke="none">600.00</tspan></tspan></tspan></text>
 <text class="TextShape"><tspan class="TextParagraph" font-family="Liberation Sans, sans-serif" font-size="353px" font-weight="400"><tspan class="TextPosition" x="3401" y="10837"><tspan fill="rgb(0,0,0)" stroke="none">40.82</tspan></tspan></tspan></text>
 <text class="TextShape"><tspan class="TextParagraph" font-family="Liberation Sans, sans-serif" font-size="353px" font-weight="400"><tspan class="TextPosition" x="6482" y="10335"><tspan fill="rgb(0,0,0)" stroke="none">73.39</tspan></tspan></tspan></text>
 <text class="TextShape"><tspan class="TextParagraph" font-family="Liberation Sans, sans-serif" font-size="353px" font-weight="400"><tspan class="TextPosition" x="9564" y="10554"><tspan fill="rgb(0,0,0)" stroke="none">59.22</tspan></tspan></tspan></text>
 <text class="TextShape"><tspan class="TextParagraph" font-family="Liberation Sans, sans-serif" font-size="353px" font-weight="400"><tspan class="TextPosition" x="12645" y="10830"><tspan fill="rgb(0,0,0)" stroke="none">41.27</tspan></tspan></tspan></text>
 <text class="TextShape"><tspan class="TextParagraph" font-family="Liberation Sans, sans-serif" font-size="353px" font-weight="400"><tspan class="TextPosition" x="15726" y="10514"><tspan fill="rgb(0,0,0)" stroke="none">61.78</tspan></tspan></tspan></text>
 <text class="TextShape"><tspan class="TextParagraph" font-family="Liberation Sans, sans-serif" font-size="353px" font-weight="400"><tspan class="TextPosition" x="18716" y="9276"><tspan fill="rgb(0,0,0)" stroke="none">142.06</tspan></tspan></tspan></text>
 <text class="TextShape"><tspan class="TextParagraph" font-family="Liberation Sans, sans-serif" font-size="353px" font-weight="400"><tspan class="TextPosition" x="21797" y="9798"><tspan fill="rgb(0,0,0)" stroke="none">108.23</tspan></tspan></tspan></text>
 <text class="TextShape"><tspan class="TextParagraph" font-family="Liberation Sans, sans-serif" font-size="353px" font-weight="400"><tspan class="TextPosition" x="4336" y="2957"><tspan fill="rgb(0,0,0)" stroke="none">552.01</tspan></tspan></tspan></text>
 <text class="TextShape"><tspan class="TextParagraph" font-family="Liberation Sans, sans-serif" font-size="353px" font-weight="400"><tspan class="TextPosition" x="7417" y="2919"><tspan fill="rgb(0,0,0)" stroke="none">554.48</tspan></tspan></tspan></text>
 <text class="TextShape"><tspan class="TextParagraph" font-family="Liberation Sans, sans-serif" font-size="353px" font-weight="400"><tspan class="TextPosition" x="10499" y="2990"><tspan fill="rgb(0,0,0)" stroke="none">549.89</tspan></tspan></tspan></text>
 <text class="TextShape"><tspan class="TextParagraph" font-family="Liberation Sans, sans-serif" font-size="353px" font-weight="400"><tspan class="TextPosition" x="13580" y="2941"><tspan fill="rgb(0,0,0)" stroke="none">553.07</tspan></tspan></tspan></text>
 <text class="TextShape"><tspan class="TextParagraph" font-family="Liberation Sans, sans-serif" font-size="353px" font-weight="400"><tspan class="TextPosition" x="16662" y="3923"><tspan fill="rgb(0,0,0)" stroke="none">489.40</tspan></tspan></tspan></text>
 <text class="TextShape"><tspan class="TextParagraph" font-family="Liberation Sans, sans-serif" font-size="353px" font-weight="400"><tspan class="TextPosition" x="19743" y="3363"><tspan fill="rgb(0,0,0)" stroke="none">525.68</tspan></tspan></tspan></text>
 <text class="TextShape"><tspan class="TextParagraph" font-family="Liberation Sans, sans-serif" font-size="353px" font-weight="400"><tspan class="TextPosition" x="22824" y="2871"><tspan fill="rgb(0,0,0)" stroke="none">557.62</tspan></tspan></tspan></text>
 <text class="TextShape"><tspan class="TextParagraph" font-family="Liberation Sans, sans-serif" font-size="459px" font-weight="400"><tspan class="TextPosition" x="9279" y="921"><tspan fill="rgb(0,0,0)" stroke="none">Fruit Classification - Performance</tspan></tspan></tspan></text>
 <path fill="rgb(0,69,134)" stroke="none" d="M 10622,1754 L 10517,1754 10517,1543 10728,1543 10728,1754 10622,1754 Z"/>
 <path fill="rgb(255,66,14)" stroke="none" d="M 12834,1754 L 12728,1754 12728,1543 12939,1543 12939,1754 12834,1754 Z"/>
 <text class="TextShape"><tspan class="TextParagraph" font-family="Liberation Sans, sans-serif" font-size="353px" font-weight="400"><tspan class="TextPosition" x="10828" y="1768"><tspan fill="rgb(0,0,0)" stroke="none">Tensorflow</tspan></tspan></tspan></text>
 <text class="TextShape"><tspan class="TextParagraph" font-family="Liberation Sans, sans-serif" font-size="353px" font-weight="400"><tspan class="TextPosition" x="13039" y="1768"><tspan fill="rgb(0,0,0)" stroke="none">OpenVINO</tspan></tspan></tspan></text>
 <text class="TextShape" transform="rotate(-90 837 9190)"><tspan class="TextParagraph" font-family="Liberation Sans, sans-serif" font-size="318px" font-weight="400"><tspan class="TextPosition" x="837" y="9190"><tspan fill="rgb(0,0,0)" stroke="none">Performance (inferences/s)</tspan></tspan></tspan></text>
</svg>