<?xml version="1.0" encoding="UTF-8"?>
<!DOCTYPE svg PUBLIC "-//W3C//DTD SVG 1.1//EN" "http://www.w3.org/Graphics/SVG/1.1/DTD/svg11.dtd">
<svg width="252mm" height="125mm" viewBox="0 0 25200 12500" version="1.1" xmlns="http://www.w3.org/2000/svg" xmlns:xlink="http://www.w3.org/1999/xlink" stroke-width="28.222" stroke-linejoin="round" xml:space="preserve">
 <path fill="rgb(255,255,255)" stroke="none" d="M 12613,12543 L 0,12543 0,0 25226,0 25226,12543 12613,12543 Z"/>
 <path fill="none" stroke="rgb(179,179,179)" stroke-linejoin="round" d="M 13583,11646 L 2798,11646 2798,2397 24369,2397 24369,11646 13583,11646 Z"/>
 <path fill="none" stroke="rgb(179,179,179)" stroke-linejoin="round" d="M 24369,11645 L 2798,11645"/>
 <path fill="none" stroke="rgb(179,179,179)" stroke-linejoin="round" d="M 24369,10488 L 2798,10488"/>
 <path fill="none" stroke="rgb(179,179,179)" stroke-linejoin="round" d="M 24369,9332 L 2798,9332"/>
 <path fill="none" stroke="rgb(179,179,179)" stroke-linejoin="round" d="M 24369,8176 L 2798,8176"/>
 <path fill="none" stroke="rgb(179,179,179)" stroke-linejoin="round" d="M 24369,7020 L 2798,7020"/>
 <path fill="none" stroke="rgb(179,179,179)" stroke-linejoin="round" d="M 24369,5864 L 2798,5864"/>
 <path fill="none" stroke="rgb(179,179,179)" stroke-linejoin="round" d="M 24369,4708 L 2798,4708"/>
 <path fill="none" stroke="rgb(179,179,179)" stroke-linejoin="round" d="M 24369,3552 L 2798,3552"/>
 <path fill="none" stroke="rgb(179,179,179)" stroke-linejoin="round" d="M 24369,2396 L 2798,2396"/>
 <path fill="none" stroke="rgb(179,179,179)" stroke-linejoin="round" d="M 2798,11795 L 2798,11645"/>
 <path fill="none" stroke="rgb(179,179,179)" stroke-linejoin="round" d="M 2798,11795 L 2798,11645"/>
 <path fill="none" stroke="rgb(179,179,179)" stroke-linejoin="round" d="M 5879,11795 L 5879,11645"/>
 <path fill="none" stroke="rgb(179,179,179)" stroke-linejoin="round" d="M 5879,11795 L 5879,11645"/>
 <path fill="none" stroke="rgb(179,179,179)" stroke-linejoin="round" d="M 8961,11795 L 8961,11645"/>
 <path fill="none" stroke="rgb(179,179,179)" stroke-linejoin="round" d="M 8961,11795 L 8961,11645"/>
 <path fill="none" stroke="rgb(179,179,179)" stroke-linejoin="round" d="M 12043,11795 L 12043,11645"/>
 <path fill="none" stroke="rgb(179,179,179)" stroke-linejoin="round" d="M 12043,11795 L 12043,11645"/>
 <path fill="none" stroke="rgb(179,179,179)" stroke-linejoin="round" d="M 15123,11795 L 15123,11645"/>
 <path fill="none" stroke="rgb(179,179,179)" stroke-linejoin="round" d="M 15123,11795 L 15123,11645"/>
 <path fill="none" stroke="rgb(179,179,179)" stroke-linejoin="round" d="M 18205,11795 L 18205,11645"/>
 <path fill="none" stroke="rgb(179,179,179)" stroke-linejoin="round" d="M 18205,11795 L 18205,11645"/>
 <path fill="none" stroke="rgb(179,179,179)" stroke-linejoin="round" d="M 21287,11795 L 21287,11645"/>
 <path fill="none" stroke="rgb(179,179,179)" stroke-linejoin="round" d="M 21287,11795 L 21287,11645"/>
 <path fill="none" stroke="rgb(179,179,179)" stroke-linejoin="round" d="M 24369,11795 L 24369,11645"/>
 <path fill="none" stroke="rgb(179,179,179)" stroke-linejoin="round" d="M 24369,11795 L 24369,11645"/>
 <path fill="none" stroke="rgb(179,179,179)" stroke-linejoin="round" d="M 2798,11645 L 24369,11645"/>
 <path fill="none" stroke="rgb(179,179,179)" stroke-linejoin="round" d="M 2648,11645 L 2798,11645"/>
 <path fill="none" stroke="rgb(179,179,179)" stroke-linejoin="round" d="M 2648,11645 L 2798,11645"/>
 <path fill="none" stroke="rgb(179,179,179)" stroke-linejoin="round" d="M 2648,10488 L 2798,10488"/>
 <path fill="none" stroke="rgb(179,179,179)" stroke-linejoin="round" d="M 2648,10488 L 2798,10488"/>
 <path fill="none" stroke="rgb(179,179,179)" stroke-linejoin="round" d="M 2648,9332 L 2798,9332"/>
 <path fill="none" stroke="rgb(179,179,179)" stroke-linejoin="round" d="M 2648,9332 L 2798,9332"/>
 <path fill="none" stroke="rgb(179,179,179)" stroke-linejoin="round" d="M 2648,8176 L 2798,8176"/>
 <path fill="none" stroke="rgb(179,179,179)" stroke-linejoin="round" d="M 2648,8176 L 2798,8176"/>
 <path fill="none" stroke="rgb(179,179,179)" stroke-linejoin="round" d="M 2648,7020 L 2798,7020"/>
 <path fill="none" stroke="rgb(179,179,179)" stroke-linejoin="round" d="M 2648,7020 L 2798,7020"/>
 <path fill="none" stroke="rgb(179,179,179)" stroke-linejoin="round" d="M 2648,5864 L 2798,5864"/>
 <path fill="none" stroke="rgb(179,179,179)" stroke-linejoin="round" d="M 2648,5864 L 2798,5864"/>
 <path fill="none" stroke="rgb(179,179,179)" stroke-linejoin="round" d="M 2648,4708 L 2798,4708"/>
 <path fill="none" stroke="rgb(179,179,179)" stroke-linejoin="round" d="M 2648,4708 L 2798,4708"/>
 <path fill="none" stroke="rgb(179,179,179)" stroke-linejoin="round" d="M 2648,3552 L 2798,3552"/>
 <path fill="none" stroke="rgb(179,179,179)" stroke-linejoin="round" d="M 2648,3552 L 2798,3552"/>
 <path fill="none" stroke="rgb(179,179,179)" stroke-linejoin="round" d="M 2648,2396 L 2798,2396"/>
 <path fill="none" stroke="rgb(179,179,179)" stroke-linejoin="round" d="M 2648,2396 L 2798,2396"/>
 <path fill="none" stroke="rgb(179,179,179)" stroke-linejoin="round" d="M 2798,11645 L 2798,2396"/>
 <path fill="rgb(0,69,134)" stroke="none" d="M 21800,11645 L 22828,11645 22828,11114 21800,11114 21800,11645 Z"/>
 <path fill="rgb(0,69,134)" stroke="none" d="M 18719,11645 L 19746,11645 19746,10837 18719,10837 18719,11645 Z"/>
 <path fill="rgb(0,69,134)" stroke="none" d="M 15637,11645 L 16664,11645 16664,11298 15637,11298 15637,11645 Z"/>
 <path fill="rgb(0,69,134)" stroke="none" d="M 12556,11645 L 13583,11645 13583,11448 12556,11448 12556,11645 Z"/>
 <path fill="rgb(0,69,134)" stroke="none" d="M 9475,11645 L 10502,11645 10502,11355 9475,11355 9475,11645 Z"/>
 <path fill="rgb(0,69,134)" stroke="none" d="M 6393,11645 L 7420,11645 7420,11290 6393,11290 6393,11645 Z"/>
 <path fill="rgb(0,69,134)" stroke="none" d="M 3311,11645 L 4338,11645 4338,11456 3311,11456 3311,11645 Z"/>
 <path fill="rgb(255,66,14)" stroke="none" d="M 22828,11645 L 23855,11645 23855,2428 22828,2428 22828,11645 Z"/>
 <path fill="rgb(255,66,14)" stroke="none" d="M 19746,11645 L 20773,11645 20773,6028 19746,6028 19746,11645 Z"/>
 <path fill="rgb(255,66,14)" stroke="none" d="M 16664,11645 L 17691,11645 17691,8636 16664,8636 16664,11645 Z"/>
 <path fill="rgb(255,66,14)" stroke="none" d="M 13583,11645 L 14610,11645 14610,7866 13583,7866 13583,11645 Z"/>
 <path fill="rgb(255,66,14)" stroke="none" d="M 10502,11645 L 11529,11645 11529,7087 10502,7087 10502,11645 Z"/>
 <path fill="rgb(255,66,14)" stroke="none" d="M 7420,11645 L 8447,11645 8447,3755 7420,3755 7420,11645 Z"/>
 <path fill="rgb(255,66,14)" stroke="none" d="M 4338,11645 L 5366,11645 5366,7862 4338,7862 4338,11645 Z"/>
 <text class="TextShape"><tspan class="TextParagraph" font-family="Liberation Sans, sans-serif" font-size="353px" font-weight="400"><tspan class="TextPosition" x="3676" y="12213"><tspan fill="rgb(0,0,0)" stroke="none">Baseline</tspan></tspan></tspan></text>
 <text class="TextShape"><tspan class="TextParagraph" font-family="Liberation Sans, sans-serif" font-size="353px" font-weight="400"><tspan class="TextPosition" x="6414" y="12213"><tspan fill="rgb(0,0,0)" stroke="none">Red. In. Size</tspan></tspan></tspan></text>
 <text class="TextShape"><tspan class="TextParagraph" font-family="Liberation Sans, sans-serif" font-size="353px" font-weight="400"><tspan class="TextPosition" x="9271" y="12213"><tspan fill="rgb(0,0,0)" stroke="none">Red. Layer Size</tspan></tspan></tspan></text>
 <text class="TextShape"><tspan class="TextParagraph" font-family="Liberation Sans, sans-serif" font-size="353px" font-weight="400"><tspan class="TextPosition" x="13002" y="12213"><tspan fill="rgb(0,0,0)" stroke="none">Pruning</tspan></tspan></tspan></text>
 <text class="TextShape"><tspan class="TextParagraph" font-family="Liberation Sans, sans-serif" font-size="353px" font-weight="400"><tspan class="TextPosition" x="15805" y="12213"><tspan fill="rgb(0,0,0)" stroke="none">Sep. Conv.</tspan></tspan></tspan></text>
 <text class="TextShape"><tspan class="TextParagraph" font-family="Liberation Sans, sans-serif" font-size="353px" font-weight="400"><tspan class="TextPosition" x="18979" y="12213"><tspan fill="rgb(0,0,0)" stroke="none">Combined</tspan></tspan></tspan></text>
 <text class="TextShape"><tspan class="TextParagraph" font-family="Liberation Sans, sans-serif" font-size="353px" font-weight="400"><tspan class="TextPosition" x="20911" y="12213"><tspan fill="rgb(0,0,0)" stroke="none">Combined no Sep. Conv.</tspan></tspan></tspan></text>
 <text class="TextShape"><tspan class="TextParagraph" font-family="Liberation Sans, sans-serif" font-size="353px" font-weight="400"><tspan class="TextPosition" x="1887" y="11766"><tspan fill="rgb(0,0,0)" stroke="none">0.00</tspan></tspan></tspan></text>
 <text class="TextShape"><tspan class="TextParagraph" font-family="Liberation Sans, sans-serif" font-size="353px" font-weight="400"><tspan class="TextPosition" x="1701" y="10609"><tspan fill="rgb(0,0,0)" stroke="none">50.00</tspan></tspan></tspan></text>
 <text class="TextShape"><tspan class="TextParagraph" font-family="Liberation Sans, sans-serif" font-size="353px" font-weight="400"><tspan class="TextPosition" x="1516" y="9453"><tspan fill="rgb(0,0,0)" stroke="none">100.00</tspan></tspan></tspan></text>
 <text class="TextShape"><tspan class="TextParagraph" font-family="Liberation Sans, sans-serif" font-size="353px" font-weight="400"><tspan class="TextPosition" x="1516" y="8297"><tspan fill="rgb(0,0,0)" stroke="none">150.00</tspan></tspan></tspan></text>
 <text class="TextShape"><tspan class="TextParagraph" font-family="Liberation Sans, sans-serif" font-size="353px" font-weight="400"><tspan class="TextPosition" x="1516" y="7141"><tspan fill="rgb(0,0,0)" stroke="none">200.00</tspan></tspan></tspan></text>
 <text class="TextShape"><tspan class="TextParagraph" font-family="Liberation Sans, sans-serif" font-size="353px" font-weight="400"><tspan class="TextPosition" x="1516" y="5984"><tspan fill="rgb(0,0,0)" stroke="none">250.00</tspan></tspan></tspan></text>
 <text class="TextShape"><tspan class="TextParagraph" font-family="Liberation Sans, sans-serif" font-size="353px" font-weight="400"><tspan class="TextPosition" x="1516" y="4828"><tspan fill="rgb(0,0,0)" stroke="none">300.00</tspan></tspan></tspan></text>
 <text class="TextShape"><tspan class="TextParagraph" font-family="Liberation Sans, sans-serif" font-size="353px" font-weight="400"><tspan class="TextPosition" x="1516" y="3672"><tspan fill="rgb(0,0,0)" stroke="none">350.00</tspan></tspan></tspan></text>
 <text class="TextShape"><tspan class="TextParagraph" font-family="Liberation Sans, sans-serif" font-size="353px" font-weight="400"><tspan class="TextPosition" x="1516" y="2516"><tspan fill="rgb(0,0,0)" stroke="none">400.00</tspan></tspan></tspan></text>
 <text class="TextShape"><tspan class="TextParagraph" font-family="Liberation Sans, sans-serif" font-size="353px" font-weight="400"><tspan class="TextPosition" x="3494" y="11278"><tspan fill="rgb(0,0,0)" stroke="none">8.16</tspan></tspan></tspan></text>
 <text class="TextShape"><tspan class="TextParagraph" font-family="Liberation Sans, sans-serif" font-size="353px" font-weight="400"><tspan class="TextPosition" x="6482" y="11112"><tspan fill="rgb(0,0,0)" stroke="none">15.33</tspan></tspan></tspan></text>
 <text class="TextShape"><tspan class="TextParagraph" font-family="Liberation Sans, sans-serif" font-size="353px" font-weight="400"><tspan class="TextPosition" x="9564" y="11177"><tspan fill="rgb(0,0,0)" stroke="none">12.53</tspan></tspan></tspan></text>
 <text class="TextShape"><tspan class="TextParagraph" font-family="Liberation Sans, sans-serif" font-size="353px" font-weight="400"><tspan class="TextPosition" x="12739" y="11270"><tspan fill="rgb(0,0,0)" stroke="none">8.48</tspan></tspan></tspan></text>
 <text class="TextShape"><tspan class="TextParagraph" font-family="Liberation Sans, sans-serif" font-size="353px" font-weight="400"><tspan class="TextPosition" x="15728" y="11120"><tspan fill="rgb(0,0,0)" stroke="none">14.99</tspan></tspan></tspan></text>
 <text class="TextShape"><tspan class="TextParagraph" font-family="Liberation Sans, sans-serif" font-size="353px" font-weight="400"><tspan class="TextPosition" x="18809" y="10659"><tspan fill="rgb(0,0,0)" stroke="none">34.92</tspan></tspan></tspan></text>
 <text class="TextShape"><tspan class="TextParagraph" font-family="Liberation Sans, sans-serif" font-size="353px" font-weight="400"><tspan class="TextPosition" x="21891" y="10936"><tspan fill="rgb(0,0,0)" stroke="none">22.94</tspan></tspan></tspan></text>
 <text class="TextShape"><tspan class="TextParagraph" font-family="Liberation Sans, sans-serif" font-size="353px" font-weight="400"><tspan class="TextPosition" x="4336" y="7684"><tspan fill="rgb(0,0,0)" stroke="none">163.57</tspan></tspan></tspan></text>
 <text class="TextShape"><tspan class="TextParagraph" font-family="Liberation Sans, sans-serif" font-size="353px" font-weight="400"><tspan class="TextPosition" x="7418" y="3577"><tspan fill="rgb(0,0,0)" stroke="none">341.22</tspan></tspan></tspan></text>
 <text class="TextShape"><tspan class="TextParagraph" font-family="Liberation Sans, sans-serif" font-size="353px" font-weight="400"><tspan class="TextPosition" x="10499" y="6909"><tspan fill="rgb(0,0,0)" stroke="none">197.06</tspan></tspan></tspan></text>
 <text class="TextShape"><tspan class="TextParagraph" font-family="Liberation Sans, sans-serif" font-size="353px" font-weight="400"><tspan class="TextPosition" x="13581" y="7688"><tspan fill="rgb(0,0,0)" stroke="none">163.39</tspan></tspan></tspan></text>
 <text class="TextShape"><tspan class="TextParagraph" font-family="Liberation Sans, sans-serif" font-size="353px" font-weight="400"><tspan class="TextPosition" x="16663" y="8458"><tspan fill="rgb(0,0,0)" stroke="none">130.09</tspan></tspan></tspan></text>
 <text class="TextShape"><tspan class="TextParagraph" font-family="Liberation Sans, sans-serif" font-size="353px" font-weight="400"><tspan class="TextPosition" x="19745" y="5850"><tspan fill="rgb(0,0,0)" stroke="none">242.90</tspan></tspan></tspan></text>
 <text class="TextShape"><tspan class="TextParagraph" font-family="Liberation Sans, sans-serif" font-size="353px" font-weight="400"><tspan class="TextPosition" x="22826" y="2250"><tspan fill="rgb(0,0,0)" stroke="none">398.59</tspan></tspan></tspan></text>
 <text class="TextShape"><tspan class="TextParagraph" font-family="Liberation Sans, sans-serif" font-size="459px" font-weight="400"><tspan class="TextPosition" x="9107" y="921"><tspan fill="rgb(0,0,0)" stroke="none">Scene Classification - Performance</tspan></tspan></tspan></text>
 <path fill="rgb(0,69,134)" stroke="none" d="M 10622,1754 L 10517,1754 10517,1543 10728,1543 10728,1754 10622,1754 Z"/>
 <path fill="rgb(255,66,14)" stroke="none" d="M 12834,1754 L 12728,1754 12728,1543 12939,1543 12939,1754 12834,1754 Z"/>
 <text class="TextShape"><tspan class="TextParagraph" font-family="Liberation Sans, sans-serif" font-size="353px" font-weight="400"><tspan class="TextPosition" x="10828" y="1768"><tspan fill="rgb(0,0,0)" stroke="none">Tensorflow</tspan></tspan></tspan></text>
 <text class="TextShape"><tspan class="TextParagraph" font-family="Liberation Sans, sans-serif" font-size="353px" font-weight="400"><tspan class="TextPosition" x="13039" y="1768"><tspan fill="rgb(0,0,0)" stroke="none">OpenVINO</tspan></tspan></tspan></text>
 <text class="TextShape" transform="rotate(-90 837 9190)"><tspan class="TextParagraph" font-family="Liberation Sans, sans-serif" font-size="318px" font-weight="400"><tspan class="TextPosition" x="837" y="9190"><tspan fill="rgb(0,0,0)" stroke="none">Performance (inferences/s)</tspan></tspan></tspan></text>
</svg>