<?xml version="1.0" encoding="UTF-8"?>
<!DOCTYPE svg PUBLIC "-//W3C//DTD SVG 1.1//EN" "http://www.w3.org/Graphics/SVG/1.1/DTD/svg11.dtd">
<svg width="160mm" height="90mm" viewBox="0 0 16000 9000" version="1.1" xmlns="http://www.w3.org/2000/svg" xmlns:xlink="http://www.w3.org/1999/xlink" stroke-width="28.222" stroke-linejoin="round" xml:space="preserve">
 <path fill="rgb(255,255,255)" stroke="none" d="M 8000,8999 L 0,8999 0,0 15999,0 15999,8999 8000,8999 Z"/>
 <path fill="none" stroke="rgb(179,179,179)" stroke-linejoin="round" d="M 9146,8172 L 2614,8172 2614,1162 15679,1162 15679,8172 9146,8172 Z"/>
 <path fill="none" stroke="rgb(179,179,179)" stroke-linejoin="round" d="M 15679,8171 L 2614,8171"/>
 <path fill="none" stroke="rgb(179,179,179)" stroke-linejoin="round" d="M 15679,5834 L 2614,5834"/>
 <path fill="none" stroke="rgb(179,179,179)" stroke-linejoin="round" d="M 15679,3498 L 2614,3498"/>
 <path fill="none" stroke="rgb(179,179,179)" stroke-linejoin="round" d="M 15679,1161 L 2614,1161"/>
 <path fill="none" stroke="rgb(221,221,221)" stroke-linejoin="round" d="M 15679,7467 L 2614,7467"/>
 <path fill="none" stroke="rgb(221,221,221)" stroke-linejoin="round" d="M 15679,7055 L 2614,7055"/>
 <path fill="none" stroke="rgb(221,221,221)" stroke-linejoin="round" d="M 15679,6763 L 2614,6763"/>
 <path fill="none" stroke="rgb(221,221,221)" stroke-linejoin="round" d="M 15679,6537 L 2614,6537"/>
 <path fill="none" stroke="rgb(221,221,221)" stroke-linejoin="round" d="M 15679,6352 L 2614,6352"/>
 <path fill="none" stroke="rgb(221,221,221)" stroke-linejoin="round" d="M 15679,6196 L 2614,6196"/>
 <path fill="none" stroke="rgb(221,221,221)" stroke-linejoin="round" d="M 15679,6060 L 2614,6060"/>
 <path fill="none" stroke="rgb(221,221,221)" stroke-linejoin="round" d="M 15679,5940 L 2614,5940"/>
 <path fill="none" stroke="rgb(221,221,221)" stroke-linejoin="round" d="M 15679,5130 L 2614,5130"/>
 <path fill="none" stroke="rgb(221,221,221)" stroke-linejoin="round" d="M 15679,4718 L 2614,4718"/>
 <path fill="none" stroke="rgb(221,221,221)" stroke-linejoin="round" d="M 15679,4427 L 2614,4427"/>
 <path fill="none" stroke="rgb(221,221,221)" stroke-linejoin="round" d="M 15679,4201 L 2614,4201"/>
 <path fill="none" stroke="rgb(221,221,221)" stroke-linejoin="round" d="M 15679,4016 L 2614,4016"/>
 <path fill="none" stroke="rgb(221,221,221)" stroke-linejoin="round" d="M 15679,3860 L 2614,3860"/>
 <path fill="none" stroke="rgb(221,221,221)" stroke-linejoin="round" d="M 15679,3724 L 2614,3724"/>
 <path fill="none" stroke="rgb(221,221,221)" stroke-linejoin="round" d="M 15679,3604 L 2614,3604"/>
 <path fill="none" stroke="rgb(221,221,221)" stroke-linejoin="round" d="M 15679,2794 L 2614,2794"/>
 <path fill="none" stroke="rgb(221,221,221)" stroke-linejoin="round" d="M 15679,2382 L 2614,2382"/>
 <path fill="none" stroke="rgb(221,221,221)" stroke-linejoin="round" d="M 15679,2090 L 2614,2090"/>
 <path fill="none" stroke="rgb(221,221,221)" stroke-linejoin="round" d="M 15679,1864 L 2614,1864"/>
 <path fill="none" stroke="rgb(221,221,221)" stroke-linejoin="round" d="M 15679,1679 L 2614,1679"/>
 <path fill="none" stroke="rgb(221,221,221)" stroke-linejoin="round" d="M 15679,1523 L 2614,1523"/>
 <path fill="none" stroke="rgb(221,221,221)" stroke-linejoin="round" d="M 15679,1387 L 2614,1387"/>
 <path fill="none" stroke="rgb(221,221,221)" stroke-linejoin="round" d="M 15679,1267 L 2614,1267"/>
 <path fill="none" stroke="rgb(179,179,179)" stroke-linejoin="round" d="M 2614,8321 L 2614,8171"/>
 <path fill="none" stroke="rgb(179,179,179)" stroke-linejoin="round" d="M 2614,8321 L 2614,8171"/>
 <path fill="none" stroke="rgb(179,179,179)" stroke-linejoin="round" d="M 5227,8321 L 5227,8171"/>
 <path fill="none" stroke="rgb(179,179,179)" stroke-linejoin="round" d="M 5227,8321 L 5227,8171"/>
 <path fill="none" stroke="rgb(179,179,179)" stroke-linejoin="round" d="M 7840,8321 L 7840,8171"/>
 <path fill="none" stroke="rgb(179,179,179)" stroke-linejoin="round" d="M 7840,8321 L 7840,8171"/>
 <path fill="none" stroke="rgb(179,179,179)" stroke-linejoin="round" d="M 10452,8321 L 10452,8171"/>
 <path fill="none" stroke="rgb(179,179,179)" stroke-linejoin="round" d="M 10452,8321 L 10452,8171"/>
 <path fill="none" stroke="rgb(179,179,179)" stroke-linejoin="round" d="M 13065,8321 L 13065,8171"/>
 <path fill="none" stroke="rgb(179,179,179)" stroke-linejoin="round" d="M 13065,8321 L 13065,8171"/>
 <path fill="none" stroke="rgb(179,179,179)" stroke-linejoin="round" d="M 15679,8321 L 15679,8171"/>
 <path fill="none" stroke="rgb(179,179,179)" stroke-linejoin="round" d="M 15679,8321 L 15679,8171"/>
 <path fill="none" stroke="rgb(179,179,179)" stroke-linejoin="round" d="M 2614,8171 L 15679,8171"/>
 <path fill="none" stroke="rgb(179,179,179)" stroke-linejoin="round" d="M 2464,8171 L 2614,8171"/>
 <path fill="none" stroke="rgb(179,179,179)" stroke-linejoin="round" d="M 2464,8171 L 2614,8171"/>
 <path fill="none" stroke="rgb(179,179,179)" stroke-linejoin="round" d="M 2464,5834 L 2614,5834"/>
 <path fill="none" stroke="rgb(179,179,179)" stroke-linejoin="round" d="M 2464,5834 L 2614,5834"/>
 <path fill="none" stroke="rgb(179,179,179)" stroke-linejoin="round" d="M 2464,3498 L 2614,3498"/>
 <path fill="none" stroke="rgb(179,179,179)" stroke-linejoin="round" d="M 2464,3498 L 2614,3498"/>
 <path fill="none" stroke="rgb(179,179,179)" stroke-linejoin="round" d="M 2464,1161 L 2614,1161"/>
 <path fill="none" stroke="rgb(179,179,179)" stroke-linejoin="round" d="M 2464,1161 L 2614,1161"/>
 <path fill="none" stroke="rgb(179,179,179)" stroke-linejoin="round" d="M 2614,8171 L 2614,1161"/>
 <path fill="rgb(0,69,134)" stroke="none" d="M 13719,8171 L 15025,8171 15025,5657 13719,5657 13719,8171 Z"/>
 <path fill="rgb(0,69,134)" stroke="none" d="M 11105,8171 L 12412,8171 12412,2695 11105,2695 11105,8171 Z"/>
 <path fill="rgb(0,69,134)" stroke="none" d="M 8492,8171 L 9799,8171 9799,4389 8492,4389 8492,8171 Z"/>
 <path fill="rgb(0,69,134)" stroke="none" d="M 5880,8171 L 7187,8171 7187,6734 5880,6734 5880,8171 Z"/>
 <path fill="rgb(0,69,134)" stroke="none" d="M 3267,8171 L 4573,8171 4573,6078 3267,6078 3267,8171 Z"/>
 <text class="TextShape"><tspan class="TextParagraph" font-family="Liberation Sans, sans-serif" font-size="353px" font-weight="400"><tspan class="TextPosition" x="2914" y="8739"><tspan fill="rgb(0,0,0)" stroke="none">blackscholes</tspan></tspan></tspan></text>
 <text class="TextShape"><tspan class="TextParagraph" font-family="Liberation Sans, sans-serif" font-size="353px" font-weight="400"><tspan class="TextPosition" x="5752" y="8739"><tspan fill="rgb(0,0,0)" stroke="none">inversek2j</tspan></tspan></tspan></text>
 <text class="TextShape"><tspan class="TextParagraph" font-family="Liberation Sans, sans-serif" font-size="353px" font-weight="400"><tspan class="TextPosition" x="8684" y="8739"><tspan fill="rgb(0,0,0)" stroke="none">jmeint</tspan></tspan></tspan></text>
 <text class="TextShape"><tspan class="TextParagraph" font-family="Liberation Sans, sans-serif" font-size="353px" font-weight="400"><tspan class="TextPosition" x="11151" y="8739"><tspan fill="rgb(0,0,0)" stroke="none">kmeans</tspan></tspan></tspan></text>
 <text class="TextShape"><tspan class="TextParagraph" font-family="Liberation Sans, sans-serif" font-size="353px" font-weight="400"><tspan class="TextPosition" x="13963" y="8739"><tspan fill="rgb(0,0,0)" stroke="none">sobel</tspan></tspan></tspan></text>
 <text class="TextShape"><tspan class="TextParagraph" font-family="Liberation Sans, sans-serif" font-size="353px" font-weight="400"><tspan class="TextPosition" x="1703" y="8292"><tspan fill="rgb(0,0,0)" stroke="none">0.10</tspan></tspan></tspan></text>
 <text class="TextShape"><tspan class="TextParagraph" font-family="Liberation Sans, sans-serif" font-size="353px" font-weight="400"><tspan class="TextPosition" x="1703" y="5955"><tspan fill="rgb(0,0,0)" stroke="none">1.00</tspan></tspan></tspan></text>
 <text class="TextShape"><tspan class="TextParagraph" font-family="Liberation Sans, sans-serif" font-size="353px" font-weight="400"><tspan class="TextPosition" x="1517" y="3618"><tspan fill="rgb(0,0,0)" stroke="none">10.00</tspan></tspan></tspan></text>
 <text class="TextShape"><tspan class="TextParagraph" font-family="Liberation Sans, sans-serif" font-size="353px" font-weight="400"><tspan class="TextPosition" x="1332" y="1281"><tspan fill="rgb(0,0,0)" stroke="none">100.00</tspan></tspan></tspan></text>
 <text class="TextShape"><tspan class="TextParagraph" font-family="Liberation Sans, sans-serif" font-size="353px" font-weight="400"><tspan class="TextPosition" x="3589" y="5900"><tspan fill="rgb(0,0,0)" stroke="none">0.79</tspan></tspan></tspan></text>
 <text class="TextShape"><tspan class="TextParagraph" font-family="Liberation Sans, sans-serif" font-size="353px" font-weight="400"><tspan class="TextPosition" x="6202" y="6556"><tspan fill="rgb(0,0,0)" stroke="none">0.41</tspan></tspan></tspan></text>
 <text class="TextShape"><tspan class="TextParagraph" font-family="Liberation Sans, sans-serif" font-size="353px" font-weight="400"><tspan class="TextPosition" x="8816" y="4211"><tspan fill="rgb(0,0,0)" stroke="none">4.16</tspan></tspan></tspan></text>
 <text class="TextShape"><tspan class="TextParagraph" font-family="Liberation Sans, sans-serif" font-size="353px" font-weight="400"><tspan class="TextPosition" x="11336" y="2517"><tspan fill="rgb(0,0,0)" stroke="none">22.05</tspan></tspan></tspan></text>
 <text class="TextShape"><tspan class="TextParagraph" font-family="Liberation Sans, sans-serif" font-size="353px" font-weight="400"><tspan class="TextPosition" x="14042" y="5479"><tspan fill="rgb(0,0,0)" stroke="none">1.19</tspan></tspan></tspan></text>
 <path fill="rgb(0,69,134)" stroke="none" d="M 7274,589 L 7169,589 7169,378 7380,378 7380,589 7274,589 Z"/>
 <text class="TextShape"><tspan class="TextParagraph" font-family="Liberation Sans, sans-serif" font-size="353px" font-weight="400"><tspan class="TextPosition" x="7480" y="603"><tspan fill="rgb(0,0,0)" stroke="none">MYRIAD</tspan></tspan></tspan></text>
 <text class="TextShape" transform="rotate(-90 837 6637)"><tspan class="TextParagraph" font-family="Liberation Sans, sans-serif" font-size="318px" font-weight="400"><tspan class="TextPosition" x="837" y="6637"><tspan fill="rgb(0,0,0)" stroke="none">Relative Execution Time</tspan></tspan></tspan></text>
</svg>