<?xml version="1.0" encoding="UTF-8"?>
<!DOCTYPE svg PUBLIC "-//W3C//DTD SVG 1.1//EN" "http://www.w3.org/Graphics/SVG/1.1/DTD/svg11.dtd">
<svg width="171mm" height="107mm" viewBox="0 0 17100 10700" version="1.1" xmlns="http://www.w3.org/2000/svg" xmlns:xlink="http://www.w3.org/1999/xlink" stroke-width="28.222" stroke-linejoin="round" xml:space="preserve">
 <path fill="rgb(255,255,255)" stroke="none" d="M 8551,10738 L 0,10738 0,0 17101,0 17101,10738 8551,10738 Z"/>
 <path fill="none" stroke="rgb(179,179,179)" stroke-linejoin="round" d="M 9214,8896 L 2160,8896 2160,1542 16268,1542 16268,8896 9214,8896 Z"/>
 <path fill="none" stroke="rgb(179,179,179)" stroke-linejoin="round" d="M 2160,1540 L 2160,8894"/>
 <path fill="none" stroke="rgb(179,179,179)" stroke-linejoin="round" d="M 4981,1540 L 4981,8894"/>
 <path fill="none" stroke="rgb(179,179,179)" stroke-linejoin="round" d="M 7803,1540 L 7803,8894"/>
 <path fill="none" stroke="rgb(179,179,179)" stroke-linejoin="round" d="M 10624,1540 L 10624,8894"/>
 <path fill="none" stroke="rgb(179,179,179)" stroke-linejoin="round" d="M 13446,1540 L 13446,8894"/>
 <path fill="none" stroke="rgb(179,179,179)" stroke-linejoin="round" d="M 16268,1540 L 16268,8894"/>
 <path fill="none" stroke="rgb(179,179,179)" stroke-linejoin="round" d="M 16268,8894 L 2160,8894"/>
 <path fill="none" stroke="rgb(179,179,179)" stroke-linejoin="round" d="M 16268,8159 L 2160,8159"/>
 <path fill="none" stroke="rgb(179,179,179)" stroke-linejoin="round" d="M 16268,7423 L 2160,7423"/>
 <path fill="none" stroke="rgb(179,179,179)" stroke-linejoin="round" d="M 16268,6688 L 2160,6688"/>
 <path fill="none" stroke="rgb(179,179,179)" stroke-linejoin="round" d="M 16268,5952 L 2160,5952"/>
 <path fill="none" stroke="rgb(179,179,179)" stroke-linejoin="round" d="M 16268,5218 L 2160,5218"/>
 <path fill="none" stroke="rgb(179,179,179)" stroke-linejoin="round" d="M 16268,4482 L 2160,4482"/>
 <path fill="none" stroke="rgb(179,179,179)" stroke-linejoin="round" d="M 16268,3747 L 2160,3747"/>
 <path fill="none" stroke="rgb(179,179,179)" stroke-linejoin="round" d="M 16268,3011 L 2160,3011"/>
 <path fill="none" stroke="rgb(179,179,179)" stroke-linejoin="round" d="M 16268,2276 L 2160,2276"/>
 <path fill="none" stroke="rgb(179,179,179)" stroke-linejoin="round" d="M 16268,1540 L 2160,1540"/>
 <path fill="none" stroke="rgb(179,179,179)" stroke-linejoin="round" d="M 2160,9044 L 2160,8894"/>
 <path fill="none" stroke="rgb(179,179,179)" stroke-linejoin="round" d="M 2160,9044 L 2160,8894"/>
 <path fill="none" stroke="rgb(179,179,179)" stroke-linejoin="round" d="M 4981,9044 L 4981,8894"/>
 <path fill="none" stroke="rgb(179,179,179)" stroke-linejoin="round" d="M 4981,9044 L 4981,8894"/>
 <path fill="none" stroke="rgb(179,179,179)" stroke-linejoin="round" d="M 7803,9044 L 7803,8894"/>
 <path fill="none" stroke="rgb(179,179,179)" stroke-linejoin="round" d="M 7803,9044 L 7803,8894"/>
 <path fill="none" stroke="rgb(179,179,179)" stroke-linejoin="round" d="M 10624,9044 L 10624,8894"/>
 <path fill="none" stroke="rgb(179,179,179)" stroke-linejoin="round" d="M 10624,9044 L 10624,8894"/>
 <path fill="none" stroke="rgb(179,179,179)" stroke-linejoin="round" d="M 13446,9044 L 13446,8894"/>
 <path fill="none" stroke="rgb(179,179,179)" stroke-linejoin="round" d="M 13446,9044 L 13446,8894"/>
 <path fill="none" stroke="rgb(179,179,179)" stroke-linejoin="round" d="M 16268,9044 L 16268,8894"/>
 <path fill="none" stroke="rgb(179,179,179)" stroke-linejoin="round" d="M 16268,9044 L 16268,8894"/>
 <path fill="none" stroke="rgb(179,179,179)" stroke-linejoin="round" d="M 2160,8894 L 16268,8894"/>
 <path fill="none" stroke="rgb(179,179,179)" stroke-linejoin="round" d="M 2010,8894 L 2160,8894"/>
 <path fill="none" stroke="rgb(179,179,179)" stroke-linejoin="round" d="M 2010,8894 L 2160,8894"/>
 <path fill="none" stroke="rgb(179,179,179)" stroke-linejoin="round" d="M 2010,8159 L 2160,8159"/>
 <path fill="none" stroke="rgb(179,179,179)" stroke-linejoin="round" d="M 2010,8159 L 2160,8159"/>
 <path fill="none" stroke="rgb(179,179,179)" stroke-linejoin="round" d="M 2010,7423 L 2160,7423"/>
 <path fill="none" stroke="rgb(179,179,179)" stroke-linejoin="round" d="M 2010,7423 L 2160,7423"/>
 <path fill="none" stroke="rgb(179,179,179)" stroke-linejoin="round" d="M 2010,6688 L 2160,6688"/>
 <path fill="none" stroke="rgb(179,179,179)" stroke-linejoin="round" d="M 2010,6688 L 2160,6688"/>
 <path fill="none" stroke="rgb(179,179,179)" stroke-linejoin="round" d="M 2010,5952 L 2160,5952"/>
 <path fill="none" stroke="rgb(179,179,179)" stroke-linejoin="round" d="M 2010,5952 L 2160,5952"/>
 <path fill="none" stroke="rgb(179,179,179)" stroke-linejoin="round" d="M 2010,5218 L 2160,5218"/>
 <path fill="none" stroke="rgb(179,179,179)" stroke-linejoin="round" d="M 2010,5218 L 2160,5218"/>
 <path fill="none" stroke="rgb(179,179,179)" stroke-linejoin="round" d="M 2010,4482 L 2160,4482"/>
 <path fill="none" stroke="rgb(179,179,179)" stroke-linejoin="round" d="M 2010,4482 L 2160,4482"/>
 <path fill="none" stroke="rgb(179,179,179)" stroke-linejoin="round" d="M 2010,3747 L 2160,3747"/>
 <path fill="none" stroke="rgb(179,179,179)" stroke-linejoin="round" d="M 2010,3747 L 2160,3747"/>
 <path fill="none" stroke="rgb(179,179,179)" stroke-linejoin="round" d="M 2010,3011 L 2160,3011"/>
 <path fill="none" stroke="rgb(179,179,179)" stroke-linejoin="round" d="M 2010,3011 L 2160,3011"/>
 <path fill="none" stroke="rgb(179,179,179)" stroke-linejoin="round" d="M 2010,2276 L 2160,2276"/>
 <path fill="none" stroke="rgb(179,179,179)" stroke-linejoin="round" d="M 2010,2276 L 2160,2276"/>
 <path fill="none" stroke="rgb(179,179,179)" stroke-linejoin="round" d="M 2010,1540 L 2160,1540"/>
 <path fill="none" stroke="rgb(179,179,179)" stroke-linejoin="round" d="M 2010,1540 L 2160,1540"/>
 <path fill="none" stroke="rgb(179,179,179)" stroke-linejoin="round" d="M 2160,8894 L 2160,1540"/>
 <path fill="rgb(0,69,134)" stroke="none" d="M 7678,3385 L 7678,3635 7928,3635 7928,3385 7678,3385 Z"/>
 <path fill="none" stroke="rgb(0,69,134)" stroke-linejoin="round" d="M 7678,3385 L 7678,3635 7928,3635 7928,3385 7678,3385 Z"/>
 <path fill="rgb(0,69,134)" stroke="none" d="M 13321,2166 L 13321,2416 13571,2416 13571,2166 13321,2166 Z"/>
 <path fill="none" stroke="rgb(0,69,134)" stroke-linejoin="round" d="M 13321,2166 L 13321,2416 13571,2416 13571,2166 13321,2166 Z"/>
 <path fill="rgb(0,69,134)" stroke="none" d="M 11440,2597 L 11440,2847 11690,2847 11690,2597 11440,2597 Z"/>
 <path fill="none" stroke="rgb(0,69,134)" stroke-linejoin="round" d="M 11440,2597 L 11440,2847 11690,2847 11690,2597 11440,2597 Z"/>
 <path fill="rgb(0,69,134)" stroke="none" d="M 4856,2519 L 4856,2769 5106,2769 5106,2519 4856,2519 Z"/>
 <path fill="none" stroke="rgb(0,69,134)" stroke-linejoin="round" d="M 4856,2519 L 4856,2769 5106,2769 5106,2519 4856,2519 Z"/>
 <path fill="rgb(0,69,134)" stroke="none" d="M 2975,4557 L 2975,4807 3225,4807 3225,4557 2975,4557 Z"/>
 <path fill="none" stroke="rgb(0,69,134)" stroke-linejoin="round" d="M 2975,4557 L 2975,4807 3225,4807 3225,4557 2975,4557 Z"/>
 <path fill="rgb(0,69,134)" stroke="none" d="M 13321,8032 L 13321,8282 13571,8282 13571,8032 13321,8032 Z"/>
 <path fill="none" stroke="rgb(0,69,134)" stroke-linejoin="round" d="M 13321,8032 L 13321,8282 13571,8282 13571,8032 13321,8032 Z"/>
 <path fill="rgb(0,69,134)" stroke="none" d="M 13321,2033 L 13321,2283 13571,2283 13571,2033 13321,2033 Z"/>
 <path fill="none" stroke="rgb(0,69,134)" stroke-linejoin="round" d="M 13321,2033 L 13321,2283 13571,2283 13571,2033 13321,2033 Z"/>
 <text class="TextShape"><tspan class="TextParagraph" font-family="Liberation Sans, sans-serif" font-size="353px" font-weight="400"><tspan class="TextPosition" x="1670" y="9462"><tspan fill="rgb(0,0,0)" stroke="none">94.5%</tspan></tspan></tspan></text>
 <text class="TextShape"><tspan class="TextParagraph" font-family="Liberation Sans, sans-serif" font-size="353px" font-weight="400"><tspan class="TextPosition" x="4491" y="9462"><tspan fill="rgb(0,0,0)" stroke="none">95.0%</tspan></tspan></tspan></text>
 <text class="TextShape"><tspan class="TextParagraph" font-family="Liberation Sans, sans-serif" font-size="353px" font-weight="400"><tspan class="TextPosition" x="7313" y="9462"><tspan fill="rgb(0,0,0)" stroke="none">95.5%</tspan></tspan></tspan></text>
 <text class="TextShape"><tspan class="TextParagraph" font-family="Liberation Sans, sans-serif" font-size="353px" font-weight="400"><tspan class="TextPosition" x="10135" y="9462"><tspan fill="rgb(0,0,0)" stroke="none">96.0%</tspan></tspan></tspan></text>
 <text class="TextShape"><tspan class="TextParagraph" font-family="Liberation Sans, sans-serif" font-size="353px" font-weight="400"><tspan class="TextPosition" x="12957" y="9462"><tspan fill="rgb(0,0,0)" stroke="none">96.5%</tspan></tspan></tspan></text>
 <text class="TextShape"><tspan class="TextParagraph" font-family="Liberation Sans, sans-serif" font-size="353px" font-weight="400"><tspan class="TextPosition" x="15779" y="9462"><tspan fill="rgb(0,0,0)" stroke="none">97.0%</tspan></tspan></tspan></text>
 <text class="TextShape"><tspan class="TextParagraph" font-family="Liberation Sans, sans-serif" font-size="353px" font-weight="400"><tspan class="TextPosition" x="1354" y="9015"><tspan fill="rgb(0,0,0)" stroke="none">580</tspan></tspan></tspan></text>
 <text class="TextShape"><tspan class="TextParagraph" font-family="Liberation Sans, sans-serif" font-size="353px" font-weight="400"><tspan class="TextPosition" x="1354" y="8280"><tspan fill="rgb(0,0,0)" stroke="none">590</tspan></tspan></tspan></text>
 <text class="TextShape"><tspan class="TextParagraph" font-family="Liberation Sans, sans-serif" font-size="353px" font-weight="400"><tspan class="TextPosition" x="1354" y="7544"><tspan fill="rgb(0,0,0)" stroke="none">600</tspan></tspan></tspan></text>
 <text class="TextShape"><tspan class="TextParagraph" font-family="Liberation Sans, sans-serif" font-size="353px" font-weight="400"><tspan class="TextPosition" x="1354" y="6809"><tspan fill="rgb(0,0,0)" stroke="none">610</tspan></tspan></tspan></text>
 <text class="TextShape"><tspan class="TextParagraph" font-family="Liberation Sans, sans-serif" font-size="353px" font-weight="400"><tspan class="TextPosition" x="1354" y="6073"><tspan fill="rgb(0,0,0)" stroke="none">620</tspan></tspan></tspan></text>
 <text class="TextShape"><tspan class="TextParagraph" font-family="Liberation Sans, sans-serif" font-size="353px" font-weight="400"><tspan class="TextPosition" x="1354" y="5338"><tspan fill="rgb(0,0,0)" stroke="none">630</tspan></tspan></tspan></text>
 <text class="TextShape"><tspan class="TextParagraph" font-family="Liberation Sans, sans-serif" font-size="353px" font-weight="400"><tspan class="TextPosition" x="1354" y="4602"><tspan fill="rgb(0,0,0)" stroke="none">640</tspan></tspan></tspan></text>
 <text class="TextShape"><tspan class="TextParagraph" font-family="Liberation Sans, sans-serif" font-size="353px" font-weight="400"><tspan class="TextPosition" x="1354" y="3867"><tspan fill="rgb(0,0,0)" stroke="none">650</tspan></tspan></tspan></text>
 <text class="TextShape"><tspan class="TextParagraph" font-family="Liberation Sans, sans-serif" font-size="353px" font-weight="400"><tspan class="TextPosition" x="1354" y="3131"><tspan fill="rgb(0,0,0)" stroke="none">660</tspan></tspan></tspan></text>
 <text class="TextShape"><tspan class="TextParagraph" font-family="Liberation Sans, sans-serif" font-size="353px" font-weight="400"><tspan class="TextPosition" x="1354" y="2396"><tspan fill="rgb(0,0,0)" stroke="none">670</tspan></tspan></tspan></text>
 <text class="TextShape"><tspan class="TextParagraph" font-family="Liberation Sans, sans-serif" font-size="353px" font-weight="400"><tspan class="TextPosition" x="1354" y="1660"><tspan fill="rgb(0,0,0)" stroke="none">680</tspan></tspan></tspan></text>
 <text class="TextShape"><tspan class="TextParagraph" font-family="Liberation Sans, sans-serif" font-size="353px" font-weight="400"><tspan class="TextPosition" x="7141" y="3206"><tspan fill="rgb(0,0,0)" stroke="none">Baseline</tspan></tspan></tspan></text>
 <text class="TextShape"><tspan class="TextParagraph" font-family="Liberation Sans, sans-serif" font-size="353px" font-weight="400"><tspan class="TextPosition" x="12441" y="2835"><tspan fill="rgb(0,0,0)" stroke="none">Red. In. Size</tspan></tspan></tspan></text>
 <text class="TextShape"><tspan class="TextParagraph" font-family="Liberation Sans, sans-serif" font-size="353px" font-weight="400"><tspan class="TextPosition" x="10335" y="2418"><tspan fill="rgb(0,0,0)" stroke="none">Red. Layer Size</tspan></tspan></tspan></text>
 <text class="TextShape"><tspan class="TextParagraph" font-family="Liberation Sans, sans-serif" font-size="353px" font-weight="400"><tspan class="TextPosition" x="4399" y="2340"><tspan fill="rgb(0,0,0)" stroke="none">Pruning</tspan></tspan></tspan></text>
 <text class="TextShape"><tspan class="TextParagraph" font-family="Liberation Sans, sans-serif" font-size="353px" font-weight="400"><tspan class="TextPosition" x="2240" y="4378"><tspan fill="rgb(0,0,0)" stroke="none">Sep. Conv.</tspan></tspan></tspan></text>
 <text class="TextShape"><tspan class="TextParagraph" font-family="Liberation Sans, sans-serif" font-size="353px" font-weight="400"><tspan class="TextPosition" x="12679" y="7853"><tspan fill="rgb(0,0,0)" stroke="none">Combined</tspan></tspan></tspan></text>
 <text class="TextShape"><tspan class="TextParagraph" font-family="Liberation Sans, sans-serif" font-size="353px" font-weight="400"><tspan class="TextPosition" x="11529" y="1854"><tspan fill="rgb(0,0,0)" stroke="none">Combined no Sep. Conv.</tspan></tspan></tspan></text>
 <text class="TextShape"><tspan class="TextParagraph" font-family="Liberation Sans, sans-serif" font-size="459px" font-weight="400"><tspan class="TextPosition" x="3801" y="885"><tspan fill="rgb(0,0,0)" stroke="none">Audio Classification - Performance vs Accuracy</tspan></tspan></tspan></text>
 <text class="TextShape"><tspan class="TextParagraph" font-family="Liberation Sans, sans-serif" font-size="318px" font-weight="400"><tspan class="TextPosition" x="8103" y="10144"><tspan fill="rgb(0,0,0)" stroke="none">Accuracy (%)</tspan></tspan></tspan></text>
 <text class="TextShape" transform="rotate(-90 837 7387)"><tspan class="TextParagraph" font-family="Liberation Sans, sans-serif" font-size="318px" font-weight="400"><tspan class="TextPosition" x="837" y="7387"><tspan fill="rgb(0,0,0)" stroke="none">Performance (inferences/s)</tspan></tspan></tspan></text>
</svg>