<?xml version="1.0" encoding="UTF-8"?>
<!DOCTYPE svg PUBLIC "-//W3C//DTD SVG 1.1//EN" "http://www.w3.org/Graphics/SVG/1.1/DTD/svg11.dtd">
<svg width="171mm" height="107mm" viewBox="0 0 17100 10700" version="1.1" xmlns="http://www.w3.org/2000/svg" xmlns:xlink="http://www.w3.org/1999/xlink" stroke-width="28.222" stroke-linejoin="round" xml:space="preserve">
 <path fill="rgb(255,255,255)" stroke="none" d="M 8551,10738 L 0,10738 0,0 17101,0 17101,10738 8551,10738 Z"/>
 <path fill="none" stroke="rgb(179,179,179)" stroke-linejoin="round" d="M 9214,8896 L 2160,8896 2160,1542 16268,1542 16268,8896 9214,8896 Z"/>
 <path fill="none" stroke="rgb(179,179,179)" stroke-linejoin="round" d="M 2159,1541 L 2159,8895"/>
 <path fill="none" stroke="rgb(179,179,179)" stroke-linejoin="round" d="M 3570,1541 L 3570,8895"/>
 <path fill="none" stroke="rgb(179,179,179)" stroke-linejoin="round" d="M 4981,1541 L 4981,8895"/>
 <path fill="none" stroke="rgb(179,179,179)" stroke-linejoin="round" d="M 6392,1541 L 6392,8895"/>
 <path fill="none" stroke="rgb(179,179,179)" stroke-linejoin="round" d="M 7803,1541 L 7803,8895"/>
 <path fill="none" stroke="rgb(179,179,179)" stroke-linejoin="round" d="M 9213,1541 L 9213,8895"/>
 <path fill="none" stroke="rgb(179,179,179)" stroke-linejoin="round" d="M 10624,1541 L 10624,8895"/>
 <path fill="none" stroke="rgb(179,179,179)" stroke-linejoin="round" d="M 12035,1541 L 12035,8895"/>
 <path fill="none" stroke="rgb(179,179,179)" stroke-linejoin="round" d="M 13446,1541 L 13446,8895"/>
 <path fill="none" stroke="rgb(179,179,179)" stroke-linejoin="round" d="M 14857,1541 L 14857,8895"/>
 <path fill="none" stroke="rgb(179,179,179)" stroke-linejoin="round" d="M 16268,1541 L 16268,8895"/>
 <path fill="none" stroke="rgb(179,179,179)" stroke-linejoin="round" d="M 16267,8895 L 2159,8895"/>
 <path fill="none" stroke="rgb(179,179,179)" stroke-linejoin="round" d="M 16267,8077 L 2159,8077"/>
 <path fill="none" stroke="rgb(179,179,179)" stroke-linejoin="round" d="M 16267,7260 L 2159,7260"/>
 <path fill="none" stroke="rgb(179,179,179)" stroke-linejoin="round" d="M 16267,6443 L 2159,6443"/>
 <path fill="none" stroke="rgb(179,179,179)" stroke-linejoin="round" d="M 16267,5626 L 2159,5626"/>
 <path fill="none" stroke="rgb(179,179,179)" stroke-linejoin="round" d="M 16267,4809 L 2159,4809"/>
 <path fill="none" stroke="rgb(179,179,179)" stroke-linejoin="round" d="M 16267,3992 L 2159,3992"/>
 <path fill="none" stroke="rgb(179,179,179)" stroke-linejoin="round" d="M 16267,3175 L 2159,3175"/>
 <path fill="none" stroke="rgb(179,179,179)" stroke-linejoin="round" d="M 16267,2358 L 2159,2358"/>
 <path fill="none" stroke="rgb(179,179,179)" stroke-linejoin="round" d="M 16267,1541 L 2159,1541"/>
 <path fill="none" stroke="rgb(179,179,179)" stroke-linejoin="round" d="M 2159,9045 L 2159,8895"/>
 <path fill="none" stroke="rgb(179,179,179)" stroke-linejoin="round" d="M 2159,9045 L 2159,8895"/>
 <path fill="none" stroke="rgb(179,179,179)" stroke-linejoin="round" d="M 3570,9045 L 3570,8895"/>
 <path fill="none" stroke="rgb(179,179,179)" stroke-linejoin="round" d="M 3570,9045 L 3570,8895"/>
 <path fill="none" stroke="rgb(179,179,179)" stroke-linejoin="round" d="M 4981,9045 L 4981,8895"/>
 <path fill="none" stroke="rgb(179,179,179)" stroke-linejoin="round" d="M 4981,9045 L 4981,8895"/>
 <path fill="none" stroke="rgb(179,179,179)" stroke-linejoin="round" d="M 6392,9045 L 6392,8895"/>
 <path fill="none" stroke="rgb(179,179,179)" stroke-linejoin="round" d="M 6392,9045 L 6392,8895"/>
 <path fill="none" stroke="rgb(179,179,179)" stroke-linejoin="round" d="M 7803,9045 L 7803,8895"/>
 <path fill="none" stroke="rgb(179,179,179)" stroke-linejoin="round" d="M 7803,9045 L 7803,8895"/>
 <path fill="none" stroke="rgb(179,179,179)" stroke-linejoin="round" d="M 9213,9045 L 9213,8895"/>
 <path fill="none" stroke="rgb(179,179,179)" stroke-linejoin="round" d="M 9213,9045 L 9213,8895"/>
 <path fill="none" stroke="rgb(179,179,179)" stroke-linejoin="round" d="M 10624,9045 L 10624,8895"/>
 <path fill="none" stroke="rgb(179,179,179)" stroke-linejoin="round" d="M 10624,9045 L 10624,8895"/>
 <path fill="none" stroke="rgb(179,179,179)" stroke-linejoin="round" d="M 12035,9045 L 12035,8895"/>
 <path fill="none" stroke="rgb(179,179,179)" stroke-linejoin="round" d="M 12035,9045 L 12035,8895"/>
 <path fill="none" stroke="rgb(179,179,179)" stroke-linejoin="round" d="M 13446,9045 L 13446,8895"/>
 <path fill="none" stroke="rgb(179,179,179)" stroke-linejoin="round" d="M 13446,9045 L 13446,8895"/>
 <path fill="none" stroke="rgb(179,179,179)" stroke-linejoin="round" d="M 14857,9045 L 14857,8895"/>
 <path fill="none" stroke="rgb(179,179,179)" stroke-linejoin="round" d="M 14857,9045 L 14857,8895"/>
 <path fill="none" stroke="rgb(179,179,179)" stroke-linejoin="round" d="M 16267,9045 L 16267,8895"/>
 <path fill="none" stroke="rgb(179,179,179)" stroke-linejoin="round" d="M 16267,9045 L 16267,8895"/>
 <path fill="none" stroke="rgb(179,179,179)" stroke-linejoin="round" d="M 2159,8895 L 16267,8895"/>
 <path fill="none" stroke="rgb(179,179,179)" stroke-linejoin="round" d="M 2009,8895 L 2159,8895"/>
 <path fill="none" stroke="rgb(179,179,179)" stroke-linejoin="round" d="M 2009,8895 L 2159,8895"/>
 <path fill="none" stroke="rgb(179,179,179)" stroke-linejoin="round" d="M 2009,8077 L 2159,8077"/>
 <path fill="none" stroke="rgb(179,179,179)" stroke-linejoin="round" d="M 2009,8077 L 2159,8077"/>
 <path fill="none" stroke="rgb(179,179,179)" stroke-linejoin="round" d="M 2009,7260 L 2159,7260"/>
 <path fill="none" stroke="rgb(179,179,179)" stroke-linejoin="round" d="M 2009,7260 L 2159,7260"/>
 <path fill="none" stroke="rgb(179,179,179)" stroke-linejoin="round" d="M 2009,6443 L 2159,6443"/>
 <path fill="none" stroke="rgb(179,179,179)" stroke-linejoin="round" d="M 2009,6443 L 2159,6443"/>
 <path fill="none" stroke="rgb(179,179,179)" stroke-linejoin="round" d="M 2009,5626 L 2159,5626"/>
 <path fill="none" stroke="rgb(179,179,179)" stroke-linejoin="round" d="M 2009,5626 L 2159,5626"/>
 <path fill="none" stroke="rgb(179,179,179)" stroke-linejoin="round" d="M 2009,4809 L 2159,4809"/>
 <path fill="none" stroke="rgb(179,179,179)" stroke-linejoin="round" d="M 2009,4809 L 2159,4809"/>
 <path fill="none" stroke="rgb(179,179,179)" stroke-linejoin="round" d="M 2009,3992 L 2159,3992"/>
 <path fill="none" stroke="rgb(179,179,179)" stroke-linejoin="round" d="M 2009,3992 L 2159,3992"/>
 <path fill="none" stroke="rgb(179,179,179)" stroke-linejoin="round" d="M 2009,3175 L 2159,3175"/>
 <path fill="none" stroke="rgb(179,179,179)" stroke-linejoin="round" d="M 2009,3175 L 2159,3175"/>
 <path fill="none" stroke="rgb(179,179,179)" stroke-linejoin="round" d="M 2009,2358 L 2159,2358"/>
 <path fill="none" stroke="rgb(179,179,179)" stroke-linejoin="round" d="M 2009,2358 L 2159,2358"/>
 <path fill="none" stroke="rgb(179,179,179)" stroke-linejoin="round" d="M 2009,1541 L 2159,1541"/>
 <path fill="none" stroke="rgb(179,179,179)" stroke-linejoin="round" d="M 2009,1541 L 2159,1541"/>
 <path fill="none" stroke="rgb(179,179,179)" stroke-linejoin="round" d="M 2159,8895 L 2159,1541"/>
 <path fill="rgb(0,69,134)" stroke="none" d="M 13622,2886 L 13622,3136 13872,3136 13872,2886 13622,2886 Z"/>
 <path fill="none" stroke="rgb(0,69,134)" stroke-linejoin="round" d="M 13622,2886 L 13622,3136 13872,3136 13872,2886 13622,2886 Z"/>
 <path fill="rgb(0,69,134)" stroke="none" d="M 14094,2684 L 14094,2934 14344,2934 14344,2684 14094,2684 Z"/>
 <path fill="none" stroke="rgb(0,69,134)" stroke-linejoin="round" d="M 14094,2684 L 14094,2934 14344,2934 14344,2684 14094,2684 Z"/>
 <path fill="rgb(0,69,134)" stroke="none" d="M 13995,3059 L 13995,3309 14245,3309 14245,3059 13995,3059 Z"/>
 <path fill="none" stroke="rgb(0,69,134)" stroke-linejoin="round" d="M 13995,3059 L 13995,3309 14245,3309 14245,3059 13995,3059 Z"/>
 <path fill="rgb(0,69,134)" stroke="none" d="M 10338,2799 L 10338,3049 10588,3049 10588,2799 10338,2799 Z"/>
 <path fill="none" stroke="rgb(0,69,134)" stroke-linejoin="round" d="M 10338,2799 L 10338,3049 10588,3049 10588,2799 10338,2799 Z"/>
 <path fill="rgb(0,69,134)" stroke="none" d="M 14306,8001 L 14306,8251 14556,8251 14556,8001 14306,8001 Z"/>
 <path fill="none" stroke="rgb(0,69,134)" stroke-linejoin="round" d="M 14306,8001 L 14306,8251 14556,8251 14556,8001 14306,8001 Z"/>
 <path fill="rgb(0,69,134)" stroke="none" d="M 3598,5037 L 3598,5287 3848,5287 3848,5037 3598,5037 Z"/>
 <path fill="none" stroke="rgb(0,69,134)" stroke-linejoin="round" d="M 3598,5037 L 3598,5287 3848,5287 3848,5037 3598,5037 Z"/>
 <path fill="rgb(0,69,134)" stroke="none" d="M 4108,2427 L 4108,2677 4358,2677 4358,2427 4108,2427 Z"/>
 <path fill="none" stroke="rgb(0,69,134)" stroke-linejoin="round" d="M 4108,2427 L 4108,2677 4358,2677 4358,2427 4108,2427 Z"/>
 <text class="TextShape"><tspan class="TextParagraph" font-family="Liberation Sans, sans-serif" font-size="353px" font-weight="400"><tspan class="TextPosition" x="1669" y="9463"><tspan fill="rgb(0,0,0)" stroke="none">93.5%</tspan></tspan></tspan></text>
 <text class="TextShape"><tspan class="TextParagraph" font-family="Liberation Sans, sans-serif" font-size="353px" font-weight="400"><tspan class="TextPosition" x="3080" y="9463"><tspan fill="rgb(0,0,0)" stroke="none">94.0%</tspan></tspan></tspan></text>
 <text class="TextShape"><tspan class="TextParagraph" font-family="Liberation Sans, sans-serif" font-size="353px" font-weight="400"><tspan class="TextPosition" x="4491" y="9463"><tspan fill="rgb(0,0,0)" stroke="none">94.5%</tspan></tspan></tspan></text>
 <text class="TextShape"><tspan class="TextParagraph" font-family="Liberation Sans, sans-serif" font-size="353px" font-weight="400"><tspan class="TextPosition" x="5902" y="9463"><tspan fill="rgb(0,0,0)" stroke="none">95.0%</tspan></tspan></tspan></text>
 <text class="TextShape"><tspan class="TextParagraph" font-family="Liberation Sans, sans-serif" font-size="353px" font-weight="400"><tspan class="TextPosition" x="7313" y="9463"><tspan fill="rgb(0,0,0)" stroke="none">95.5%</tspan></tspan></tspan></text>
 <text class="TextShape"><tspan class="TextParagraph" font-family="Liberation Sans, sans-serif" font-size="353px" font-weight="400"><tspan class="TextPosition" x="8724" y="9463"><tspan fill="rgb(0,0,0)" stroke="none">96.0%</tspan></tspan></tspan></text>
 <text class="TextShape"><tspan class="TextParagraph" font-family="Liberation Sans, sans-serif" font-size="353px" font-weight="400"><tspan class="TextPosition" x="10135" y="9463"><tspan fill="rgb(0,0,0)" stroke="none">96.5%</tspan></tspan></tspan></text>
 <text class="TextShape"><tspan class="TextParagraph" font-family="Liberation Sans, sans-serif" font-size="353px" font-weight="400"><tspan class="TextPosition" x="11546" y="9463"><tspan fill="rgb(0,0,0)" stroke="none">97.0%</tspan></tspan></tspan></text>
 <text class="TextShape"><tspan class="TextParagraph" font-family="Liberation Sans, sans-serif" font-size="353px" font-weight="400"><tspan class="TextPosition" x="12957" y="9463"><tspan fill="rgb(0,0,0)" stroke="none">97.5%</tspan></tspan></tspan></text>
 <text class="TextShape"><tspan class="TextParagraph" font-family="Liberation Sans, sans-serif" font-size="353px" font-weight="400"><tspan class="TextPosition" x="14368" y="9463"><tspan fill="rgb(0,0,0)" stroke="none">98.0%</tspan></tspan></tspan></text>
 <text class="TextShape"><tspan class="TextParagraph" font-family="Liberation Sans, sans-serif" font-size="353px" font-weight="400"><tspan class="TextPosition" x="15778" y="9463"><tspan fill="rgb(0,0,0)" stroke="none">98.5%</tspan></tspan></tspan></text>
 <text class="TextShape"><tspan class="TextParagraph" font-family="Liberation Sans, sans-serif" font-size="353px" font-weight="400"><tspan class="TextPosition" x="1353" y="9016"><tspan fill="rgb(0,0,0)" stroke="none">480</tspan></tspan></tspan></text>
 <text class="TextShape"><tspan class="TextParagraph" font-family="Liberation Sans, sans-serif" font-size="353px" font-weight="400"><tspan class="TextPosition" x="1353" y="8198"><tspan fill="rgb(0,0,0)" stroke="none">490</tspan></tspan></tspan></text>
 <text class="TextShape"><tspan class="TextParagraph" font-family="Liberation Sans, sans-serif" font-size="353px" font-weight="400"><tspan class="TextPosition" x="1353" y="7381"><tspan fill="rgb(0,0,0)" stroke="none">500</tspan></tspan></tspan></text>
 <text class="TextShape"><tspan class="TextParagraph" font-family="Liberation Sans, sans-serif" font-size="353px" font-weight="400"><tspan class="TextPosition" x="1353" y="6564"><tspan fill="rgb(0,0,0)" stroke="none">510</tspan></tspan></tspan></text>
 <text class="TextShape"><tspan class="TextParagraph" font-family="Liberation Sans, sans-serif" font-size="353px" font-weight="400"><tspan class="TextPosition" x="1353" y="5747"><tspan fill="rgb(0,0,0)" stroke="none">520</tspan></tspan></tspan></text>
 <text class="TextShape"><tspan class="TextParagraph" font-family="Liberation Sans, sans-serif" font-size="353px" font-weight="400"><tspan class="TextPosition" x="1353" y="4929"><tspan fill="rgb(0,0,0)" stroke="none">530</tspan></tspan></tspan></text>
 <text class="TextShape"><tspan class="TextParagraph" font-family="Liberation Sans, sans-serif" font-size="353px" font-weight="400"><tspan class="TextPosition" x="1353" y="4112"><tspan fill="rgb(0,0,0)" stroke="none">540</tspan></tspan></tspan></text>
 <text class="TextShape"><tspan class="TextParagraph" font-family="Liberation Sans, sans-serif" font-size="353px" font-weight="400"><tspan class="TextPosition" x="1353" y="3295"><tspan fill="rgb(0,0,0)" stroke="none">550</tspan></tspan></tspan></text>
 <text class="TextShape"><tspan class="TextParagraph" font-family="Liberation Sans, sans-serif" font-size="353px" font-weight="400"><tspan class="TextPosition" x="1353" y="2478"><tspan fill="rgb(0,0,0)" stroke="none">560</tspan></tspan></tspan></text>
 <text class="TextShape"><tspan class="TextParagraph" font-family="Liberation Sans, sans-serif" font-size="353px" font-weight="400"><tspan class="TextPosition" x="1353" y="1661"><tspan fill="rgb(0,0,0)" stroke="none">570</tspan></tspan></tspan></text>
 <text class="TextShape"><tspan class="TextParagraph" font-family="Liberation Sans, sans-serif" font-size="353px" font-weight="400"><tspan class="TextPosition" x="12198" y="3131"><tspan fill="rgb(0,0,0)" stroke="none">Baseline</tspan></tspan></tspan></text>
 <text class="TextShape"><tspan class="TextParagraph" font-family="Liberation Sans, sans-serif" font-size="353px" font-weight="400"><tspan class="TextPosition" x="13214" y="2505"><tspan fill="rgb(0,0,0)" stroke="none">Red. In. Size</tspan></tspan></tspan></text>
 <text class="TextShape"><tspan class="TextParagraph" font-family="Liberation Sans, sans-serif" font-size="353px" font-weight="400"><tspan class="TextPosition" x="12890" y="3728"><tspan fill="rgb(0,0,0)" stroke="none">Red. Layer Size</tspan></tspan></tspan></text>
 <text class="TextShape"><tspan class="TextParagraph" font-family="Liberation Sans, sans-serif" font-size="353px" font-weight="400"><tspan class="TextPosition" x="9882" y="2620"><tspan fill="rgb(0,0,0)" stroke="none">Pruning</tspan></tspan></tspan></text>
 <text class="TextShape"><tspan class="TextParagraph" font-family="Liberation Sans, sans-serif" font-size="353px" font-weight="400"><tspan class="TextPosition" x="13572" y="7822"><tspan fill="rgb(0,0,0)" stroke="none">Sep. Conv.</tspan></tspan></tspan></text>
 <text class="TextShape"><tspan class="TextParagraph" font-family="Liberation Sans, sans-serif" font-size="353px" font-weight="400"><tspan class="TextPosition" x="2955" y="4858"><tspan fill="rgb(0,0,0)" stroke="none">Combined</tspan></tspan></tspan></text>
 <text class="TextShape"><tspan class="TextParagraph" font-family="Liberation Sans, sans-serif" font-size="353px" font-weight="400"><tspan class="TextPosition" x="2315" y="2248"><tspan fill="rgb(0,0,0)" stroke="none">Combined no Sep. Conv.</tspan></tspan></tspan></text>
 <text class="TextShape"><tspan class="TextParagraph" font-family="Liberation Sans, sans-serif" font-size="459px" font-weight="400"><tspan class="TextPosition" x="3907" y="885"><tspan fill="rgb(0,0,0)" stroke="none">Fruit Classification - Performance vs Accuracy</tspan></tspan></tspan></text>
 <text class="TextShape"><tspan class="TextParagraph" font-family="Liberation Sans, sans-serif" font-size="318px" font-weight="400"><tspan class="TextPosition" x="8103" y="10144"><tspan fill="rgb(0,0,0)" stroke="none">Accuracy (%)</tspan></tspan></tspan></text>
 <text class="TextShape" transform="rotate(-90 837 7387)"><tspan class="TextParagraph" font-family="Liberation Sans, sans-serif" font-size="318px" font-weight="400"><tspan class="TextPosition" x="837" y="7387"><tspan fill="rgb(0,0,0)" stroke="none">Performance (inferences/s)</tspan></tspan></tspan></text>
</svg>