<?xml version="1.0" encoding="UTF-8"?>
<!DOCTYPE svg PUBLIC "-//W3C//DTD SVG 1.1//EN" "http://www.w3.org/Graphics/SVG/1.1/DTD/svg11.dtd">
<svg width="171mm" height="107mm" viewBox="0 0 17100 10700" version="1.1" xmlns="http://www.w3.org/2000/svg" xmlns:xlink="http://www.w3.org/1999/xlink" stroke-width="28.222" stroke-linejoin="round" xml:space="preserve">
 <path fill="rgb(255,255,255)" stroke="none" d="M 8551,10738 L 0,10738 0,0 17101,0 17101,10738 8551,10738 Z"/>
 <path fill="none" stroke="rgb(179,179,179)" stroke-linejoin="round" d="M 9213,8896 L 2160,8896 2160,1542 16267,1542 16267,8896 9213,8896 Z"/>
 <path fill="none" stroke="rgb(179,179,179)" stroke-linejoin="round" d="M 2160,1541 L 2160,8895"/>
 <path fill="none" stroke="rgb(179,179,179)" stroke-linejoin="round" d="M 3570,1541 L 3570,8895"/>
 <path fill="none" stroke="rgb(179,179,179)" stroke-linejoin="round" d="M 4981,1541 L 4981,8895"/>
 <path fill="none" stroke="rgb(179,179,179)" stroke-linejoin="round" d="M 6392,1541 L 6392,8895"/>
 <path fill="none" stroke="rgb(179,179,179)" stroke-linejoin="round" d="M 7803,1541 L 7803,8895"/>
 <path fill="none" stroke="rgb(179,179,179)" stroke-linejoin="round" d="M 9213,1541 L 9213,8895"/>
 <path fill="none" stroke="rgb(179,179,179)" stroke-linejoin="round" d="M 10623,1541 L 10623,8895"/>
 <path fill="none" stroke="rgb(179,179,179)" stroke-linejoin="round" d="M 12034,1541 L 12034,8895"/>
 <path fill="none" stroke="rgb(179,179,179)" stroke-linejoin="round" d="M 13445,1541 L 13445,8895"/>
 <path fill="none" stroke="rgb(179,179,179)" stroke-linejoin="round" d="M 14856,1541 L 14856,8895"/>
 <path fill="none" stroke="rgb(179,179,179)" stroke-linejoin="round" d="M 16267,1541 L 16267,8895"/>
 <path fill="none" stroke="rgb(179,179,179)" stroke-linejoin="round" d="M 16267,8895 L 2160,8895"/>
 <path fill="none" stroke="rgb(179,179,179)" stroke-linejoin="round" d="M 16267,7844 L 2160,7844"/>
 <path fill="none" stroke="rgb(179,179,179)" stroke-linejoin="round" d="M 16267,6793 L 2160,6793"/>
 <path fill="none" stroke="rgb(179,179,179)" stroke-linejoin="round" d="M 16267,5742 L 2160,5742"/>
 <path fill="none" stroke="rgb(179,179,179)" stroke-linejoin="round" d="M 16267,4693 L 2160,4693"/>
 <path fill="none" stroke="rgb(179,179,179)" stroke-linejoin="round" d="M 16267,3642 L 2160,3642"/>
 <path fill="none" stroke="rgb(179,179,179)" stroke-linejoin="round" d="M 16267,2591 L 2160,2591"/>
 <path fill="none" stroke="rgb(179,179,179)" stroke-linejoin="round" d="M 16267,1541 L 2160,1541"/>
 <path fill="none" stroke="rgb(179,179,179)" stroke-linejoin="round" d="M 2160,9045 L 2160,8895"/>
 <path fill="none" stroke="rgb(179,179,179)" stroke-linejoin="round" d="M 2160,9045 L 2160,8895"/>
 <path fill="none" stroke="rgb(179,179,179)" stroke-linejoin="round" d="M 3570,9045 L 3570,8895"/>
 <path fill="none" stroke="rgb(179,179,179)" stroke-linejoin="round" d="M 3570,9045 L 3570,8895"/>
 <path fill="none" stroke="rgb(179,179,179)" stroke-linejoin="round" d="M 4981,9045 L 4981,8895"/>
 <path fill="none" stroke="rgb(179,179,179)" stroke-linejoin="round" d="M 4981,9045 L 4981,8895"/>
 <path fill="none" stroke="rgb(179,179,179)" stroke-linejoin="round" d="M 6392,9045 L 6392,8895"/>
 <path fill="none" stroke="rgb(179,179,179)" stroke-linejoin="round" d="M 6392,9045 L 6392,8895"/>
 <path fill="none" stroke="rgb(179,179,179)" stroke-linejoin="round" d="M 7803,9045 L 7803,8895"/>
 <path fill="none" stroke="rgb(179,179,179)" stroke-linejoin="round" d="M 7803,9045 L 7803,8895"/>
 <path fill="none" stroke="rgb(179,179,179)" stroke-linejoin="round" d="M 9213,9045 L 9213,8895"/>
 <path fill="none" stroke="rgb(179,179,179)" stroke-linejoin="round" d="M 9213,9045 L 9213,8895"/>
 <path fill="none" stroke="rgb(179,179,179)" stroke-linejoin="round" d="M 10623,9045 L 10623,8895"/>
 <path fill="none" stroke="rgb(179,179,179)" stroke-linejoin="round" d="M 10623,9045 L 10623,8895"/>
 <path fill="none" stroke="rgb(179,179,179)" stroke-linejoin="round" d="M 12034,9045 L 12034,8895"/>
 <path fill="none" stroke="rgb(179,179,179)" stroke-linejoin="round" d="M 12034,9045 L 12034,8895"/>
 <path fill="none" stroke="rgb(179,179,179)" stroke-linejoin="round" d="M 13445,9045 L 13445,8895"/>
 <path fill="none" stroke="rgb(179,179,179)" stroke-linejoin="round" d="M 13445,9045 L 13445,8895"/>
 <path fill="none" stroke="rgb(179,179,179)" stroke-linejoin="round" d="M 14856,9045 L 14856,8895"/>
 <path fill="none" stroke="rgb(179,179,179)" stroke-linejoin="round" d="M 14856,9045 L 14856,8895"/>
 <path fill="none" stroke="rgb(179,179,179)" stroke-linejoin="round" d="M 16267,9045 L 16267,8895"/>
 <path fill="none" stroke="rgb(179,179,179)" stroke-linejoin="round" d="M 16267,9045 L 16267,8895"/>
 <path fill="none" stroke="rgb(179,179,179)" stroke-linejoin="round" d="M 2160,8895 L 16267,8895"/>
 <path fill="none" stroke="rgb(179,179,179)" stroke-linejoin="round" d="M 2010,8895 L 2160,8895"/>
 <path fill="none" stroke="rgb(179,179,179)" stroke-linejoin="round" d="M 2010,8895 L 2160,8895"/>
 <path fill="none" stroke="rgb(179,179,179)" stroke-linejoin="round" d="M 2010,7844 L 2160,7844"/>
 <path fill="none" stroke="rgb(179,179,179)" stroke-linejoin="round" d="M 2010,7844 L 2160,7844"/>
 <path fill="none" stroke="rgb(179,179,179)" stroke-linejoin="round" d="M 2010,6793 L 2160,6793"/>
 <path fill="none" stroke="rgb(179,179,179)" stroke-linejoin="round" d="M 2010,6793 L 2160,6793"/>
 <path fill="none" stroke="rgb(179,179,179)" stroke-linejoin="round" d="M 2010,5742 L 2160,5742"/>
 <path fill="none" stroke="rgb(179,179,179)" stroke-linejoin="round" d="M 2010,5742 L 2160,5742"/>
 <path fill="none" stroke="rgb(179,179,179)" stroke-linejoin="round" d="M 2010,4693 L 2160,4693"/>
 <path fill="none" stroke="rgb(179,179,179)" stroke-linejoin="round" d="M 2010,4693 L 2160,4693"/>
 <path fill="none" stroke="rgb(179,179,179)" stroke-linejoin="round" d="M 2010,3642 L 2160,3642"/>
 <path fill="none" stroke="rgb(179,179,179)" stroke-linejoin="round" d="M 2010,3642 L 2160,3642"/>
 <path fill="none" stroke="rgb(179,179,179)" stroke-linejoin="round" d="M 2010,2591 L 2160,2591"/>
 <path fill="none" stroke="rgb(179,179,179)" stroke-linejoin="round" d="M 2010,2591 L 2160,2591"/>
 <path fill="none" stroke="rgb(179,179,179)" stroke-linejoin="round" d="M 2010,1541 L 2160,1541"/>
 <path fill="none" stroke="rgb(179,179,179)" stroke-linejoin="round" d="M 2010,1541 L 2160,1541"/>
 <path fill="none" stroke="rgb(179,179,179)" stroke-linejoin="round" d="M 2160,8895 L 2160,1541"/>
 <path fill="rgb(0,69,134)" stroke="none" d="M 9558,7434 L 9558,7684 9808,7684 9808,7434 9558,7434 Z"/>
 <path fill="none" stroke="rgb(0,69,134)" stroke-linejoin="round" d="M 9558,7434 L 9558,7684 9808,7684 9808,7434 9558,7434 Z"/>
 <path fill="rgb(0,69,134)" stroke="none" d="M 11909,3701 L 11909,3951 12159,3951 12159,3701 11909,3701 Z"/>
 <path fill="none" stroke="rgb(0,69,134)" stroke-linejoin="round" d="M 11909,3701 L 11909,3951 12159,3951 12159,3701 11909,3701 Z"/>
 <path fill="rgb(0,69,134)" stroke="none" d="M 8899,6730 L 8899,6980 9149,6980 9149,6730 8899,6730 Z"/>
 <path fill="none" stroke="rgb(0,69,134)" stroke-linejoin="round" d="M 8899,6730 L 8899,6980 9149,6980 9149,6730 8899,6730 Z"/>
 <path fill="rgb(0,69,134)" stroke="none" d="M 10875,7437 L 10875,7687 11125,7687 11125,7437 10875,7437 Z"/>
 <path fill="none" stroke="rgb(0,69,134)" stroke-linejoin="round" d="M 10875,7437 L 10875,7687 11125,7687 11125,7437 10875,7437 Z"/>
 <path fill="rgb(0,69,134)" stroke="none" d="M 6079,8137 L 6079,8387 6329,8387 6329,8137 6079,8137 Z"/>
 <path fill="none" stroke="rgb(0,69,134)" stroke-linejoin="round" d="M 6079,8137 L 6079,8387 6329,8387 6329,8137 6079,8137 Z"/>
 <path fill="rgb(0,69,134)" stroke="none" d="M 3351,5767 L 3351,6017 3601,6017 3601,5767 3351,5767 Z"/>
 <path fill="none" stroke="rgb(0,69,134)" stroke-linejoin="round" d="M 3351,5767 L 3351,6017 3601,6017 3601,5767 3351,5767 Z"/>
 <path fill="rgb(0,69,134)" stroke="none" d="M 14731,2496 L 14731,2746 14981,2746 14981,2496 14731,2496 Z"/>
 <path fill="none" stroke="rgb(0,69,134)" stroke-linejoin="round" d="M 14731,2496 L 14731,2746 14981,2746 14981,2496 14731,2496 Z"/>
 <text class="TextShape"><tspan class="TextParagraph" font-family="Liberation Sans, sans-serif" font-size="353px" font-weight="400"><tspan class="TextPosition" x="1670" y="9463"><tspan fill="rgb(0,0,0)" stroke="none">81.0%</tspan></tspan></tspan></text>
 <text class="TextShape"><tspan class="TextParagraph" font-family="Liberation Sans, sans-serif" font-size="353px" font-weight="400"><tspan class="TextPosition" x="3080" y="9463"><tspan fill="rgb(0,0,0)" stroke="none">81.5%</tspan></tspan></tspan></text>
 <text class="TextShape"><tspan class="TextParagraph" font-family="Liberation Sans, sans-serif" font-size="353px" font-weight="400"><tspan class="TextPosition" x="4491" y="9463"><tspan fill="rgb(0,0,0)" stroke="none">82.0%</tspan></tspan></tspan></text>
 <text class="TextShape"><tspan class="TextParagraph" font-family="Liberation Sans, sans-serif" font-size="353px" font-weight="400"><tspan class="TextPosition" x="5902" y="9463"><tspan fill="rgb(0,0,0)" stroke="none">82.5%</tspan></tspan></tspan></text>
 <text class="TextShape"><tspan class="TextParagraph" font-family="Liberation Sans, sans-serif" font-size="353px" font-weight="400"><tspan class="TextPosition" x="7313" y="9463"><tspan fill="rgb(0,0,0)" stroke="none">83.0%</tspan></tspan></tspan></text>
 <text class="TextShape"><tspan class="TextParagraph" font-family="Liberation Sans, sans-serif" font-size="353px" font-weight="400"><tspan class="TextPosition" x="8724" y="9463"><tspan fill="rgb(0,0,0)" stroke="none">83.5%</tspan></tspan></tspan></text>
 <text class="TextShape"><tspan class="TextParagraph" font-family="Liberation Sans, sans-serif" font-size="353px" font-weight="400"><tspan class="TextPosition" x="10134" y="9463"><tspan fill="rgb(0,0,0)" stroke="none">84.0%</tspan></tspan></tspan></text>
 <text class="TextShape"><tspan class="TextParagraph" font-family="Liberation Sans, sans-serif" font-size="353px" font-weight="400"><tspan class="TextPosition" x="11545" y="9463"><tspan fill="rgb(0,0,0)" stroke="none">84.5%</tspan></tspan></tspan></text>
 <text class="TextShape"><tspan class="TextParagraph" font-family="Liberation Sans, sans-serif" font-size="353px" font-weight="400"><tspan class="TextPosition" x="12956" y="9463"><tspan fill="rgb(0,0,0)" stroke="none">85.0%</tspan></tspan></tspan></text>
 <text class="TextShape"><tspan class="TextParagraph" font-family="Liberation Sans, sans-serif" font-size="353px" font-weight="400"><tspan class="TextPosition" x="14367" y="9463"><tspan fill="rgb(0,0,0)" stroke="none">85.5%</tspan></tspan></tspan></text>
 <text class="TextShape"><tspan class="TextParagraph" font-family="Liberation Sans, sans-serif" font-size="353px" font-weight="400"><tspan class="TextPosition" x="15778" y="9463"><tspan fill="rgb(0,0,0)" stroke="none">86.0%</tspan></tspan></tspan></text>
 <text class="TextShape"><tspan class="TextParagraph" font-family="Liberation Sans, sans-serif" font-size="353px" font-weight="400"><tspan class="TextPosition" x="1354" y="9016"><tspan fill="rgb(0,0,0)" stroke="none">100</tspan></tspan></tspan></text>
 <text class="TextShape"><tspan class="TextParagraph" font-family="Liberation Sans, sans-serif" font-size="353px" font-weight="400"><tspan class="TextPosition" x="1354" y="7965"><tspan fill="rgb(0,0,0)" stroke="none">150</tspan></tspan></tspan></text>
 <text class="TextShape"><tspan class="TextParagraph" font-family="Liberation Sans, sans-serif" font-size="353px" font-weight="400"><tspan class="TextPosition" x="1354" y="6914"><tspan fill="rgb(0,0,0)" stroke="none">200</tspan></tspan></tspan></text>
 <text class="TextShape"><tspan class="TextParagraph" font-family="Liberation Sans, sans-serif" font-size="353px" font-weight="400"><tspan class="TextPosition" x="1354" y="5863"><tspan fill="rgb(0,0,0)" stroke="none">250</tspan></tspan></tspan></text>
 <text class="TextShape"><tspan class="TextParagraph" font-family="Liberation Sans, sans-serif" font-size="353px" font-weight="400"><tspan class="TextPosition" x="1354" y="4813"><tspan fill="rgb(0,0,0)" stroke="none">300</tspan></tspan></tspan></text>
 <text class="TextShape"><tspan class="TextParagraph" font-family="Liberation Sans, sans-serif" font-size="353px" font-weight="400"><tspan class="TextPosition" x="1354" y="3762"><tspan fill="rgb(0,0,0)" stroke="none">350</tspan></tspan></tspan></text>
 <text class="TextShape"><tspan class="TextParagraph" font-family="Liberation Sans, sans-serif" font-size="353px" font-weight="400"><tspan class="TextPosition" x="1354" y="2711"><tspan fill="rgb(0,0,0)" stroke="none">400</tspan></tspan></tspan></text>
 <text class="TextShape"><tspan class="TextParagraph" font-family="Liberation Sans, sans-serif" font-size="353px" font-weight="400"><tspan class="TextPosition" x="1354" y="1661"><tspan fill="rgb(0,0,0)" stroke="none">450</tspan></tspan></tspan></text>
 <text class="TextShape"><tspan class="TextParagraph" font-family="Liberation Sans, sans-serif" font-size="353px" font-weight="400"><tspan class="TextPosition" x="9022" y="7255"><tspan fill="rgb(0,0,0)" stroke="none">Baseline</tspan></tspan></tspan></text>
 <text class="TextShape"><tspan class="TextParagraph" font-family="Liberation Sans, sans-serif" font-size="353px" font-weight="400"><tspan class="TextPosition" x="11029" y="4370"><tspan fill="rgb(0,0,0)" stroke="none">Red. In. Size</tspan></tspan></tspan></text>
 <text class="TextShape"><tspan class="TextParagraph" font-family="Liberation Sans, sans-serif" font-size="353px" font-weight="400"><tspan class="TextPosition" x="7794" y="6551"><tspan fill="rgb(0,0,0)" stroke="none">Red. Layer Size</tspan></tspan></tspan></text>
 <text class="TextShape"><tspan class="TextParagraph" font-family="Liberation Sans, sans-serif" font-size="353px" font-weight="400"><tspan class="TextPosition" x="10419" y="7258"><tspan fill="rgb(0,0,0)" stroke="none">Pruning</tspan></tspan></tspan></text>
 <text class="TextShape"><tspan class="TextParagraph" font-family="Liberation Sans, sans-serif" font-size="353px" font-weight="400"><tspan class="TextPosition" x="5344" y="7958"><tspan fill="rgb(0,0,0)" stroke="none">Sep. Conv.</tspan></tspan></tspan></text>
 <text class="TextShape"><tspan class="TextParagraph" font-family="Liberation Sans, sans-serif" font-size="353px" font-weight="400"><tspan class="TextPosition" x="2708" y="5588"><tspan fill="rgb(0,0,0)" stroke="none">Combined</tspan></tspan></tspan></text>
 <text class="TextShape"><tspan class="TextParagraph" font-family="Liberation Sans, sans-serif" font-size="353px" font-weight="400"><tspan class="TextPosition" x="12939" y="2317"><tspan fill="rgb(0,0,0)" stroke="none">Combined no Sep. Conv.</tspan></tspan></tspan></text>
 <text class="TextShape"><tspan class="TextParagraph" font-family="Liberation Sans, sans-serif" font-size="459px" font-weight="400"><tspan class="TextPosition" x="3735" y="885"><tspan fill="rgb(0,0,0)" stroke="none">Scene Classification - Performance vs Accuracy</tspan></tspan></tspan></text>
 <text class="TextShape"><tspan class="TextParagraph" font-family="Liberation Sans, sans-serif" font-size="318px" font-weight="400"><tspan class="TextPosition" x="8103" y="10144"><tspan fill="rgb(0,0,0)" stroke="none">Accuracy (%)</tspan></tspan></tspan></text>
 <text class="TextShape" transform="rotate(-90 837 7387)"><tspan class="TextParagraph" font-family="Liberation Sans, sans-serif" font-size="318px" font-weight="400"><tspan class="TextPosition" x="837" y="7387"><tspan fill="rgb(0,0,0)" stroke="none">Performance (inferences/s)</tspan></tspan></tspan></text>
</svg>