<?xml version="1.0" encoding="UTF-8"?>
<!DOCTYPE svg PUBLIC "-//W3C//DTD SVG 1.1//EN" "http://www.w3.org/Graphics/SVG/1.1/DTD/svg11.dtd">
<svg width="273mm" height="90mm" viewBox="0 0 27300 9000" version="1.1" xmlns="http://www.w3.org/2000/svg" xmlns:xlink="http://www.w3.org/1999/xlink" stroke-width="28.222" stroke-linejoin="round" xml:space="preserve">
 <path fill="rgb(255,255,255)" stroke="none" d="M 13631,8979 L 0,8979 0,0 27261,0 27261,8979 13631,8979 Z"/>
 <path fill="none" stroke="rgb(179,179,179)" stroke-linejoin="round" d="M 14592,8153 L 2468,8153 2468,1161 26716,1161 26716,8153 14592,8153 Z"/>
 <path fill="none" stroke="rgb(179,179,179)" stroke-linejoin="round" d="M 26716,8152 L 2468,8152"/>
 <path fill="none" stroke="rgb(179,179,179)" stroke-linejoin="round" d="M 26716,7375 L 2468,7375"/>
 <path fill="none" stroke="rgb(179,179,179)" stroke-linejoin="round" d="M 26716,6598 L 2468,6598"/>
 <path fill="none" stroke="rgb(179,179,179)" stroke-linejoin="round" d="M 26716,5821 L 2468,5821"/>
 <path fill="none" stroke="rgb(179,179,179)" stroke-linejoin="round" d="M 26716,5044 L 2468,5044"/>
 <path fill="none" stroke="rgb(179,179,179)" stroke-linejoin="round" d="M 26716,4268 L 2468,4268"/>
 <path fill="none" stroke="rgb(179,179,179)" stroke-linejoin="round" d="M 26716,3491 L 2468,3491"/>
 <path fill="none" stroke="rgb(179,179,179)" stroke-linejoin="round" d="M 26716,2714 L 2468,2714"/>
 <path fill="none" stroke="rgb(179,179,179)" stroke-linejoin="round" d="M 26716,1937 L 2468,1937"/>
 <path fill="none" stroke="rgb(179,179,179)" stroke-linejoin="round" d="M 26716,1160 L 2468,1160"/>
 <path fill="none" stroke="rgb(179,179,179)" stroke-linejoin="round" d="M 2468,8302 L 2468,8152"/>
 <path fill="none" stroke="rgb(179,179,179)" stroke-linejoin="round" d="M 2468,8302 L 2468,8152"/>
 <path fill="none" stroke="rgb(179,179,179)" stroke-linejoin="round" d="M 8530,8302 L 8530,8152"/>
 <path fill="none" stroke="rgb(179,179,179)" stroke-linejoin="round" d="M 8530,8302 L 8530,8152"/>
 <path fill="none" stroke="rgb(179,179,179)" stroke-linejoin="round" d="M 14591,8302 L 14591,8152"/>
 <path fill="none" stroke="rgb(179,179,179)" stroke-linejoin="round" d="M 14591,8302 L 14591,8152"/>
 <path fill="none" stroke="rgb(179,179,179)" stroke-linejoin="round" d="M 20653,8302 L 20653,8152"/>
 <path fill="none" stroke="rgb(179,179,179)" stroke-linejoin="round" d="M 20653,8302 L 20653,8152"/>
 <path fill="none" stroke="rgb(179,179,179)" stroke-linejoin="round" d="M 26716,8302 L 26716,8152"/>
 <path fill="none" stroke="rgb(179,179,179)" stroke-linejoin="round" d="M 26716,8302 L 26716,8152"/>
 <path fill="none" stroke="rgb(179,179,179)" stroke-linejoin="round" d="M 2468,8152 L 26716,8152"/>
 <path fill="none" stroke="rgb(179,179,179)" stroke-linejoin="round" d="M 2318,8152 L 2468,8152"/>
 <path fill="none" stroke="rgb(179,179,179)" stroke-linejoin="round" d="M 2318,8152 L 2468,8152"/>
 <path fill="none" stroke="rgb(179,179,179)" stroke-linejoin="round" d="M 2318,7375 L 2468,7375"/>
 <path fill="none" stroke="rgb(179,179,179)" stroke-linejoin="round" d="M 2318,7375 L 2468,7375"/>
 <path fill="none" stroke="rgb(179,179,179)" stroke-linejoin="round" d="M 2318,6598 L 2468,6598"/>
 <path fill="none" stroke="rgb(179,179,179)" stroke-linejoin="round" d="M 2318,6598 L 2468,6598"/>
 <path fill="none" stroke="rgb(179,179,179)" stroke-linejoin="round" d="M 2318,5821 L 2468,5821"/>
 <path fill="none" stroke="rgb(179,179,179)" stroke-linejoin="round" d="M 2318,5821 L 2468,5821"/>
 <path fill="none" stroke="rgb(179,179,179)" stroke-linejoin="round" d="M 2318,5044 L 2468,5044"/>
 <path fill="none" stroke="rgb(179,179,179)" stroke-linejoin="round" d="M 2318,5044 L 2468,5044"/>
 <path fill="none" stroke="rgb(179,179,179)" stroke-linejoin="round" d="M 2318,4268 L 2468,4268"/>
 <path fill="none" stroke="rgb(179,179,179)" stroke-linejoin="round" d="M 2318,4268 L 2468,4268"/>
 <path fill="none" stroke="rgb(179,179,179)" stroke-linejoin="round" d="M 2318,3491 L 2468,3491"/>
 <path fill="none" stroke="rgb(179,179,179)" stroke-linejoin="round" d="M 2318,3491 L 2468,3491"/>
 <path fill="none" stroke="rgb(179,179,179)" stroke-linejoin="round" d="M 2318,2714 L 2468,2714"/>
 <path fill="none" stroke="rgb(179,179,179)" stroke-linejoin="round" d="M 2318,2714 L 2468,2714"/>
 <path fill="none" stroke="rgb(179,179,179)" stroke-linejoin="round" d="M 2318,1937 L 2468,1937"/>
 <path fill="none" stroke="rgb(179,179,179)" stroke-linejoin="round" d="M 2318,1937 L 2468,1937"/>
 <path fill="none" stroke="rgb(179,179,179)" stroke-linejoin="round" d="M 2318,1160 L 2468,1160"/>
 <path fill="none" stroke="rgb(179,179,179)" stroke-linejoin="round" d="M 2318,1160 L 2468,1160"/>
 <path fill="none" stroke="rgb(179,179,179)" stroke-linejoin="round" d="M 2468,8152 L 2468,1160"/>
 <path fill="rgb(0,69,134)" stroke="none" d="M 21086,8152 L 21952,8152 21952,1929 21086,1929 21086,8152 Z"/>
 <path fill="rgb(0,69,134)" stroke="none" d="M 15024,8152 L 15890,8152 15890,4989 15024,4989 15024,8152 Z"/>
 <path fill="rgb(0,69,134)" stroke="none" d="M 8963,8152 L 9829,8152 9829,4779 8963,4779 8963,8152 Z"/>
 <path fill="rgb(0,69,134)" stroke="none" d="M 2901,8152 L 3767,8152 3767,5797 2901,5797 2901,8152 Z"/>
 <path fill="rgb(255,66,14)" stroke="none" d="M 21952,8152 L 22818,8152 22818,1696 21952,1696 21952,8152 Z"/>
 <path fill="rgb(255,66,14)" stroke="none" d="M 15890,8152 L 16756,8152 16756,4989 15890,4989 15890,8152 Z"/>
 <path fill="rgb(255,66,14)" stroke="none" d="M 9829,8152 L 10695,8152 10695,4795 9829,4795 9829,8152 Z"/>
 <path fill="rgb(255,66,14)" stroke="none" d="M 3767,8152 L 4633,8152 4633,3848 3767,3848 3767,8152 Z"/>
 <path fill="rgb(255,211,32)" stroke="none" d="M 22818,8152 L 23684,8152 23684,5199 22818,5199 22818,8152 Z"/>
 <path fill="rgb(255,211,32)" stroke="none" d="M 16756,8152 L 17622,8152 17622,5051 16756,5051 16756,8152 Z"/>
 <path fill="rgb(255,211,32)" stroke="none" d="M 10695,8152 L 11561,8152 11561,6660 10695,6660 10695,8152 Z"/>
 <path fill="rgb(255,211,32)" stroke="none" d="M 4633,8152 L 5499,8152 5499,7491 4633,7491 4633,8152 Z"/>
 <path fill="rgb(87,157,28)" stroke="none" d="M 23684,8152 L 24550,8152 24550,4733 23684,4733 23684,8152 Z"/>
 <path fill="rgb(87,157,28)" stroke="none" d="M 17622,8152 L 18488,8152 18488,5067 17622,5067 17622,8152 Z"/>
 <path fill="rgb(87,157,28)" stroke="none" d="M 11561,8152 L 12427,8152 12427,6605 11561,6605 11561,8152 Z"/>
 <path fill="rgb(87,157,28)" stroke="none" d="M 5499,8152 L 6365,8152 6365,5875 5499,5875 5499,8152 Z"/>
 <path fill="rgb(126,0,33)" stroke="none" d="M 24550,8152 L 25416,8152 25416,3693 24550,3693 24550,8152 Z"/>
 <path fill="rgb(126,0,33)" stroke="none" d="M 18488,8152 L 19354,8152 19354,7235 18488,7235 18488,8152 Z"/>
 <path fill="rgb(126,0,33)" stroke="none" d="M 12427,8152 L 13293,8152 13293,7025 12427,7025 12427,8152 Z"/>
 <path fill="rgb(126,0,33)" stroke="none" d="M 6365,8152 L 7231,8152 7231,7507 6365,7507 6365,8152 Z"/>
 <path fill="rgb(131,202,255)" stroke="none" d="M 25416,8152 L 26282,8152 26282,3801 25416,3801 25416,8152 Z"/>
 <path fill="rgb(131,202,255)" stroke="none" d="M 19354,8152 L 20220,8152 20220,7165 19354,7165 19354,8152 Z"/>
 <path fill="rgb(131,202,255)" stroke="none" d="M 13293,8152 L 14158,8152 14158,6947 13293,6947 13293,8152 Z"/>
 <path fill="rgb(131,202,255)" stroke="none" d="M 7231,8152 L 8097,8152 8097,5098 7231,5098 7231,8152 Z"/>
 <text class="TextShape"><tspan class="TextParagraph" font-family="Liberation Sans, sans-serif" font-size="353px" font-weight="400"><tspan class="TextPosition" x="4493" y="8720"><tspan fill="rgb(0,0,0)" stroke="none">blackscholes</tspan></tspan></tspan></text>
 <text class="TextShape"><tspan class="TextParagraph" font-family="Liberation Sans, sans-serif" font-size="353px" font-weight="400"><tspan class="TextPosition" x="10780" y="8720"><tspan fill="rgb(0,0,0)" stroke="none">inversek2j</tspan></tspan></tspan></text>
 <text class="TextShape"><tspan class="TextParagraph" font-family="Liberation Sans, sans-serif" font-size="353px" font-weight="400"><tspan class="TextPosition" x="17014" y="8720"><tspan fill="rgb(0,0,0)" stroke="none">kmeans</tspan></tspan></tspan></text>
 <text class="TextShape"><tspan class="TextParagraph" font-family="Liberation Sans, sans-serif" font-size="353px" font-weight="400"><tspan class="TextPosition" x="23275" y="8720"><tspan fill="rgb(0,0,0)" stroke="none">sobel</tspan></tspan></tspan></text>
 <text class="TextShape"><tspan class="TextParagraph" font-family="Liberation Sans, sans-serif" font-size="353px" font-weight="400"><tspan class="TextPosition" x="1557" y="8273"><tspan fill="rgb(0,0,0)" stroke="none">0.00</tspan></tspan></tspan></text>
 <text class="TextShape"><tspan class="TextParagraph" font-family="Liberation Sans, sans-serif" font-size="353px" font-weight="400"><tspan class="TextPosition" x="1557" y="7496"><tspan fill="rgb(0,0,0)" stroke="none">1.00</tspan></tspan></tspan></text>
 <text class="TextShape"><tspan class="TextParagraph" font-family="Liberation Sans, sans-serif" font-size="353px" font-weight="400"><tspan class="TextPosition" x="1557" y="6719"><tspan fill="rgb(0,0,0)" stroke="none">2.00</tspan></tspan></tspan></text>
 <text class="TextShape"><tspan class="TextParagraph" font-family="Liberation Sans, sans-serif" font-size="353px" font-weight="400"><tspan class="TextPosition" x="1557" y="5942"><tspan fill="rgb(0,0,0)" stroke="none">3.00</tspan></tspan></tspan></text>
 <text class="TextShape"><tspan class="TextParagraph" font-family="Liberation Sans, sans-serif" font-size="353px" font-weight="400"><tspan class="TextPosition" x="1557" y="5165"><tspan fill="rgb(0,0,0)" stroke="none">4.00</tspan></tspan></tspan></text>
 <text class="TextShape"><tspan class="TextParagraph" font-family="Liberation Sans, sans-serif" font-size="353px" font-weight="400"><tspan class="TextPosition" x="1557" y="4388"><tspan fill="rgb(0,0,0)" stroke="none">5.00</tspan></tspan></tspan></text>
 <text class="TextShape"><tspan class="TextParagraph" font-family="Liberation Sans, sans-serif" font-size="353px" font-weight="400"><tspan class="TextPosition" x="1557" y="3611"><tspan fill="rgb(0,0,0)" stroke="none">6.00</tspan></tspan></tspan></text>
 <text class="TextShape"><tspan class="TextParagraph" font-family="Liberation Sans, sans-serif" font-size="353px" font-weight="400"><tspan class="TextPosition" x="1557" y="2834"><tspan fill="rgb(0,0,0)" stroke="none">7.00</tspan></tspan></tspan></text>
 <text class="TextShape"><tspan class="TextParagraph" font-family="Liberation Sans, sans-serif" font-size="353px" font-weight="400"><tspan class="TextPosition" x="1557" y="2057"><tspan fill="rgb(0,0,0)" stroke="none">8.00</tspan></tspan></tspan></text>
 <text class="TextShape"><tspan class="TextParagraph" font-family="Liberation Sans, sans-serif" font-size="353px" font-weight="400"><tspan class="TextPosition" x="1557" y="1280"><tspan fill="rgb(0,0,0)" stroke="none">9.00</tspan></tspan></tspan></text>
 <text class="TextShape"><tspan class="TextParagraph" font-family="Liberation Sans, sans-serif" font-size="353px" font-weight="400"><tspan class="TextPosition" x="3003" y="5619"><tspan fill="rgb(0,0,0)" stroke="none">3.03</tspan></tspan></tspan></text>
 <text class="TextShape"><tspan class="TextParagraph" font-family="Liberation Sans, sans-serif" font-size="353px" font-weight="400"><tspan class="TextPosition" x="9065" y="4601"><tspan fill="rgb(0,0,0)" stroke="none">4.34</tspan></tspan></tspan></text>
 <text class="TextShape"><tspan class="TextParagraph" font-family="Liberation Sans, sans-serif" font-size="353px" font-weight="400"><tspan class="TextPosition" x="15127" y="4811"><tspan fill="rgb(0,0,0)" stroke="none">4.07</tspan></tspan></tspan></text>
 <text class="TextShape"><tspan class="TextParagraph" font-family="Liberation Sans, sans-serif" font-size="353px" font-weight="400"><tspan class="TextPosition" x="21189" y="1751"><tspan fill="rgb(0,0,0)" stroke="none">8.01</tspan></tspan></tspan></text>
 <text class="TextShape"><tspan class="TextParagraph" font-family="Liberation Sans, sans-serif" font-size="353px" font-weight="400"><tspan class="TextPosition" x="3869" y="3670"><tspan fill="rgb(0,0,0)" stroke="none">5.54</tspan></tspan></tspan></text>
 <text class="TextShape"><tspan class="TextParagraph" font-family="Liberation Sans, sans-serif" font-size="353px" font-weight="400"><tspan class="TextPosition" x="9931" y="4617"><tspan fill="rgb(0,0,0)" stroke="none">4.32</tspan></tspan></tspan></text>
 <text class="TextShape"><tspan class="TextParagraph" font-family="Liberation Sans, sans-serif" font-size="353px" font-weight="400"><tspan class="TextPosition" x="15993" y="4811"><tspan fill="rgb(0,0,0)" stroke="none">4.07</tspan></tspan></tspan></text>
 <text class="TextShape"><tspan class="TextParagraph" font-family="Liberation Sans, sans-serif" font-size="353px" font-weight="400"><tspan class="TextPosition" x="22055" y="1518"><tspan fill="rgb(0,0,0)" stroke="none">8.31</tspan></tspan></tspan></text>
 <text class="TextShape"><tspan class="TextParagraph" font-family="Liberation Sans, sans-serif" font-size="353px" font-weight="400"><tspan class="TextPosition" x="4735" y="7313"><tspan fill="rgb(0,0,0)" stroke="none">0.85</tspan></tspan></tspan></text>
 <text class="TextShape"><tspan class="TextParagraph" font-family="Liberation Sans, sans-serif" font-size="353px" font-weight="400"><tspan class="TextPosition" x="10797" y="6482"><tspan fill="rgb(0,0,0)" stroke="none">1.92</tspan></tspan></tspan></text>
 <text class="TextShape"><tspan class="TextParagraph" font-family="Liberation Sans, sans-serif" font-size="353px" font-weight="400"><tspan class="TextPosition" x="16859" y="4873"><tspan fill="rgb(0,0,0)" stroke="none">3.99</tspan></tspan></tspan></text>
 <text class="TextShape"><tspan class="TextParagraph" font-family="Liberation Sans, sans-serif" font-size="353px" font-weight="400"><tspan class="TextPosition" x="22921" y="5021"><tspan fill="rgb(0,0,0)" stroke="none">3.80</tspan></tspan></tspan></text>
 <text class="TextShape"><tspan class="TextParagraph" font-family="Liberation Sans, sans-serif" font-size="353px" font-weight="400"><tspan class="TextPosition" x="5601" y="5697"><tspan fill="rgb(0,0,0)" stroke="none">2.93</tspan></tspan></tspan></text>
 <text class="TextShape"><tspan class="TextParagraph" font-family="Liberation Sans, sans-serif" font-size="353px" font-weight="400"><tspan class="TextPosition" x="11663" y="6427"><tspan fill="rgb(0,0,0)" stroke="none">1.99</tspan></tspan></tspan></text>
 <text class="TextShape"><tspan class="TextParagraph" font-family="Liberation Sans, sans-serif" font-size="353px" font-weight="400"><tspan class="TextPosition" x="17725" y="4889"><tspan fill="rgb(0,0,0)" stroke="none">3.97</tspan></tspan></tspan></text>
 <text class="TextShape"><tspan class="TextParagraph" font-family="Liberation Sans, sans-serif" font-size="353px" font-weight="400"><tspan class="TextPosition" x="23787" y="4555"><tspan fill="rgb(0,0,0)" stroke="none">4.40</tspan></tspan></tspan></text>
 <text class="TextShape"><tspan class="TextParagraph" font-family="Liberation Sans, sans-serif" font-size="353px" font-weight="400"><tspan class="TextPosition" x="6467" y="7329"><tspan fill="rgb(0,0,0)" stroke="none">0.83</tspan></tspan></tspan></text>
 <text class="TextShape"><tspan class="TextParagraph" font-family="Liberation Sans, sans-serif" font-size="353px" font-weight="400"><tspan class="TextPosition" x="12529" y="6847"><tspan fill="rgb(0,0,0)" stroke="none">1.45</tspan></tspan></tspan></text>
 <text class="TextShape"><tspan class="TextParagraph" font-family="Liberation Sans, sans-serif" font-size="353px" font-weight="400"><tspan class="TextPosition" x="18591" y="7057"><tspan fill="rgb(0,0,0)" stroke="none">1.18</tspan></tspan></tspan></text>
 <text class="TextShape"><tspan class="TextParagraph" font-family="Liberation Sans, sans-serif" font-size="353px" font-weight="400"><tspan class="TextPosition" x="24653" y="3515"><tspan fill="rgb(0,0,0)" stroke="none">5.74</tspan></tspan></tspan></text>
 <text class="TextShape"><tspan class="TextParagraph" font-family="Liberation Sans, sans-serif" font-size="353px" font-weight="400"><tspan class="TextPosition" x="7333" y="4920"><tspan fill="rgb(0,0,0)" stroke="none">3.93</tspan></tspan></tspan></text>
 <text class="TextShape"><tspan class="TextParagraph" font-family="Liberation Sans, sans-serif" font-size="353px" font-weight="400"><tspan class="TextPosition" x="13395" y="6769"><tspan fill="rgb(0,0,0)" stroke="none">1.55</tspan></tspan></tspan></text>
 <text class="TextShape"><tspan class="TextParagraph" font-family="Liberation Sans, sans-serif" font-size="353px" font-weight="400"><tspan class="TextPosition" x="19457" y="6987"><tspan fill="rgb(0,0,0)" stroke="none">1.27</tspan></tspan></tspan></text>
 <text class="TextShape"><tspan class="TextParagraph" font-family="Liberation Sans, sans-serif" font-size="353px" font-weight="400"><tspan class="TextPosition" x="25519" y="3623"><tspan fill="rgb(0,0,0)" stroke="none">5.60</tspan></tspan></tspan></text>
 <path fill="rgb(0,69,134)" stroke="none" d="M 5867,588 L 5762,588 5762,377 5973,377 5973,588 5867,588 Z"/>
 <path fill="rgb(255,66,14)" stroke="none" d="M 8211,588 L 8106,588 8106,377 8317,377 8317,588 8211,588 Z"/>
 <path fill="rgb(255,211,32)" stroke="none" d="M 11190,588 L 11085,588 11085,377 11296,377 11296,588 11190,588 Z"/>
 <path fill="rgb(87,157,28)" stroke="none" d="M 13534,588 L 13429,588 13429,377 13639,377 13639,588 13534,588 Z"/>
 <path fill="rgb(126,0,33)" stroke="none" d="M 16513,588 L 16407,588 16407,377 16618,377 16618,588 16513,588 Z"/>
 <path fill="rgb(131,202,255)" stroke="none" d="M 18857,588 L 18751,588 18751,377 18962,377 18962,588 18857,588 Z"/>
 <text class="TextShape"><tspan class="TextParagraph" font-family="Liberation Sans, sans-serif" font-size="353px" font-weight="400"><tspan class="TextPosition" x="6073" y="602"><tspan fill="rgb(0,0,0)" stroke="none">CPU (NN 1)</tspan></tspan></tspan></text>
 <text class="TextShape"><tspan class="TextParagraph" font-family="Liberation Sans, sans-serif" font-size="353px" font-weight="400"><tspan class="TextPosition" x="8417" y="602"><tspan fill="rgb(0,0,0)" stroke="none">MYRIAD (NN 1)</tspan></tspan></tspan></text>
 <text class="TextShape"><tspan class="TextParagraph" font-family="Liberation Sans, sans-serif" font-size="353px" font-weight="400"><tspan class="TextPosition" x="11396" y="602"><tspan fill="rgb(0,0,0)" stroke="none">CPU (NN 2)</tspan></tspan></tspan></text>
 <text class="TextShape"><tspan class="TextParagraph" font-family="Liberation Sans, sans-serif" font-size="353px" font-weight="400"><tspan class="TextPosition" x="13739" y="602"><tspan fill="rgb(0,0,0)" stroke="none">MYRIAD (NN 2)</tspan></tspan></tspan></text>
 <text class="TextShape"><tspan class="TextParagraph" font-family="Liberation Sans, sans-serif" font-size="353px" font-weight="400"><tspan class="TextPosition" x="16718" y="602"><tspan fill="rgb(0,0,0)" stroke="none">CPU (NN 3)</tspan></tspan></tspan></text>
 <text class="TextShape"><tspan class="TextParagraph" font-family="Liberation Sans, sans-serif" font-size="353px" font-weight="400"><tspan class="TextPosition" x="19062" y="602"><tspan fill="rgb(0,0,0)" stroke="none">MYRIAD (NN 3)</tspan></tspan></tspan></text>
 <text class="TextShape" transform="rotate(-90 837 5476)"><tspan class="TextParagraph" font-family="Liberation Sans, sans-serif" font-size="318px" font-weight="400"><tspan class="TextPosition" x="837" y="5476"><tspan fill="rgb(0,0,0)" stroke="none">WMAPE</tspan></tspan></tspan></text>
</svg>